<svg width="626" height="713" fill="none" xmlns="http://www.w3.org/2000/svg"><g clip-path="url(#clip0_1_1801)"><path d="M38.584 371.815l23.07 157.144 83.849 221.022-77.307-233.109-29.612-145.057z" fill="url(#paint0_linear_1_1801)"/><path d="M64.733 359.728l-26.149 12.087 29.612 145.057 23.84 71.905-27.303-229.049z" fill="url(#paint1_linear_1_1801)"/><path d="M82.047 351.101l4.833 194.358-22.148-185.731 17.315-8.627z" fill="url(#paint2_linear_1_1801)"/><path d="M94.344 345.919l4.617 228.803-6.926 14.055-5.156-43.318-4.832-194.358 12.297-5.182z" fill="url(#paint3_linear_1_1801)"/><path d="M116.276 337.277L98.962 574.722l-4.617-228.803 21.931-8.642z" fill="url(#paint4_linear_1_1801)"/><path d="M109.72 642.076l48.85 50.054 29.611 57.851-37.307 6.043-5.371-6.043-35.783-107.905z" fill="url(#paint5_linear_1_1801)"/><path d="M98.962 574.722l26.58 83.562-15.822-16.208-17.684-53.299 6.926-14.055z" fill="url(#paint6_linear_1_1801)"/><path d="M116.276 337.277l66.519 327.235 34.229 78.564-34.229-139.874-30.381-257.283-36.138-8.642z" fill="url(#paint7_linear_1_1801)"/><path d="M125.542 658.284l-9.266-321.007-17.314 237.445 26.58 83.562z" fill="url(#paint8_linear_1_1801)"/><path d="M177.038 351.101l5.756 252.101-30.381-257.283 24.625 5.182z" fill="url(#paint9_linear_1_1801)"/><path d="M116.276 337.277l9.266 321.007 33.028 33.846-42.294-354.853z" fill="url(#paint10_linear_1_1801)"/><path d="M217.023 743.076l-28.842 6.905-29.612-57.851 1.57-139.029 22.655 111.411 34.229 78.564z" fill="url(#paint11_linear_1_1801)"/><path d="M116.276 337.277L158.57 692.13l1.57-139.029-43.864-215.824z" fill="url(#paint12_linear_1_1801)"/><path d="M177.038 351.101l58.839 72.521-23.086 179.58 4.232 139.874-34.229-139.874-5.756-252.101z" fill="url(#paint13_linear_1_1801)"/><path d="M233.568 803.51l-16.545-60.434-4.232-139.874 23.086-179.58 24.995 36.26-33.46 222.76 6.156 120.868z" fill="url(#paint14_linear_1_1801)"/><path d="M285.096 456.007l-48.265 160.496 24.04-156.621 24.225-3.875z" fill="url(#paint15_linear_1_1801)"/><path d="M302.011 456.007h-16.915l-48.265 160.496 30.197 142.981-18.854-145.918 53.837-157.559z" fill="url(#paint16_linear_1_1801)"/><path d="M233.568 803.51l18.839 44.903 20.577-30.494-45.572-135.277 6.156 120.868z" fill="url(#paint17_linear_1_1801)"/><path d="M236.831 616.503l-9.419 66.139 48.835 147.64 73.844-131.232-83.063 60.434-30.197-142.981z" fill="url(#paint18_linear_1_1801)"/><path d="M342.78 456.007l7.311 243.043 24.225-250.778-31.536 7.735z" fill="url(#paint19_linear_1_1801)"/><path d="M399.311 452.117L350.092 699.05l24.225-250.778 24.994 3.845z" fill="url(#paint20_linear_1_1801)"/><path d="M302.01 456.007l-41.139 157.559 6.156 145.918-18.853-145.918 53.836-157.559z" fill="url(#paint21_linear_1_1801)"/><path d="M342.78 456.007l7.311 243.043-83.064 60.434-6.156-145.918 41.139-157.559h40.77z" fill="url(#paint22_linear_1_1801)"/><path d="M276.247 830.283L342.781 910l7.311-210.95-73.845 131.233z" fill="url(#paint23_linear_1_1801)"/><path d="M399.31 452.117l6.803-3.845-3.401 356.253L342.78 910l7.311-210.95 49.219-246.933z" fill="url(#paint24_linear_1_1801)"/><path d="M420.473 431.111l-17.761 373.414 3.401-356.253 14.36-17.161z" fill="url(#paint25_linear_1_1801)"/><path d="M443.543 410.382l-38.984 355.145 15.914-334.416 23.07-20.729z" fill="url(#paint26_linear_1_1801)"/><path d="M473.278 410.382l-34.86 268.754-33.859 86.391 38.984-355.145h29.735z" fill="url(#paint27_linear_1_1801)"/><path d="M567.115 417.286l-2.047 190.452-143.995 115.655 17.346-44.257 34.859-268.754 93.837 6.904z" fill="url(#paint28_linear_1_1801)"/><path d="M588.139 423.622L576.35 607.738 434.248 743.076l-13.175-19.683 143.995-115.655 2.047-190.452 21.024 6.336z" fill="url(#paint29_linear_1_1801)"/><path d="M481.989 814.444l30.458-145.857-78.2 74.489 47.742 71.368z" fill="url(#paint30_linear_1_1801)"/><path d="M561.174 622.193l-46.356 143.334-32.829 48.917 30.458-145.857 48.727-46.394z" fill="url(#paint31_linear_1_1801)"/><path d="M656.335 371.815l-26.657 208.366-62.563 153.684-85.126 80.579 32.829-48.916 46.356-55.837 46.449-120.914 32.813-210.627 15.899-6.335z" fill="url(#paint32_linear_1_1801)"/><path d="M576.349 607.738l-15.175 101.953-46.357 55.836 46.357-143.334 15.175-14.455z" fill="url(#paint33_linear_1_1801)"/><path d="M588.139 423.622L576.35 607.738l-15.175 101.953 46.449-120.914 32.813-210.627-52.298 45.472z" fill="url(#paint34_linear_1_1801)"/><path d="M656.335 371.815l-21.023 286.469-42.787 13.148 37.154-91.251 26.656-208.366z" fill="url(#paint35_linear_1_1801)"/><path d="M38.584 371.815l5.387 181.286 23.84 69.968 16.545-34.292-22.701-59.818-23.071-157.144z" fill="url(#paint36_linear_1_1801)"/><path d="M4.802 435.078l6.48 44.211 30.38 16.269.647-55.805-37.507-4.675z" fill="url(#paint37_linear_1_1801)"/><path d="M114.799 426.159L41.662 440.86v54.698l73.137-14.332v-55.067z" fill="url(#paint38_linear_1_1801)"/><path d="M172.483 432.11l-57.684-5.951v55.067l59.239 6.321-1.555-55.437z" fill="url(#paint39_linear_1_1801)"/><path d="M190.013 451.548l-17.53-19.438v55.267l17.53 17.331v-53.16z" fill="url(#paint40_linear_1_1801)"/><path d="M242.096 479.289l-52.082-27.741v53.16l52.082 28.541v-53.96z" fill="url(#paint41_linear_1_1801)"/><path d="M324.774 484.871l-82.678-5.582v53.96l82.678 7.796v-56.174z" fill="url(#paint42_linear_1_1801)"/><path d="M400.727 480.642l-75.953 4.229v56.174l76.461-4.828-.508-55.575z" fill="url(#paint43_linear_1_1801)"/><path d="M445.53 461.466l-44.802 20.529.507 54.222 44.295-19.591v-55.16z" fill="url(#paint44_linear_1_1801)"/><path d="M591.479 468.617l-145.95-7.151v55.16l145.688 6.92.262-54.929z" fill="url(#paint45_linear_1_1801)"/><path d="M676.205 443.459l-84.726 25.158-.261 54.929 84.987-27.126v-52.961z" fill="url(#paint46_linear_1_1801)"/><path d="M4.802 376.213v39.013l9.173-17.454 12.374 4.614 12.682-11.518L4.8 376.213z" fill="url(#paint47_linear_1_1801)"/><path d="M68.458 340.814l-49.235 7.427L0 353.823v22.636l4.525 4.582 23.163 9.796L0 408.813v20.622l4.525 8.319 37.014 4.859 75.369-12.625 55.575 6.228 17.53 16.808 53.806 28.233 83.064 5.951 73.844-5.213 45.372-20.052 145.38 6.674 84.726-24.02 19.685-16.915.184-10.703-22.301-11.518 3.848-12.625L703 375.352v-11.134l-3.848-12.256-31.535-20.805-46.141-4.46-11.543-13.378 5.894-6.951-.508-13.486-8.465-4.829-76.907-8.919-153.83 15.608-56.914-15.608h-38.462l-74.614 3.722-55.375 33.43-40.77 2.23-23.07 4.46-18.454 17.838z" fill="url(#paint48_linear_1_1801)"/><path d="M65.38 330.787l-49.235 7.428L0 353.823l4.617 14.855 20.762 8.919L0 408.813l4.617 18.576 33.844 5.198 75.368-12.64 55.376 3.721 23.086 23.774 48.45 23.789 83.063 5.936 73.845-5.198 45.372-20.068 145.38 6.69 83.833-23.774 23.84-17.838-25.379-21.544 3.848-12.641L703 364.218l-6.926-22.282-31.535-20.806-46.142-4.459-11.543-13.379 8.465-10.41-11.543-14.855-76.907-8.919-153.83 15.608-56.914-15.608h-38.462l-74.614 3.721-55.375 33.431-40.77 2.23-23.071 4.459-18.453 17.838z" fill="url(#paint49_linear_1_1801)"/><path d="M54.376 319.623l356.448 9.381 6.31-56.144-27.118-17.515-113.814-26.327-182.78 44.596-39.046 46.009z" fill="#1B1B1B"/><path d="M359.634 225.497l44.649 34.461-266.859-1.414 97.638-39.521 124.572 6.474z" fill="url(#paint50_linear_1_1801)"/><path d="M112.875 361.912c21.599 0 39.108-17.495 39.108-39.075 0-21.58-17.509-39.074-39.108-39.074-21.598 0-39.107 17.494-39.107 39.074s17.509 39.075 39.107 39.075z" fill="url(#paint51_linear_1_1801)"/><path d="M110.412 289.883c-18.207 1.369-31.874 17.223-30.504 35.415 1.37 18.191 17.238 31.847 35.445 30.478 18.207-1.369 31.874-17.223 30.504-35.415-1.37-18.191-17.237-31.847-35.445-30.478zm30.443 38.905l-21.747-4.536c.123-.6.2-1.215.154-1.861-.092-1.184-.508-2.26-1.123-3.198l18.468-12.287a28.306 28.306 0 014.802 13.794c.216 2.783 0 5.49-.569 8.088h.015zm-12.22-29.771l-12.328 18.346c-1.2-.815-2.663-1.261-4.217-1.138-.262.015-.508.092-.754.138l-4.156-21.513c1.17-.231 2.355-.431 3.571-.523 6.572-.492 12.79 1.307 17.899 4.69h-.015zm-31.705.108l12.005 18.207a6.645 6.645 0 00-2.986 5.259l-21.64-.969c.386-9.272 5.264-17.53 12.637-22.497h-.016zM85.972 332.51l20.346-7.366c.693 1.907 2.201 3.414 4.094 4.06l-7.095 20.559a28.709 28.709 0 01-17.36-17.269l.015.016zm29.042 18.853c-.231.015-.462 0-.708.015l-1.323-21.821h.092c2.109-.154 3.894-1.291 5.017-2.921l18.3 12.455c-4.756 6.859-12.436 11.595-21.393 12.272h.015z" fill="url(#paint52_linear_1_1801)"/><path d="M403.605 335.032c1.432-4.937 2.078-10.257 1.632-15.655-1.847-24.25-22.979-42.488-47.311-40.627-24.271 1.768-42.525 22.958-40.678 47.209a42.003 42.003 0 001.339 7.996L154.6 331.864c1.646-5.013 1.862-10.257 1.677-12.994-1.847-24.389-23.117-42.704-47.526-40.858-24.333 1.768-42.74 23.035-40.893 47.424.061 1.23.261 2.445.385 3.598-10.39 1.815-34.768 1.277-34.876-1.599l-1.216-29.202c13.898-29.51 77.769-34.723 85.834-35.276l303.089 3.152 43.063 69.692-60.562-.769h.03z" fill="url(#paint53_linear_1_1801)"/><path d="M361.389 362.096c21.599 0 39.108-17.494 39.108-39.074s-17.509-39.075-39.108-39.075c-21.599 0-39.108 17.495-39.108 39.075 0 21.58 17.509 39.074 39.108 39.074z" fill="url(#paint54_linear_1_1801)"/><path d="M358.926 290.068c-18.207 1.368-31.874 17.222-30.504 35.414 1.37 18.192 17.237 31.847 35.444 30.479 18.208-1.369 31.875-17.223 30.505-35.415-1.37-18.192-17.238-31.847-35.445-30.478zm30.443 38.905l-21.747-4.537c.123-.599.2-1.214.154-1.86-.093-1.184-.508-2.261-1.124-3.199l18.469-12.286a28.313 28.313 0 014.802 13.793c.215 2.784 0 5.49-.57 8.089h.016zm-12.22-29.771l-12.328 18.345c-1.201-.815-2.663-1.261-4.217-1.138-.262.016-.508.093-.754.139l-4.156-21.513c1.17-.231 2.355-.431 3.571-.523 6.571-.492 12.789 1.307 17.899 4.69h-.015zm-31.705.107l12.005 18.208a6.64 6.64 0 00-2.986 5.259l-21.64-.969c.385-9.273 5.264-17.531 12.636-22.498h-.015zm-10.958 33.385l20.346-7.366c.693 1.907 2.201 3.414 4.094 4.06l-7.095 20.56a28.714 28.714 0 01-17.361-17.269l.016.015zm29.042 18.853c-.231.016-.462 0-.708.016l-1.324-21.821h.093c2.108-.154 3.893-1.292 5.017-2.922l18.3 12.456c-4.756 6.858-12.436 11.595-21.393 12.271h.015z" fill="url(#paint55_linear_1_1801)"/><path d="M472.756 180.641l-32.921 18.699-8.434 11.379.631 1.569-1.878 1.707 3.279-.785-.708 2.03 1.492-1.015v1.723l1.632-1.876 5.541.23 12.481-4.275 12.559-6.628 15.914-17.699-9.588-5.059z" fill="url(#paint56_linear_1_1801)"/><path d="M276.355 77.457l41.308 4.152 13.513 7.673.062 1.83 2.632.892-3.632.677 1.616 1.707-1.94-.354.755 1.722-2.463-1.153-5.448 2.691-14.421 1.246-15.53-1.077-23.809-10.672 7.357-9.334z" fill="url(#paint57_linear_1_1801)"/><path d="M432.186 102.061l71.69 3.168 20.192 23.358 4.371 108.828 20.993 10.287 14.652-7.519v-26.911l10.296-9.888 5.941 36.799-2.77 20.975-15.052 13.455-43.171 8.319-.4 24.528-10.297 9.903h-19.807l3.57-17.807-3.57-17.423-6.341-4.352 5.155 11.087.401 9.488-17.438-1.184-1.185-8.304 3.17-15.039-13.867-29.679 1.185-41.95 21.394-39.182-34.86-3.968-29.304-31.262 3.955-25.727h11.097z" fill="url(#paint58_linear_1_1801)"/><path d="M334.886 0l-79.739 3.521-22.486 25.973-4.833 121.068-23.363 11.456-16.299-8.365v-29.94l-11.45-11.011-6.618 40.951 3.093 23.328 16.73 14.962 48.034 9.257.446 19.592 11.451 11.01h22.024l-3.955-12.118 3.955-19.375 7.065-4.844-5.741 12.332-.016 13.41 19.454 1.368.831-14.778-3.524-16.73 15.421-33.016-1.323-46.671-23.794-43.58 38.784-4.398 32.598-34.784L347.229 0h-12.343z" fill="url(#paint59_linear_1_1801)"/><path d="M476.403 193.219l-29.181 34.016 2.063 11.025-2.217 6.767 4.648-4.844.108 3.952 2.74-3.998.215 4.551 2.416-4.89 14.206-8.058 17.745-26.464 7.665-18.407-20.408 6.35z" fill="url(#paint60_linear_1_1801)"/><path d="M421.243 132.17l49.312 12.072 8.08 4.736-13.528-3.321-5.618-.831-2.709 5.198-2.078-6.659-17.683-5.397-4.156 5.197-2.078-5.828-6.402-1.86-3.14-3.307z" fill="url(#paint61_linear_1_1801)"/><path d="M440.373 113.241l2.601-2.384-1.293 7.581-1.308-1.553v-3.644z" fill="url(#paint62_linear_1_1801)"/><path d="M430.878 109.55l1.462 2.906-.724 3.737-1.462-.938.724-5.705z" fill="url(#paint63_linear_1_1801)"/><path d="M482.144 116.009l-.939 8.55 4.14 3.198 6.941-2.337.539-9.411h-10.681z" fill="url(#paint64_linear_1_1801)"/><path d="M478.004 111.78v2.322l4.14 1.907h10.681l4.048.507-.185-1.676-7.141-.4-9.281-.953-2.262-1.707z" fill="url(#paint65_linear_1_1801)"/><path d="M484.853 116.009l-.57 4.198 1.555 2.414 2.231-2.291-.661-2.599v-1.476l-2.555-.246z" fill="url(#paint66_linear_1_1801)"/><path d="M280.972 96.11l38.923 29.986.246 12.302 3.894 6.766-6.064-4.151.77 4.244-3.848-3.675.785 4.936-3.678-4.706-17.053-5.474-24.948-24.451-12.344-18.037 23.317 2.26z" fill="url(#paint67_linear_1_1801)"/><path d="M346.983 34.4l-49.004 9.534-21.655-.938L292.3 47.27l12.266-.57 2.755 5.813 2.555-7.212 19.577-5.197 4.355 5.859 2.509-6.29 7.08-1.799 3.586-3.475z" fill="url(#paint68_linear_1_1801)"/><path d="M326.79 12.886l-2.755-2.721 1.124 8.365 1.477-1.66.154-3.984z" fill="url(#paint69_linear_1_1801)"/><path d="M337.333 9.227l-1.708 3.121.646 4.137 1.632-.969-.57-6.29z" fill="url(#paint70_linear_1_1801)"/><path d="M280.926 14.224l.677 9.411-4.663 3.337-7.511-2.845-.215-10.333 11.712.43z" fill="url(#paint71_linear_1_1801)"/><path d="M285.635 9.75l-.107 2.552-4.602 1.922-11.712-.43-4.448.384.277-1.83 7.834-.138 10.204-.661 2.554-1.8z" fill="url(#paint72_linear_1_1801)"/><path d="M277.955 14.117l.447 4.628-1.801 2.584-2.339-2.6.831-2.829.061-1.63 2.801-.153z" fill="url(#paint73_linear_1_1801)"/></g><defs><linearGradient id="paint0_linear_1_1801" x1="100.516" y1="537.201" x2="50.879" y2="676.287" gradientUnits="userSpaceOnUse"><stop stop-color="#132F56"/><stop offset=".81" stop-color="#27AAE1" stop-opacity=".8"/></linearGradient><linearGradient id="paint1_linear_1_1801" x1="74.167" y1="455.515" x2="42.157" y2="545.23" gradientUnits="userSpaceOnUse"><stop stop-color="#132F56"/><stop offset=".81" stop-color="#27AAE1" stop-opacity=".8"/></linearGradient><linearGradient id="paint2_linear_1_1801" x1="82.955" y1="432.603" x2="54.833" y2="511.397" gradientUnits="userSpaceOnUse"><stop stop-color="#132F56"/><stop offset=".81" stop-color="#27AAE1" stop-opacity=".8"/></linearGradient><linearGradient id="paint3_linear_1_1801" x1="95.468" y1="449.01" x2="59.892" y2="548.692" gradientUnits="userSpaceOnUse"><stop stop-color="#132F56"/><stop offset=".81" stop-color="#27AAE1" stop-opacity=".8"/></linearGradient><linearGradient id="paint4_linear_1_1801" x1="105.334" y1="436.032" x2="69.773" y2="535.698" gradientUnits="userSpaceOnUse"><stop stop-color="#132F56"/><stop offset=".81" stop-color="#27AAE1" stop-opacity=".8"/></linearGradient><linearGradient id="paint5_linear_1_1801" x1="148.35" y1="697.697" x2="133.874" y2="738.302" gradientUnits="userSpaceOnUse"><stop stop-color="#132F56"/><stop offset=".81" stop-color="#27AAE1" stop-opacity=".8"/></linearGradient><linearGradient id="paint6_linear_1_1801" x1="113.26" y1="611.044" x2="102.441" y2="641.344" gradientUnits="userSpaceOnUse"><stop stop-color="#132F56"/><stop offset=".81" stop-color="#27AAE1" stop-opacity=".8"/></linearGradient><linearGradient id="paint7_linear_1_1801" x1="176.639" y1="512.212" x2="122.038" y2="665.249" gradientUnits="userSpaceOnUse"><stop stop-color="#132F56"/><stop offset=".81" stop-color="#27AAE1" stop-opacity=".8"/></linearGradient><linearGradient id="paint8_linear_1_1801" x1="128.82" y1="475.644" x2="82.441" y2="605.61" gradientUnits="userSpaceOnUse"><stop stop-color="#132F56"/><stop offset=".81" stop-color="#27AAE1" stop-opacity=".8"/></linearGradient><linearGradient id="paint9_linear_1_1801" x1="174.406" y1="455.531" x2="137.909" y2="557.827" gradientUnits="userSpaceOnUse"><stop stop-color="#132F56"/><stop offset=".81" stop-color="#27AAE1" stop-opacity=".8"/></linearGradient><linearGradient id="paint10_linear_1_1801" x1="145.888" y1="491.022" x2="96.282" y2="630.016" gradientUnits="userSpaceOnUse"><stop stop-color="#132F56"/><stop offset=".81" stop-color="#27AAE1" stop-opacity=".8"/></linearGradient><linearGradient id="paint11_linear_1_1801" x1="190.52" y1="642.691" x2="163.243" y2="719.133" gradientUnits="userSpaceOnUse"><stop stop-color="#132F56"/><stop offset=".81" stop-color="#27AAE1" stop-opacity=".8"/></linearGradient><linearGradient id="paint12_linear_1_1801" x1="145.888" y1="491.022" x2="96.282" y2="630.016" gradientUnits="userSpaceOnUse"><stop stop-color="#132F56"/><stop offset=".81" stop-color="#27AAE1" stop-opacity=".8"/></linearGradient><linearGradient id="paint13_linear_1_1801" x1="206.434" y1="520.762" x2="151.296" y2="675.275" gradientUnits="userSpaceOnUse"><stop stop-color="#132F56"/><stop offset=".81" stop-color="#27AAE1" stop-opacity=".8"/></linearGradient><linearGradient id="paint14_linear_1_1801" x1="244.203" y1="587.024" x2="188.635" y2="742.768" gradientUnits="userSpaceOnUse"><stop stop-color="#132F56"/><stop offset=".81" stop-color="#27AAE1" stop-opacity=".8"/></linearGradient><linearGradient id="paint15_linear_1_1801" x1="255.269" y1="520.255" x2="229.313" y2="592.959" gradientUnits="userSpaceOnUse"><stop stop-color="#132F56"/><stop offset=".81" stop-color="#27AAE1" stop-opacity=".8"/></linearGradient><linearGradient id="paint16_linear_1_1801" x1="284.881" y1="583.042" x2="238.763" y2="712.3" gradientUnits="userSpaceOnUse"><stop stop-color="#132F56"/><stop offset=".81" stop-color="#27AAE1" stop-opacity=".8"/></linearGradient><linearGradient id="paint17_linear_1_1801" x1="248.113" y1="756.116" x2="225.215" y2="820.284" gradientUnits="userSpaceOnUse"><stop stop-color="#132F56"/><stop offset=".81" stop-color="#27AAE1" stop-opacity=".8"/></linearGradient><linearGradient id="paint18_linear_1_1801" x1="273.461" y1="713.736" x2="244.309" y2="795.422" gradientUnits="userSpaceOnUse"><stop stop-color="#132F56"/><stop offset=".81" stop-color="#27AAE1" stop-opacity=".8"/></linearGradient><linearGradient id="paint19_linear_1_1801" x1="355.909" y1="551.025" x2="318.043" y2="657.151" gradientUnits="userSpaceOnUse"><stop stop-color="#132F56"/><stop offset=".81" stop-color="#27AAE1" stop-opacity=".8"/></linearGradient><linearGradient id="paint20_linear_1_1801" x1="369.607" y1="552.978" x2="330.989" y2="661.181" gradientUnits="userSpaceOnUse"><stop stop-color="#132F56"/><stop offset=".81" stop-color="#27AAE1" stop-opacity=".8"/></linearGradient><linearGradient id="paint21_linear_1_1801" x1="292.391" y1="585.717" x2="246.273" y2="714.975" gradientUnits="userSpaceOnUse"><stop stop-color="#132F56"/><stop offset=".81" stop-color="#27AAE1" stop-opacity=".8"/></linearGradient><linearGradient id="paint22_linear_1_1801" x1="264.842" y1="469.186" x2="337.157" y2="719.72" gradientUnits="userSpaceOnUse"><stop offset=".18" stop-color="#132F56"/><stop offset="1" stop-color="#27AAE1" stop-opacity=".8"/></linearGradient><linearGradient id="paint23_linear_1_1801" x1="339.811" y1="785.38" x2="308.645" y2="872.741" gradientUnits="userSpaceOnUse"><stop stop-color="#132F56"/><stop offset=".81" stop-color="#27AAE1" stop-opacity=".8"/></linearGradient><linearGradient id="paint24_linear_1_1801" x1="393.97" y1="648.043" x2="323.264" y2="846.16" gradientUnits="userSpaceOnUse"><stop stop-color="#132F56"/><stop offset=".81" stop-color="#27AAE1" stop-opacity=".8"/></linearGradient><linearGradient id="paint25_linear_1_1801" x1="417.41" y1="590.038" x2="361.964" y2="745.397" gradientUnits="userSpaceOnUse"><stop stop-color="#132F56"/><stop offset=".81" stop-color="#27AAE1" stop-opacity=".8"/></linearGradient><linearGradient id="paint26_linear_1_1801" x1="426.306" y1="559.744" x2="372.427" y2="710.72" gradientUnits="userSpaceOnUse"><stop stop-color="#132F56"/><stop offset=".81" stop-color="#27AAE1" stop-opacity=".8"/></linearGradient><linearGradient id="paint27_linear_1_1801" x1="436.51" y1="557.253" x2="381.095" y2="712.566" gradientUnits="userSpaceOnUse"><stop stop-color="#132F56"/><stop offset=".81" stop-color="#27AAE1" stop-opacity=".8"/></linearGradient><linearGradient id="paint28_linear_1_1801" x1="505.83" y1="546.381" x2="453.55" y2="692.912" gradientUnits="userSpaceOnUse"><stop stop-color="#132F56"/><stop offset=".81" stop-color="#27AAE1" stop-opacity=".8"/></linearGradient><linearGradient id="paint29_linear_1_1801" x1="535.518" y1="562.605" x2="480.872" y2="715.749" gradientUnits="userSpaceOnUse"><stop stop-color="#132F56"/><stop offset=".81" stop-color="#27AAE1" stop-opacity=".8"/></linearGradient><linearGradient id="paint30_linear_1_1801" x1="478.249" y1="722.439" x2="455.382" y2="786.546" gradientUnits="userSpaceOnUse"><stop stop-color="#132F56"/><stop offset=".81" stop-color="#27AAE1" stop-opacity=".8"/></linearGradient><linearGradient id="paint31_linear_1_1801" x1="519.635" y1="700.28" x2="487.44" y2="790.503" gradientUnits="userSpaceOnUse"><stop stop-color="#132F56"/><stop offset=".81" stop-color="#27AAE1" stop-opacity=".8"/></linearGradient><linearGradient id="paint32_linear_1_1801" x1="602.945" y1="565.511" x2="529.258" y2="772.026" gradientUnits="userSpaceOnUse"><stop stop-color="#132F56"/><stop offset=".81" stop-color="#27AAE1" stop-opacity=".8"/></linearGradient><linearGradient id="paint33_linear_1_1801" x1="557.326" y1="676.706" x2="531.094" y2="750.225" gradientUnits="userSpaceOnUse"><stop stop-color="#132F56"/><stop offset=".81" stop-color="#27AAE1" stop-opacity=".8"/></linearGradient><linearGradient id="paint34_linear_1_1801" x1="595.219" y1="513.642" x2="542.693" y2="660.85" gradientUnits="userSpaceOnUse"><stop stop-color="#132F56"/><stop offset=".81" stop-color="#27AAE1" stop-opacity=".8"/></linearGradient><linearGradient id="paint35_linear_1_1801" x1="649.348" y1="505.185" x2="602.293" y2="637.058" gradientUnits="userSpaceOnUse"><stop stop-color="#132F56"/><stop offset=".81" stop-color="#27AAE1" stop-opacity=".8"/></linearGradient><linearGradient id="paint36_linear_1_1801" x1="61.101" y1="481.334" x2="25.94" y2="579.847" gradientUnits="userSpaceOnUse"><stop stop-color="#132F56"/><stop offset=".81" stop-color="#27AAE1" stop-opacity=".8"/></linearGradient><linearGradient id="paint37_linear_1_1801" x1="56.145" y1="397.818" x2="13.802" y2="484.807" gradientUnits="userSpaceOnUse"><stop stop-color="#132F56"/><stop offset=".15" stop-color="#184E79"/><stop offset=".36" stop-color="#1E75A6"/><stop offset=".55" stop-color="#2392C6"/><stop offset=".7" stop-color="#25A3D9"/><stop offset=".81" stop-color="#27AAE1"/></linearGradient><linearGradient id="paint38_linear_1_1801" x1="103.225" y1="359.928" x2="56.128" y2="550.736" gradientUnits="userSpaceOnUse"><stop stop-color="#132F56"/><stop offset=".05" stop-color="#16436C"/><stop offset=".15" stop-color="#1B6290"/><stop offset=".26" stop-color="#1F7CAD"/><stop offset=".37" stop-color="#2290C4"/><stop offset=".49" stop-color="#259ED4"/><stop offset=".63" stop-color="#26A7DE"/><stop offset=".81" stop-color="#27AAE1"/></linearGradient><linearGradient id="paint39_linear_1_1801" x1="180.425" y1="375.813" x2="124.836" y2="501.114" gradientUnits="userSpaceOnUse"><stop stop-color="#132F56"/><stop offset=".15" stop-color="#184E79"/><stop offset=".36" stop-color="#1E75A6"/><stop offset=".55" stop-color="#2392C6"/><stop offset=".7" stop-color="#25A3D9"/><stop offset=".81" stop-color="#27AAE1"/></linearGradient><linearGradient id="paint40_linear_1_1801" x1="297.671" y1="328.05" x2="115.675" y2="547.825" gradientUnits="userSpaceOnUse"><stop stop-color="#132F56"/><stop offset=".15" stop-color="#184E79"/><stop offset=".36" stop-color="#1E75A6"/><stop offset=".55" stop-color="#2392C6"/><stop offset=".7" stop-color="#25A3D9"/><stop offset=".81" stop-color="#27AAE1"/></linearGradient><linearGradient id="paint41_linear_1_1801" x1="333.993" y1="350.24" x2="146.57" y2="576.54" gradientUnits="userSpaceOnUse"><stop stop-color="#132F56"/><stop offset=".15" stop-color="#184E79"/><stop offset=".36" stop-color="#1E75A6"/><stop offset=".55" stop-color="#2392C6"/><stop offset=".7" stop-color="#25A3D9"/><stop offset=".81" stop-color="#27AAE1"/></linearGradient><linearGradient id="paint42_linear_1_1801" x1="383.044" y1="390.099" x2="195.912" y2="616.06" gradientUnits="userSpaceOnUse"><stop stop-color="#132F56"/><stop offset=".15" stop-color="#184E79"/><stop offset=".36" stop-color="#1E75A6"/><stop offset=".55" stop-color="#2392C6"/><stop offset=".7" stop-color="#25A3D9"/><stop offset=".81" stop-color="#27AAE1"/></linearGradient><linearGradient id="paint43_linear_1_1801" x1="430.693" y1="428.958" x2="244.023" y2="654.35" gradientUnits="userSpaceOnUse"><stop stop-color="#132F56"/><stop offset=".15" stop-color="#184E79"/><stop offset=".36" stop-color="#1E75A6"/><stop offset=".55" stop-color="#2392C6"/><stop offset=".7" stop-color="#25A3D9"/><stop offset=".81" stop-color="#27AAE1"/></linearGradient><linearGradient id="paint44_linear_1_1801" x1="411.009" y1="428.235" x2="439.603" y2="591.6" gradientUnits="userSpaceOnUse"><stop stop-color="#132F56"/><stop offset=".15" stop-color="#184E79"/><stop offset=".36" stop-color="#1E75A6"/><stop offset=".55" stop-color="#2392C6"/><stop offset=".7" stop-color="#25A3D9"/><stop offset=".81" stop-color="#27AAE1"/></linearGradient><linearGradient id="paint45_linear_1_1801" x1="539.305" y1="421.623" x2="484.692" y2="606.856" gradientUnits="userSpaceOnUse"><stop stop-color="#132F56"/><stop offset=".15" stop-color="#184E79"/><stop offset=".36" stop-color="#1E75A6"/><stop offset=".55" stop-color="#2392C6"/><stop offset=".7" stop-color="#25A3D9"/><stop offset=".81" stop-color="#27AAE1"/></linearGradient><linearGradient id="paint46_linear_1_1801" x1="657.767" y1="401.509" x2="594.687" y2="615.456" gradientUnits="userSpaceOnUse"><stop stop-color="#132F56"/><stop offset=".15" stop-color="#184E79"/><stop offset=".36" stop-color="#1E75A6"/><stop offset=".55" stop-color="#2392C6"/><stop offset=".7" stop-color="#25A3D9"/><stop offset=".81" stop-color="#27AAE1"/></linearGradient><linearGradient id="paint47_linear_1_1801" x1="26.226" y1="368.985" x2="2.822" y2="448.36" gradientUnits="userSpaceOnUse"><stop stop-color="#132F56"/><stop offset=".15" stop-color="#184E79"/><stop offset=".36" stop-color="#1E75A6"/><stop offset=".55" stop-color="#2392C6"/><stop offset=".7" stop-color="#25A3D9"/><stop offset=".81" stop-color="#27AAE1"/></linearGradient><linearGradient id="paint48_linear_1_1801" x1="344.89" y1="592.729" x2="354.923" y2="245.78" gradientUnits="userSpaceOnUse"><stop stop-color="#132F56"/><stop offset="1" stop-color="#27AAE1"/></linearGradient><linearGradient id="paint49_linear_1_1801" x1="466.676" y1="231.925" x2="248.407" y2="514.775" gradientUnits="userSpaceOnUse"><stop stop-color="#132F56"/><stop offset=".24" stop-color="#1B6290"/><stop offset=".45" stop-color="#2189BC"/><stop offset=".62" stop-color="#25A1D7"/><stop offset=".71" stop-color="#27AAE1"/></linearGradient><linearGradient id="paint50_linear_1_1801" x1="137.69" y1="238.158" x2="404.527" y2="241.56" gradientUnits="userSpaceOnUse"><stop stop-color="#132F56"/><stop offset="1" stop-color="#27AAE1"/></linearGradient><linearGradient id="paint51_linear_1_1801" x1="151.863" y1="319.93" x2="73.851" y2="325.774" gradientUnits="userSpaceOnUse"><stop stop-color="#132F56"/><stop offset="1" stop-color="#27AAE1"/></linearGradient><linearGradient id="paint52_linear_1_1801" x1="79.882" y1="325.313" x2="145.83" y2="320.373" gradientUnits="userSpaceOnUse"><stop stop-color="#132F56"/><stop offset="1" stop-color="#27AAE1"/></linearGradient><linearGradient id="paint53_linear_1_1801" x1="32.214" y1="295.716" x2="464.61" y2="301.23" gradientUnits="userSpaceOnUse"><stop stop-color="#132F56"/><stop offset="1" stop-color="#27AAE1"/></linearGradient><linearGradient id="paint54_linear_1_1801" x1="400.376" y1="320.115" x2="322.364" y2="325.958" gradientUnits="userSpaceOnUse"><stop stop-color="#132F56"/><stop offset="1" stop-color="#27AAE1"/></linearGradient><linearGradient id="paint55_linear_1_1801" x1="328.394" y1="325.497" x2="394.343" y2="320.557" gradientUnits="userSpaceOnUse"><stop stop-color="#132F56"/><stop offset="1" stop-color="#27AAE1"/></linearGradient><linearGradient id="paint56_linear_1_1801" x1="485.238" y1="235.892" x2="415.405" y2="148.905" gradientUnits="userSpaceOnUse"><stop stop-color="#132F56"/><stop offset=".24" stop-color="#1B6290"/><stop offset=".45" stop-color="#2189BC"/><stop offset=".62" stop-color="#25A1D7"/><stop offset=".71" stop-color="#27AAE1"/></linearGradient><linearGradient id="paint57_linear_1_1801" x1="323.987" y1="52.723" x2="279.311" y2="125.554" gradientUnits="userSpaceOnUse"><stop stop-color="#132F56"/><stop offset=".24" stop-color="#1B6290"/><stop offset=".45" stop-color="#2189BC"/><stop offset=".62" stop-color="#25A1D7"/><stop offset=".71" stop-color="#27AAE1"/></linearGradient><linearGradient id="paint58_linear_1_1801" x1="417.134" y1="209.72" x2="580.321" y2="209.72" gradientUnits="userSpaceOnUse"><stop stop-color="#132F56"/><stop offset=".24" stop-color="#1B6290"/><stop offset=".45" stop-color="#2189BC"/><stop offset=".62" stop-color="#25A1D7"/><stop offset=".71" stop-color="#27AAE1"/></linearGradient><linearGradient id="paint59_linear_1_1801" x1="159.524" y1="234.77" x2="501.319" y2="-129.616" gradientUnits="userSpaceOnUse"><stop stop-color="#132F56"/><stop offset=".24" stop-color="#1B6290"/><stop offset=".45" stop-color="#2189BC"/><stop offset=".62" stop-color="#25A1D7"/><stop offset=".71" stop-color="#27AAE1"/></linearGradient><linearGradient id="paint60_linear_1_1801" x1="514.91" y1="248.148" x2="443.557" y2="194.591" gradientUnits="userSpaceOnUse"><stop stop-color="#132F56"/><stop offset=".24" stop-color="#1B6290"/><stop offset=".45" stop-color="#2189BC"/><stop offset=".62" stop-color="#25A1D7"/><stop offset=".71" stop-color="#27AAE1"/></linearGradient><linearGradient id="paint61_linear_1_1801" x1="450.993" y1="127.388" x2="449.027" y2="151.916" gradientUnits="userSpaceOnUse"><stop stop-color="#132F56"/><stop offset=".24" stop-color="#1B6290"/><stop offset=".45" stop-color="#2189BC"/><stop offset=".62" stop-color="#25A1D7"/><stop offset=".71" stop-color="#27AAE1"/></linearGradient><linearGradient id="paint62_linear_1_1801" x1="471.216" y1="114.486" x2="383.212" y2="114.979" gradientUnits="userSpaceOnUse"><stop stop-color="#132F56"/><stop offset=".24" stop-color="#1B6290"/><stop offset=".45" stop-color="#2189BC"/><stop offset=".62" stop-color="#25A1D7"/><stop offset=".71" stop-color="#27AAE1"/></linearGradient><linearGradient id="paint63_linear_1_1801" x1="471.217" y1="112.641" x2="383.212" y2="113.149" gradientUnits="userSpaceOnUse"><stop stop-color="#132F56"/><stop offset=".24" stop-color="#1B6290"/><stop offset=".45" stop-color="#2189BC"/><stop offset=".62" stop-color="#25A1D7"/><stop offset=".71" stop-color="#27AAE1"/></linearGradient><linearGradient id="paint64_linear_1_1801" x1="481.205" y1="121.883" x2="492.825" y2="121.883" gradientUnits="userSpaceOnUse"><stop stop-color="#132F56"/><stop offset=".24" stop-color="#1B6290"/><stop offset=".45" stop-color="#2189BC"/><stop offset=".62" stop-color="#25A1D7"/><stop offset=".71" stop-color="#27AAE1"/></linearGradient><linearGradient id="paint65_linear_1_1801" x1="498.704" y1="110.104" x2="459.866" y2="124.041" gradientUnits="userSpaceOnUse"><stop stop-color="#132F56"/><stop offset=".24" stop-color="#1B6290"/><stop offset=".45" stop-color="#2189BC"/><stop offset=".62" stop-color="#25A1D7"/><stop offset=".71" stop-color="#27AAE1"/></linearGradient><linearGradient id="paint66_linear_1_1801" x1="491.64" y1="115.178" x2="481.318" y2="121.968" gradientUnits="userSpaceOnUse"><stop stop-color="#132F56"/><stop offset=".24" stop-color="#1B6290"/><stop offset=".45" stop-color="#2189BC"/><stop offset=".62" stop-color="#25A1D7"/><stop offset=".71" stop-color="#27AAE1"/></linearGradient><linearGradient id="paint67_linear_1_1801" x1="257.655" y1="37.737" x2="320.528" y2="183.909" gradientUnits="userSpaceOnUse"><stop stop-color="#132F56"/><stop offset=".24" stop-color="#1B6290"/><stop offset=".45" stop-color="#2189BC"/><stop offset=".62" stop-color="#25A1D7"/><stop offset=".71" stop-color="#27AAE1"/></linearGradient><linearGradient id="paint68_linear_1_1801" x1="289.422" y1="48.255" x2="534.578" y2="-2.851" gradientUnits="userSpaceOnUse"><stop stop-color="#132F56"/><stop offset=".24" stop-color="#1B6290"/><stop offset=".45" stop-color="#2189BC"/><stop offset=".62" stop-color="#25A1D7"/><stop offset=".71" stop-color="#27AAE1"/></linearGradient><linearGradient id="paint69_linear_1_1801" x1="315.463" y1="17.838" x2="407.648" y2="-17.506" gradientUnits="userSpaceOnUse"><stop stop-color="#132F56"/><stop offset=".24" stop-color="#1B6290"/><stop offset=".45" stop-color="#2189BC"/><stop offset=".62" stop-color="#25A1D7"/><stop offset=".71" stop-color="#27AAE1"/></linearGradient><linearGradient id="paint70_linear_1_1801" x1="316.525" y1="20.606" x2="408.711" y2="-14.738" gradientUnits="userSpaceOnUse"><stop stop-color="#132F56"/><stop offset=".24" stop-color="#1B6290"/><stop offset=".45" stop-color="#2189BC"/><stop offset=".62" stop-color="#25A1D7"/><stop offset=".71" stop-color="#27AAE1"/></linearGradient><linearGradient id="paint71_linear_1_1801" x1="281.72" y1="20.672" x2="268.985" y2="20.2" gradientUnits="userSpaceOnUse"><stop stop-color="#132F56"/><stop offset=".24" stop-color="#1B6290"/><stop offset=".45" stop-color="#2189BC"/><stop offset=".62" stop-color="#25A1D7"/><stop offset=".71" stop-color="#27AAE1"/></linearGradient><linearGradient id="paint72_linear_1_1801" x1="288.729" y1="8.258" x2="228.315" y2="27.602" gradientUnits="userSpaceOnUse"><stop stop-color="#132F56"/><stop offset=".24" stop-color="#1B6290"/><stop offset=".45" stop-color="#2189BC"/><stop offset=".62" stop-color="#25A1D7"/><stop offset=".71" stop-color="#27AAE1"/></linearGradient><linearGradient id="paint73_linear_1_1801" x1="270.564" y1="12.904" x2="281.588" y2="20.753" gradientUnits="userSpaceOnUse"><stop stop-color="#132F56"/><stop offset=".24" stop-color="#1B6290"/><stop offset=".45" stop-color="#2189BC"/><stop offset=".62" stop-color="#25A1D7"/><stop offset=".71" stop-color="#27AAE1"/></linearGradient><clipPath id="clip0_1_1801"><path fill="#fff" d="M0 0h703v910H0z"/></clipPath></defs></svg>