<svg width="328" height="578" fill="none" xmlns="http://www.w3.org/2000/svg"><path d="M25.368 222.795l15.163 103.468 55.097 145.545-50.801-153.507-19.459-95.506z" fill="url(#paint0_linear_605_2)"/><path d="M42.55 214.833l-17.182 7.962L44.827 318.3l15.663 47.35-17.94-150.817z" fill="url(#paint1_linear_605_2)"/><path d="M53.918 209.15l3.188 127.978L42.55 214.833l11.368-5.683z" fill="url(#paint2_linear_605_2)"/><path d="M62.008 205.731l3.036 150.665-4.554 9.254-3.385-28.522-3.187-127.978 8.09-3.419z" fill="url(#paint3_linear_605_2)"/><path d="M76.413 200.047L65.044 356.396 62.01 205.731l14.404-5.684z" fill="url(#paint4_linear_605_2)"/><path d="M72.117 400.752l32.102 32.96 19.458 38.096-24.512 3.981-3.537-3.981-23.51-71.056z" fill="url(#paint5_linear_605_2)"/><path d="M65.044 356.396l17.47 55.039-10.397-10.683L60.49 365.65l4.554-9.254z" fill="url(#paint6_linear_605_2)"/><path d="M76.412 200.047l43.728 215.476 22.495 51.741-22.495-92.101-19.959-169.432-23.769-5.684z" fill="url(#paint7_linear_605_2)"/><path d="M82.514 411.435l-6.102-211.388-11.368 156.349 17.47 55.039z" fill="url(#paint8_linear_605_2)"/><path d="M116.346 209.15l3.795 166.013-19.959-169.432 16.164 3.419z" fill="url(#paint9_linear_605_2)"/><path d="M76.412 200.047l6.102 211.388 21.705 22.277-27.807-233.665z" fill="url(#paint10_linear_605_2)"/><path d="M142.635 467.264l-18.958 4.544-19.458-38.096 1.032-91.554 14.89 73.365 22.494 51.741z" fill="url(#paint11_linear_605_2)"/><path d="M76.412 200.047l27.807 233.665 1.032-91.554-28.839-142.111z" fill="url(#paint12_linear_605_2)"/><path d="M116.347 209.15l38.674 47.745-15.163 118.268 2.777 92.101-22.494-92.101-3.794-166.013z" fill="url(#paint13_linear_605_2)"/><path d="M153.503 507.062l-10.868-39.798-2.778-92.101 15.164-118.268 16.422 23.887-21.978 146.685 4.038 79.595z" fill="url(#paint14_linear_605_2)"/><path d="M187.365 278.214l-31.722 105.702 15.8-103.134 15.922-2.568z" fill="url(#paint15_linear_605_2)"/><path d="M198.491 278.214h-11.126l-31.722 105.702 19.853 94.152-12.386-96.082 35.381-103.772z" fill="url(#paint16_linear_605_2)"/><path d="M153.502 507.062l12.386 29.555 13.523-20.073-29.946-89.077 4.037 79.595z" fill="url(#paint17_linear_605_2)"/><path d="M155.642 383.916l-6.177 43.551 32.087 97.222 48.524-86.418-54.581 39.797-19.853-94.152z" fill="url(#paint18_linear_605_2)"/><path d="M225.28 278.214l4.797 160.057 15.922-165.132-20.719 5.075z" fill="url(#paint19_linear_605_2)"/><path d="M262.436 275.661l-32.36 162.61 15.922-165.132 16.438 2.522z" fill="url(#paint20_linear_605_2)"/><path d="M198.491 278.214l-27.048 103.772 4.053 96.082-12.386-96.082 35.381-103.772z" fill="url(#paint21_linear_605_2)"/><path d="M225.28 278.214l4.797 160.057-54.581 39.797-4.053-96.082 27.048-103.772h26.789z" fill="url(#paint22_linear_605_2)"/><path d="M181.552 524.689l43.728 52.486 4.796-138.904-48.524 86.418z" fill="url(#paint23_linear_605_2)"/><path d="M262.437 275.661l4.462-2.522-2.231 234.591-39.388 69.445 4.797-138.904 32.36-162.61z" fill="url(#paint24_linear_605_2)"/><path d="M276.325 261.833l-11.657 245.898 2.231-234.592 9.426-11.306z" fill="url(#paint25_linear_605_2)"/><path d="M291.488 248.187L265.882 482.05l10.442-220.217 15.164-13.646z" fill="url(#paint26_linear_605_2)"/><path d="M311.037 248.187l-22.919 176.97-22.236 56.893 25.606-233.863h19.549z" fill="url(#paint27_linear_605_2)"/><path d="M264.668 507.73l14.025-18.493 38.066 25.028-40.024-59.963-10.853 27.748-1.214 25.68z" fill="url(#paint28_linear_605_2)"/><path d="M372.706 252.731l-1.351 125.41-94.621 76.161 11.384-29.145 22.919-176.97 61.669 4.544z" fill="url(#paint29_linear_605_2)"/><path d="M386.518 256.895l-7.741 121.246-93.391 89.123-8.652-12.962 94.621-76.161 1.351-125.41 13.812 4.164z" fill="url(#paint30_linear_605_2)"/><path d="M316.759 514.265l20.02-96.053-51.393 49.052 31.373 47.001z" fill="url(#paint31_linear_605_2)"/><path d="M368.805 387.654l-30.478 94.396-21.568 32.215 20.02-96.053 32.026-30.558z" fill="url(#paint32_linear_605_2)"/><path d="M431.339 222.795l-17.531 137.203-41.102 101.203-55.947 53.064 21.568-32.215 30.478-36.774 30.523-79.626 21.568-138.691 10.443-4.164z" fill="url(#paint33_linear_605_2)"/><path d="M25.368 222.795l3.537 119.363 15.664 46.073 10.867-22.581-14.905-39.387-15.163-103.468z" fill="url(#paint34_linear_605_2)"/><path d="M3.163 264.447l4.265 29.115 19.96 10.713.424-36.759-24.649-3.069z" fill="url(#paint35_linear_605_2)"/><path d="M75.456 258.581l-48.07 9.68v36.014l48.07-9.437v-36.257z" fill="url(#paint36_linear_605_2)"/><path d="M113.356 262.487l-37.9-3.906v36.257l38.917 4.149-1.017-36.5z" fill="url(#paint37_linear_605_2)"/><path d="M124.877 275.297l-11.521-12.81v36.393l11.521 11.412v-34.995z" fill="url(#paint38_linear_605_2)"/><path d="M159.104 293.562l-34.227-18.265v34.995l34.227 18.798v-35.528z" fill="url(#paint39_linear_605_2)"/><path d="M213.441 297.224l-54.337-3.662v35.528l54.337 5.136v-37.002z" fill="url(#paint40_linear_605_2)"/><path d="M263.362 294.443l-49.921 2.781v37.002l50.255-3.176-.334-36.607z" fill="url(#paint41_linear_605_2)"/><path d="M292.793 281.816l-29.431 13.524.334 35.71 29.097-12.917v-36.317z" fill="url(#paint42_linear_605_2)"/><path d="M388.704 286.541l-95.911-4.725v36.317l95.744 4.559.167-36.151z" fill="url(#paint43_linear_605_2)"/><path d="M3.163 225.683v25.696l6.026-11.504 8.135 3.04 8.333-7.583-22.494-9.649z" fill="url(#paint44_linear_605_2)"/><path d="M44.994 202.372l-32.345 4.893-12.643 3.678v14.907l2.975 3.008 15.223 6.443L.006 247.139v13.6l2.975 5.471 24.33 3.191 49.527-8.312 36.519 4.102 11.52 11.078 35.365 18.585 54.596 3.92 48.525-3.434 29.81-13.205 95.531 4.406 55.689-15.833 12.931-11.139.137-7.036-14.662-7.597 2.52-8.313 16.68-11.503v-7.339l-2.519-8.069-20.734-13.707-30.326-2.932-7.573-8.799 3.87-4.589-.334-8.874-5.57-3.176-50.544-5.881-101.086 10.288-37.399-10.288h-25.287l-49.026 2.447-36.397 22.018-26.79 1.474-15.163 2.933-12.127 11.746z" fill="url(#paint45_linear_605_2)"/><path d="M42.975 195.762l-32.344 4.893L.006 210.943l3.036 9.786 13.645 5.865L.006 247.139l3.036 12.232 22.236 3.435 49.541-8.328 36.397 2.447 15.163 15.667 31.844 15.651 54.581 3.921 48.525-3.434 29.825-13.205 95.531 4.406 55.097-15.667 15.679-11.731-16.681-14.192 2.52-8.328 18.699-12.232-4.538-14.679-20.733-13.692-30.326-2.948-7.589-8.798 5.57-6.853-7.589-9.786-50.543-5.866-101.087 10.273-37.414-10.273h-25.272l-49.026 2.447-36.397 22.018-26.79 1.459-15.162 2.933-12.128 11.746z" fill="url(#paint46_linear_605_2)"/><path d="M109.137 78.618L76.671 97.096l-8.303 11.26.607 1.535-1.836 1.687 3.233-.76-.699 2.006 1.457-1.003v1.687l1.625-1.839 5.464.228 12.31-4.24 12.385-6.549 15.694-17.49-9.471-5z" fill="url(#paint47_linear_605_2)"/><path d="M69.127.983l70.716 3.13 19.913 23.068 4.296 107.54 20.703 10.181 14.449-7.431v-26.592l10.17-9.786 5.859 36.378-2.748 20.727-14.829 13.297-42.59 8.205-.379 24.253-10.17 9.771h-19.519l3.506-17.597-3.506-17.202-6.253-4.315 5.069 10.956.395 9.391-17.182-1.17-1.168-8.221 3.111-14.862-13.66-29.327 1.168-41.454 21.098-38.719L83.198 57.3 54.283 26.406 58.2.983h10.928z" fill="url(#paint48_linear_605_2)"/><path d="M112.749 91.049L83.972 124.66l2.034 10.911-2.201 6.671 4.599-4.772.09 3.891 2.703-3.951.227 4.498 2.383-4.833 14.01-7.947 17.485-26.167 7.559-18.19-20.112 6.276z" fill="url(#paint49_linear_605_2)"/><path d="M58.336 30.721l48.646 11.93 7.953 4.68-13.326-3.283-5.54-.82-2.672 5.136-2.049-6.565-17.44-5.349-4.113 5.136-2.049-5.759-6.299-1.838-3.111-3.268z" fill="url(#paint50_linear_605_2)"/><path d="M77.218 12.03l2.565-2.37-1.29 7.492-1.275-1.535V12.03z" fill="url(#paint51_linear_605_2)"/><path d="M67.852 8.369l1.442 2.872-.729 3.707-1.426-.927.713-5.652z" fill="url(#paint52_linear_605_2)"/><path d="M118.396 14.766l-.911 8.449 4.068 3.145 6.845-2.31.547-9.284h-10.549z" fill="url(#paint53_linear_605_2)"/><path d="M114.328 10.572v2.295l4.068 1.899h10.549l3.976.486-.182-1.656-7.027-.395-9.153-.927-2.231-1.702z" fill="url(#paint54_linear_605_2)"/><path d="M121.067 14.766l-.546 4.148 1.533 2.386 2.2-2.264-.667-2.568v-1.474l-2.52-.228z" fill="url(#paint55_linear_605_2)"/><defs><linearGradient id="paint0_linear_605_2" x1="66.061" y1="331.688" x2="33.331" y2="423.249" gradientUnits="userSpaceOnUse"><stop stop-color="#132F56"/><stop offset=".81" stop-color="#27AAE1" stop-opacity=".8"/></linearGradient><linearGradient id="paint1_linear_605_2" x1="48.758" y1="277.895" x2="27.647" y2="336.945" gradientUnits="userSpaceOnUse"><stop stop-color="#132F56"/><stop offset=".81" stop-color="#27AAE1" stop-opacity=".8"/></linearGradient><linearGradient id="paint2_linear_605_2" x1="54.525" y1="262.806" x2="35.985" y2="314.686" gradientUnits="userSpaceOnUse"><stop stop-color="#132F56"/><stop offset=".81" stop-color="#27AAE1" stop-opacity=".8"/></linearGradient><linearGradient id="paint3_linear_605_2" x1="62.752" y1="273.61" x2="39.284" y2="339.223" gradientUnits="userSpaceOnUse"><stop stop-color="#132F56"/><stop offset=".81" stop-color="#27AAE1" stop-opacity=".8"/></linearGradient><linearGradient id="paint4_linear_605_2" x1="69.234" y1="265.07" x2="45.781" y2="330.668" gradientUnits="userSpaceOnUse"><stop stop-color="#132F56"/><stop offset=".81" stop-color="#27AAE1" stop-opacity=".8"/></linearGradient><linearGradient id="paint5_linear_605_2" x1="97.51" y1="437.374" x2="87.944" y2="464.096" gradientUnits="userSpaceOnUse"><stop stop-color="#132F56"/><stop offset=".81" stop-color="#27AAE1" stop-opacity=".8"/></linearGradient><linearGradient id="paint6_linear_605_2" x1="74.439" y1="380.314" x2="67.306" y2="400.261" gradientUnits="userSpaceOnUse"><stop stop-color="#132F56"/><stop offset=".81" stop-color="#27AAE1" stop-opacity=".8"/></linearGradient><linearGradient id="paint7_linear_605_2" x1="116.103" y1="315.231" x2="80.072" y2="415.967" gradientUnits="userSpaceOnUse"><stop stop-color="#132F56"/><stop offset=".81" stop-color="#27AAE1" stop-opacity=".8"/></linearGradient><linearGradient id="paint8_linear_605_2" x1="84.669" y1="291.161" x2="54.084" y2="376.69" gradientUnits="userSpaceOnUse"><stop stop-color="#132F56"/><stop offset=".81" stop-color="#27AAE1" stop-opacity=".8"/></linearGradient><linearGradient id="paint9_linear_605_2" x1="114.631" y1="277.91" x2="90.555" y2="345.24" gradientUnits="userSpaceOnUse"><stop stop-color="#132F56"/><stop offset=".81" stop-color="#27AAE1" stop-opacity=".8"/></linearGradient><linearGradient id="paint10_linear_605_2" x1="95.886" y1="301.281" x2="63.17" y2="392.766" gradientUnits="userSpaceOnUse"><stop stop-color="#132F56"/><stop offset=".81" stop-color="#27AAE1" stop-opacity=".8"/></linearGradient><linearGradient id="paint11_linear_605_2" x1="125.21" y1="401.148" x2="107.218" y2="451.478" gradientUnits="userSpaceOnUse"><stop stop-color="#132F56"/><stop offset=".81" stop-color="#27AAE1" stop-opacity=".8"/></linearGradient><linearGradient id="paint12_linear_605_2" x1="95.886" y1="301.281" x2="63.17" y2="392.766" gradientUnits="userSpaceOnUse"><stop stop-color="#132F56"/><stop offset=".81" stop-color="#27AAE1" stop-opacity=".8"/></linearGradient><linearGradient id="paint13_linear_605_2" x1="135.684" y1="320.869" x2="99.318" y2="422.562" gradientUnits="userSpaceOnUse"><stop stop-color="#132F56"/><stop offset=".81" stop-color="#27AAE1" stop-opacity=".8"/></linearGradient><linearGradient id="paint14_linear_605_2" x1="160.5" y1="364.511" x2="123.845" y2="467.009" gradientUnits="userSpaceOnUse"><stop stop-color="#132F56"/><stop offset=".81" stop-color="#27AAE1" stop-opacity=".8"/></linearGradient><linearGradient id="paint15_linear_605_2" x1="167.77" y1="320.534" x2="150.66" y2="368.388" gradientUnits="userSpaceOnUse"><stop stop-color="#132F56"/><stop offset=".81" stop-color="#27AAE1" stop-opacity=".8"/></linearGradient><linearGradient id="paint16_linear_605_2" x1="187.228" y1="361.882" x2="156.81" y2="446.956" gradientUnits="userSpaceOnUse"><stop stop-color="#132F56"/><stop offset=".81" stop-color="#27AAE1" stop-opacity=".8"/></linearGradient><linearGradient id="paint17_linear_605_2" x1="163.064" y1="475.85" x2="147.962" y2="518.083" gradientUnits="userSpaceOnUse"><stop stop-color="#132F56"/><stop offset=".81" stop-color="#27AAE1" stop-opacity=".8"/></linearGradient><linearGradient id="paint18_linear_605_2" x1="179.715" y1="447.935" x2="160.49" y2="501.714" gradientUnits="userSpaceOnUse"><stop stop-color="#132F56"/><stop offset=".81" stop-color="#27AAE1" stop-opacity=".8"/></linearGradient><linearGradient id="paint19_linear_605_2" x1="233.902" y1="340.805" x2="208.928" y2="410.642" gradientUnits="userSpaceOnUse"><stop stop-color="#132F56"/><stop offset=".81" stop-color="#27AAE1" stop-opacity=".8"/></linearGradient><linearGradient id="paint20_linear_605_2" x1="242.902" y1="342.082" x2="217.441" y2="413.301" gradientUnits="userSpaceOnUse"><stop stop-color="#132F56"/><stop offset=".81" stop-color="#27AAE1" stop-opacity=".8"/></linearGradient><linearGradient id="paint21_linear_605_2" x1="192.161" y1="363.645" x2="161.743" y2="448.718" gradientUnits="userSpaceOnUse"><stop stop-color="#132F56"/><stop offset=".81" stop-color="#27AAE1" stop-opacity=".8"/></linearGradient><linearGradient id="paint22_linear_605_2" x1="174.054" y1="286.906" x2="221.754" y2="451.826" gradientUnits="userSpaceOnUse"><stop offset=".18" stop-color="#132F56"/><stop offset="1" stop-color="#27AAE1" stop-opacity=".8"/></linearGradient><linearGradient id="paint23_linear_605_2" x1="223.322" y1="495.118" x2="202.774" y2="552.619" gradientUnits="userSpaceOnUse"><stop stop-color="#132F56"/><stop offset=".81" stop-color="#27AAE1" stop-opacity=".8"/></linearGradient><linearGradient id="paint24_linear_605_2" x1="258.915" y1="404.673" x2="212.283" y2="535.079" gradientUnits="userSpaceOnUse"><stop stop-color="#132F56"/><stop offset=".81" stop-color="#27AAE1" stop-opacity=".8"/></linearGradient><linearGradient id="paint25_linear_605_2" x1="274.321" y1="366.486" x2="237.758" y2="468.742" gradientUnits="userSpaceOnUse"><stop stop-color="#132F56"/><stop offset=".81" stop-color="#27AAE1" stop-opacity=".8"/></linearGradient><linearGradient id="paint26_linear_605_2" x1="280.165" y1="346.534" x2="244.636" y2="445.904" gradientUnits="userSpaceOnUse"><stop stop-color="#132F56"/><stop offset=".81" stop-color="#27AAE1" stop-opacity=".8"/></linearGradient><linearGradient id="paint27_linear_605_2" x1="286.873" y1="344.893" x2="250.325" y2="447.118" gradientUnits="userSpaceOnUse"><stop stop-color="#132F56"/><stop offset=".81" stop-color="#27AAE1" stop-opacity=".8"/></linearGradient><linearGradient id="paint28_linear_605_2" x1="295.844" y1="485.469" x2="287.403" y2="509.077" gradientUnits="userSpaceOnUse"><stop stop-color="#132F56"/><stop offset=".81" stop-color="#27AAE1" stop-opacity=".8"/></linearGradient><linearGradient id="paint29_linear_605_2" x1="332.438" y1="337.736" x2="297.944" y2="434.188" gradientUnits="userSpaceOnUse"><stop stop-color="#132F56"/><stop offset=".81" stop-color="#27AAE1" stop-opacity=".8"/></linearGradient><linearGradient id="paint30_linear_605_2" x1="351.942" y1="348.418" x2="315.896" y2="449.216" gradientUnits="userSpaceOnUse"><stop stop-color="#132F56"/><stop offset=".81" stop-color="#27AAE1" stop-opacity=".8"/></linearGradient><linearGradient id="paint31_linear_605_2" x1="314.315" y1="453.664" x2="299.213" y2="495.867" gradientUnits="userSpaceOnUse"><stop stop-color="#132F56"/><stop offset=".81" stop-color="#27AAE1" stop-opacity=".8"/></linearGradient><linearGradient id="paint32_linear_605_2" x1="341.499" y1="439.076" x2="320.267" y2="498.461" gradientUnits="userSpaceOnUse"><stop stop-color="#132F56"/><stop offset=".81" stop-color="#27AAE1" stop-opacity=".8"/></linearGradient><linearGradient id="paint33_linear_605_2" x1="396.247" y1="350.333" x2="347.653" y2="486.269" gradientUnits="userSpaceOnUse"><stop stop-color="#132F56"/><stop offset=".81" stop-color="#27AAE1" stop-opacity=".8"/></linearGradient><linearGradient id="paint34_linear_605_2" x1="40.167" y1="294.899" x2="16.973" y2="359.738" gradientUnits="userSpaceOnUse"><stop stop-color="#132F56"/><stop offset=".81" stop-color="#27AAE1" stop-opacity=".8"/></linearGradient><linearGradient id="paint35_linear_605_2" x1="36.904" y1="239.906" x2="9" y2="297.138" gradientUnits="userSpaceOnUse"><stop stop-color="#132F56"/><stop offset=".15" stop-color="#184E79"/><stop offset=".36" stop-color="#1E75A6"/><stop offset=".55" stop-color="#2392C6"/><stop offset=".7" stop-color="#25A3D9"/><stop offset=".81" stop-color="#27AAE1"/></linearGradient><linearGradient id="paint36_linear_605_2" x1="67.852" y1="214.954" x2="36.775" y2="340.576" gradientUnits="userSpaceOnUse"><stop stop-color="#132F56"/><stop offset=".05" stop-color="#16436C"/><stop offset=".15" stop-color="#1B6290"/><stop offset=".26" stop-color="#1F7CAD"/><stop offset=".37" stop-color="#2290C4"/><stop offset=".49" stop-color="#259ED4"/><stop offset=".63" stop-color="#26A7DE"/><stop offset=".81" stop-color="#27AAE1"/></linearGradient><linearGradient id="paint37_linear_605_2" x1="118.577" y1="225.424" x2="81.927" y2="307.875" gradientUnits="userSpaceOnUse"><stop stop-color="#132F56"/><stop offset=".15" stop-color="#184E79"/><stop offset=".36" stop-color="#1E75A6"/><stop offset=".55" stop-color="#2392C6"/><stop offset=".7" stop-color="#25A3D9"/><stop offset=".81" stop-color="#27AAE1"/></linearGradient><linearGradient id="paint38_linear_605_2" x1="195.637" y1="193.969" x2="75.748" y2="338.45" gradientUnits="userSpaceOnUse"><stop stop-color="#132F56"/><stop offset=".15" stop-color="#184E79"/><stop offset=".36" stop-color="#1E75A6"/><stop offset=".55" stop-color="#2392C6"/><stop offset=".7" stop-color="#25A3D9"/><stop offset=".81" stop-color="#27AAE1"/></linearGradient><linearGradient id="paint39_linear_605_2" x1="219.498" y1="208.572" x2="96.037" y2="357.35" gradientUnits="userSpaceOnUse"><stop stop-color="#132F56"/><stop offset=".15" stop-color="#184E79"/><stop offset=".36" stop-color="#1E75A6"/><stop offset=".55" stop-color="#2392C6"/><stop offset=".7" stop-color="#25A3D9"/><stop offset=".81" stop-color="#27AAE1"/></linearGradient><linearGradient id="paint40_linear_605_2" x1="251.736" y1="234.815" x2="128.457" y2="383.381" gradientUnits="userSpaceOnUse"><stop stop-color="#132F56"/><stop offset=".15" stop-color="#184E79"/><stop offset=".36" stop-color="#1E75A6"/><stop offset=".55" stop-color="#2392C6"/><stop offset=".7" stop-color="#25A3D9"/><stop offset=".81" stop-color="#27AAE1"/></linearGradient><linearGradient id="paint41_linear_605_2" x1="283.049" y1="260.405" x2="160.089" y2="408.591" gradientUnits="userSpaceOnUse"><stop stop-color="#132F56"/><stop offset=".15" stop-color="#184E79"/><stop offset=".36" stop-color="#1E75A6"/><stop offset=".55" stop-color="#2392C6"/><stop offset=".7" stop-color="#25A3D9"/><stop offset=".81" stop-color="#27AAE1"/></linearGradient><linearGradient id="paint42_linear_605_2" x1="270.101" y1="259.934" x2="288.98" y2="367.497" gradientUnits="userSpaceOnUse"><stop stop-color="#132F56"/><stop offset=".15" stop-color="#184E79"/><stop offset=".36" stop-color="#1E75A6"/><stop offset=".55" stop-color="#2392C6"/><stop offset=".7" stop-color="#25A3D9"/><stop offset=".81" stop-color="#27AAE1"/></linearGradient><linearGradient id="paint43_linear_605_2" x1="354.432" y1="255.588" x2="318.398" y2="377.511" gradientUnits="userSpaceOnUse"><stop stop-color="#132F56"/><stop offset=".15" stop-color="#184E79"/><stop offset=".36" stop-color="#1E75A6"/><stop offset=".55" stop-color="#2392C6"/><stop offset=".7" stop-color="#25A3D9"/><stop offset=".81" stop-color="#27AAE1"/></linearGradient><linearGradient id="paint44_linear_605_2" x1="17.248" y1="220.926" x2="1.81" y2="273.175" gradientUnits="userSpaceOnUse"><stop stop-color="#132F56"/><stop offset=".15" stop-color="#184E79"/><stop offset=".36" stop-color="#1E75A6"/><stop offset=".55" stop-color="#2392C6"/><stop offset=".7" stop-color="#25A3D9"/><stop offset=".81" stop-color="#27AAE1"/></linearGradient><linearGradient id="paint45_linear_605_2" x1="226.662" y1="368.264" x2="233.279" y2="139.782" gradientUnits="userSpaceOnUse"><stop stop-color="#132F56"/><stop offset="1" stop-color="#27AAE1"/></linearGradient><linearGradient id="paint46_linear_605_2" x1="306.696" y1="130.679" x2="162.888" y2="316.635" gradientUnits="userSpaceOnUse"><stop stop-color="#132F56"/><stop offset=".24" stop-color="#1B6290"/><stop offset=".45" stop-color="#2189BC"/><stop offset=".62" stop-color="#25A1D7"/><stop offset=".71" stop-color="#27AAE1"/></linearGradient><linearGradient id="paint47_linear_605_2" x1="121.461" y1="133.217" x2="52.41" y2="47.393" gradientUnits="userSpaceOnUse"><stop stop-color="#132F56"/><stop offset=".24" stop-color="#1B6290"/><stop offset=".45" stop-color="#2189BC"/><stop offset=".62" stop-color="#25A1D7"/><stop offset=".71" stop-color="#27AAE1"/></linearGradient><linearGradient id="paint48_linear_605_2" x1="54.283" y1="107.353" x2="215.233" y2="107.353" gradientUnits="userSpaceOnUse"><stop stop-color="#132F56"/><stop offset=".24" stop-color="#1B6290"/><stop offset=".45" stop-color="#2189BC"/><stop offset=".62" stop-color="#25A1D7"/><stop offset=".71" stop-color="#27AAE1"/></linearGradient><linearGradient id="paint49_linear_605_2" x1="150.71" y1="145.328" x2="80.24" y2="92.54" gradientUnits="userSpaceOnUse"><stop stop-color="#132F56"/><stop offset=".24" stop-color="#1B6290"/><stop offset=".45" stop-color="#2189BC"/><stop offset=".62" stop-color="#25A1D7"/><stop offset=".71" stop-color="#27AAE1"/></linearGradient><linearGradient id="paint50_linear_605_2" x1="87.691" y1="25.996" x2="85.728" y2="50.232" gradientUnits="userSpaceOnUse"><stop stop-color="#132F56"/><stop offset=".24" stop-color="#1B6290"/><stop offset=".45" stop-color="#2189BC"/><stop offset=".62" stop-color="#25A1D7"/><stop offset=".71" stop-color="#27AAE1"/></linearGradient><linearGradient id="paint51_linear_605_2" x1="107.635" y1="13.246" x2="20.846" y2="13.732" gradientUnits="userSpaceOnUse"><stop stop-color="#132F56"/><stop offset=".24" stop-color="#1B6290"/><stop offset=".45" stop-color="#2189BC"/><stop offset=".62" stop-color="#25A1D7"/><stop offset=".71" stop-color="#27AAE1"/></linearGradient><linearGradient id="paint52_linear_605_2" x1="107.618" y1="11.438" x2="20.831" y2="11.923" gradientUnits="userSpaceOnUse"><stop stop-color="#132F56"/><stop offset=".24" stop-color="#1B6290"/><stop offset=".45" stop-color="#2189BC"/><stop offset=".62" stop-color="#25A1D7"/><stop offset=".71" stop-color="#27AAE1"/></linearGradient><linearGradient id="paint53_linear_605_2" x1="117.485" y1="20.571" x2="128.945" y2="20.571" gradientUnits="userSpaceOnUse"><stop stop-color="#132F56"/><stop offset=".24" stop-color="#1B6290"/><stop offset=".45" stop-color="#2189BC"/><stop offset=".62" stop-color="#25A1D7"/><stop offset=".71" stop-color="#27AAE1"/></linearGradient><linearGradient id="paint54_linear_605_2" x1="134.743" y1="8.931" x2="96.408" y2="22.64" gradientUnits="userSpaceOnUse"><stop stop-color="#132F56"/><stop offset=".24" stop-color="#1B6290"/><stop offset=".45" stop-color="#2189BC"/><stop offset=".62" stop-color="#25A1D7"/><stop offset=".71" stop-color="#27AAE1"/></linearGradient><linearGradient id="paint55_linear_605_2" x1="127.761" y1="13.945" x2="117.584" y2="20.636" gradientUnits="userSpaceOnUse"><stop stop-color="#132F56"/><stop offset=".24" stop-color="#1B6290"/><stop offset=".45" stop-color="#2189BC"/><stop offset=".62" stop-color="#25A1D7"/><stop offset=".71" stop-color="#27AAE1"/></linearGradient></defs></svg>