<svg width="464" height="578" fill="none" xmlns="http://www.w3.org/2000/svg"><path d="M-77.811 362.931l61.35 302.288 31.555 72.59-31.555-129.224-28.02-237.677-33.33-7.977z" fill="url(#paint0_linear_605_3)"/><path d="M15.094 737.809l-26.592 6.382-27.306-53.443 1.457-128.449 20.886 102.92 31.555 72.59z" fill="url(#paint1_linear_605_3)"/><path d="M-21.788 375.695l54.247 66.998-21.265 165.892 3.9 129.224-31.554-129.224-5.328-232.89z" fill="url(#paint2_linear_605_3)"/><path d="M30.333 793.638l-15.239-55.829-3.9-129.224 21.264-165.892 23.056 33.491-30.858 205.781 5.677 111.673z" fill="url(#paint3_linear_605_3)"/><path d="M77.84 472.598l-44.487 148.28 22.16-144.694 22.328-3.586z" fill="url(#paint4_linear_605_3)"/><path d="M93.444 472.598H77.84l-44.487 148.28 27.821 132.081L43.81 618.158l49.633-145.56z" fill="url(#paint5_linear_605_3)"/><path d="M131.025 472.598l6.739 224.532 22.343-231.659-29.082 7.127z" fill="url(#paint6_linear_605_3)"/><path d="M183.147 469.012L137.765 697.13l22.342-231.659 23.04 3.541z" fill="url(#paint7_linear_605_3)"/><path d="M93.444 472.598l-37.93 145.56 5.661 134.801-17.363-134.801 49.632-145.56z" fill="url(#paint8_linear_605_3)"/><path d="M131.025 472.598l6.739 224.532-76.589 55.829-5.661-134.801 37.93-145.56h37.581z" fill="url(#paint9_linear_605_3)"/><path d="M183.147 469.012l6.269-3.541-3.142 329.094L131.025 892l6.739-194.87 45.383-228.118z" fill="url(#paint10_linear_605_3)"/><path d="M202.652 449.607l-16.378 344.958 3.142-329.094 13.236-15.864z" fill="url(#paint11_linear_605_3)"/><path d="M223.916 430.46l-35.927 328.076 14.662-308.929 21.265-19.147z" fill="url(#paint12_linear_605_3)"/><path d="M251.343 430.46l-32.147 248.283-31.207 79.793 35.927-328.076h27.427z" fill="url(#paint13_linear_605_3)"/><path d="M337.859 436.843l-1.898 175.936L203.213 719.62l15.982-40.877 32.148-248.283 86.516 6.383z" fill="url(#paint14_linear_605_3)"/><path d="M357.241 442.693l-10.883 170.086-131.003 125.03-12.142-18.189 132.748-106.841 1.898-175.936 19.382 5.85z" fill="url(#paint15_linear_605_3)"/><path d="M420.109 394.842L395.52 587.326 337.859 729.3l-78.487 74.443 30.265-45.207 42.742-51.574 42.818-111.704 30.265-194.581 14.647-5.835z" fill="url(#paint16_linear_605_3)"/><path d="M357.241 442.693l-10.883 170.086-13.979 94.183 42.818-111.704 30.265-194.581-48.221 42.016z" fill="url(#paint17_linear_605_3)"/><path d="M420.109 394.842l-19.383 264.633-39.448 12.142 34.242-84.291 24.589-192.484z" fill="url(#paint18_linear_605_3)"/><path d="M419.061 548.09l-1.563-117.63-14.328 195.661 15.891-78.031z" fill="url(#paint19_linear_605_3)"/><path d="M435.591 408.624l-16.984 104.668-2.444-81.798 3.112-36.652 16.316 13.782z" fill="url(#paint20_linear_605_3)"/><path d="M38.195 494.115l-48.008-25.62v49.098l48.008 26.364v-49.842z" fill="url(#paint21_linear_605_3)"/><path d="M114.42 499.267l-76.225-5.152v49.842l76.225 7.203v-51.893z" fill="url(#paint22_linear_605_3)"/><path d="M184.452 495.361l-70.032 3.906v51.893l70.503-4.452-.471-51.347z" fill="url(#paint23_linear_605_3)"/><path d="M225.752 477.643l-41.3 18.98.471 50.085 40.829-18.098v-50.967z" fill="url(#paint24_linear_605_3)"/><path d="M360.307 484.268l-134.555-6.625v50.967l134.312 6.382.243-50.724z" fill="url(#paint25_linear_605_3)"/><path d="M438.428 461.019l-78.122 23.249-.243 50.724 78.365-25.043v-48.93z" fill="url(#paint26_linear_605_3)"/><path d="M450.541 450.184l-12.112 11.336v48.429l10.867-17.794 1.245-41.971z" fill="url(#paint27_linear_605_3)"/><path d="M438.125 447.039l18.563-3.525.243-42.062-20.566 10.986-2.839 14.755 4.599 19.846z" fill="url(#paint28_linear_605_3)"/><path d="M-121.889 366.198l-45.383 6.853-17.728 5.151v20.925l4.159 4.239 21.371 9.027-25.53 16.609v19.07l4.159 7.674 34.136 4.498 69.485-11.67 51.242 5.759 16.165 15.53 49.602 26.076 76.589 5.485 68.074-4.801 41.831-18.539 134.024 6.185 78.122-22.201 18.138-15.637.182-9.877-20.567-10.637 3.552-11.67 23.39-16.153v-10.273l-3.537-11.336-29.081-19.222-42.545-4.118-10.64-12.355 5.449-6.412-.485-12.461-7.802-4.467-70.897-8.236-141.825 14.42-52.486-14.42H73.834l-68.788 3.434-51.06 30.893-37.58 2.051-21.28 4.118-17.015 16.488z" fill="url(#paint29_linear_605_3)"/><path d="M-124.727 356.928l-45.383 6.869-14.89 14.405 4.25 13.737 19.155 8.236L-185 429.002l4.25 17.156 31.206 4.817 69.486-11.671 51.06 3.435 21.28 21.957 44.669 21.973 76.589 5.486 68.074-4.802 41.831-18.539 134.023 6.185 77.303-21.973 21.978-16.472-23.405-19.907 3.552-11.67 26.228-17.156-6.375-20.605-29.082-19.208-42.544-4.118-10.64-12.369 7.802-9.604-10.625-13.737-70.913-8.236-141.824 14.421-52.471-14.421H70.995l-68.787 3.435-51.06 30.892-37.58 2.067-21.281 4.118-17.014 16.472z" fill="url(#paint30_linear_605_3)"/><path d="M240.308 125.588l66.571 6.702 21.751 12.384.106 2.963 4.25 1.429-5.844 1.094 2.58 2.781-3.126-.593 1.229 2.781-3.976-1.854-8.789 4.346-23.222 2.006-25.029-1.733-38.371-17.232 11.87-15.074z" fill="url(#paint31_linear_605_3)"/><path d="M334.625.527L206.126 6.226 169.911 48.15l-7.801 195.462-37.627 18.478-26.274-13.493V200.26l-18.456-17.764-10.655 66.102 4.978 37.67 26.972 24.161 77.393 14.922.699 31.653 18.456 17.779h35.502l-6.39-19.572 6.39-31.273 11.368-7.826-9.228 19.907-.045 21.653 31.358 2.204 1.335-23.857-5.676-27.003 24.846-53.322-2.125-75.34-38.34-70.357 62.474-7.111 52.531-56.148-7.088-46.21h-19.883z" fill="url(#paint32_linear_605_3)"/><path d="M247.745 155.706l62.701 48.414.394 19.861 6.284 10.91-9.775-6.701 1.245 6.868-6.193-5.941 1.26 7.977-5.934-7.613-27.458-8.828-40.207-39.479-19.883-29.13 37.566 3.662z" fill="url(#paint33_linear_605_3)"/><path d="M354.113 56.068L275.141 71.46l-34.879-1.52 25.742 6.9 19.762-.897 4.432 9.36 4.113-11.624 31.556-8.404 7.012 9.467 4.053-10.166 11.414-2.887 5.767-5.622z" fill="url(#paint34_linear_605_3)"/><path d="M321.556 21.346l-4.432-4.407 1.806 13.509 2.398-2.675.228-6.427z" fill="url(#paint35_linear_605_3)"/><path d="M338.556 15.42l-2.762 5.044 1.047 6.671 2.626-1.565-.911-10.15z" fill="url(#paint36_linear_605_3)"/><path d="M247.669 23.503l1.093 15.18-7.498 5.38-12.112-4.589-.349-16.67 18.866.7z" fill="url(#paint37_linear_605_3)"/><path d="M255.243 16.285l-.152 4.103-7.422 3.115-18.866-.699-7.164.623.44-2.948 12.613-.228 16.453-1.079 4.098-2.887z" fill="url(#paint38_linear_605_3)"/><path d="M242.888 23.336l.713 7.461-2.884 4.164-3.794-4.194 1.351-4.559.091-2.629 4.523-.243z" fill="url(#paint39_linear_605_3)"/><defs><linearGradient id="paint0_linear_605_3" x1="-22.138" y1="524.522" x2="-72.663" y2="665.836" gradientUnits="userSpaceOnUse"><stop stop-color="#132F56"/><stop offset=".81" stop-color="#27AAE1" stop-opacity=".8"/></linearGradient><linearGradient id="paint1_linear_605_3" x1="-9.358" y1="645.055" x2="-34.59" y2="715.651" gradientUnits="userSpaceOnUse"><stop stop-color="#132F56"/><stop offset=".81" stop-color="#27AAE1" stop-opacity=".8"/></linearGradient><linearGradient id="paint2_linear_605_3" x1="5.335" y1="532.424" x2="-45.692" y2="675.105" gradientUnits="userSpaceOnUse"><stop stop-color="#132F56"/><stop offset=".81" stop-color="#27AAE1" stop-opacity=".8"/></linearGradient><linearGradient id="paint3_linear_605_3" x1="40.138" y1="593.647" x2="-11.269" y2="737.452" gradientUnits="userSpaceOnUse"><stop stop-color="#132F56"/><stop offset=".81" stop-color="#27AAE1" stop-opacity=".8"/></linearGradient><linearGradient id="paint4_linear_605_3" x1="50.338" y1="531.953" x2="26.338" y2="599.085" gradientUnits="userSpaceOnUse"><stop stop-color="#132F56"/><stop offset=".81" stop-color="#27AAE1" stop-opacity=".8"/></linearGradient><linearGradient id="paint5_linear_605_3" x1="77.659" y1="589.955" x2="34.981" y2="709.316" gradientUnits="userSpaceOnUse"><stop stop-color="#132F56"/><stop offset=".81" stop-color="#27AAE1" stop-opacity=".8"/></linearGradient><linearGradient id="paint6_linear_605_3" x1="143.122" y1="560.384" x2="108.095" y2="658.386" gradientUnits="userSpaceOnUse"><stop stop-color="#132F56"/><stop offset=".81" stop-color="#27AAE1" stop-opacity=".8"/></linearGradient><linearGradient id="paint7_linear_605_3" x1="155.751" y1="562.192" x2="120.024" y2="662.093" gradientUnits="userSpaceOnUse"><stop stop-color="#132F56"/><stop offset=".81" stop-color="#27AAE1" stop-opacity=".8"/></linearGradient><linearGradient id="paint8_linear_605_3" x1="84.565" y1="592.432" x2="41.903" y2="711.778" gradientUnits="userSpaceOnUse"><stop stop-color="#132F56"/><stop offset=".81" stop-color="#27AAE1" stop-opacity=".8"/></linearGradient><linearGradient id="paint9_linear_605_3" x1="59.172" y1="484.77" x2="126.083" y2="716.144" gradientUnits="userSpaceOnUse"><stop offset=".18" stop-color="#132F56"/><stop offset="1" stop-color="#27AAE1" stop-opacity=".8"/></linearGradient><linearGradient id="paint10_linear_605_3" x1="178.214" y1="650.008" x2="112.799" y2="832.947" gradientUnits="userSpaceOnUse"><stop stop-color="#132F56"/><stop offset=".81" stop-color="#27AAE1" stop-opacity=".8"/></linearGradient><linearGradient id="paint11_linear_605_3" x1="199.829" y1="596.428" x2="148.543" y2="739.884" gradientUnits="userSpaceOnUse"><stop stop-color="#132F56"/><stop offset=".81" stop-color="#27AAE1" stop-opacity=".8"/></linearGradient><linearGradient id="paint12_linear_605_3" x1="208.024" y1="568.438" x2="158.184" y2="707.852" gradientUnits="userSpaceOnUse"><stop stop-color="#132F56"/><stop offset=".81" stop-color="#27AAE1" stop-opacity=".8"/></linearGradient><linearGradient id="paint13_linear_605_3" x1="217.435" y1="566.143" x2="166.164" y2="709.553" gradientUnits="userSpaceOnUse"><stop stop-color="#132F56"/><stop offset=".81" stop-color="#27AAE1" stop-opacity=".8"/></linearGradient><linearGradient id="paint14_linear_605_3" x1="281.35" y1="556.083" x2="232.969" y2="691.396" gradientUnits="userSpaceOnUse"><stop stop-color="#132F56"/><stop offset=".81" stop-color="#27AAE1" stop-opacity=".8"/></linearGradient><linearGradient id="paint15_linear_605_3" x1="308.716" y1="571.082" x2="258.161" y2="712.502" gradientUnits="userSpaceOnUse"><stop stop-color="#132F56"/><stop offset=".81" stop-color="#27AAE1" stop-opacity=".8"/></linearGradient><linearGradient id="paint16_linear_605_3" x1="370.886" y1="573.771" x2="302.703" y2="764.458" gradientUnits="userSpaceOnUse"><stop stop-color="#132F56"/><stop offset=".81" stop-color="#27AAE1" stop-opacity=".8"/></linearGradient><linearGradient id="paint17_linear_605_3" x1="363.767" y1="525.859" x2="315.158" y2="661.78" gradientUnits="userSpaceOnUse"><stop stop-color="#132F56"/><stop offset=".81" stop-color="#27AAE1" stop-opacity=".8"/></linearGradient><linearGradient id="paint18_linear_605_3" x1="413.673" y1="518.033" x2="370.129" y2="639.81" gradientUnits="userSpaceOnUse"><stop stop-color="#132F56"/><stop offset=".81" stop-color="#27AAE1" stop-opacity=".8"/></linearGradient><linearGradient id="paint19_linear_605_3" x1="415.328" y1="514.295" x2="385.974" y2="596.391" gradientUnits="userSpaceOnUse"><stop stop-color="#132F56"/><stop offset=".81" stop-color="#27AAE1" stop-opacity=".8"/></linearGradient><linearGradient id="paint20_linear_605_3" x1="421.885" y1="445.793" x2="404.531" y2="494.315" gradientUnits="userSpaceOnUse"><stop stop-color="#132F56"/><stop offset=".81" stop-color="#27AAE1" stop-opacity=".8"/></linearGradient><linearGradient id="paint21_linear_605_3" x1="122.92" y1="374.89" x2="-50.272" y2="583.604" gradientUnits="userSpaceOnUse"><stop stop-color="#132F56"/><stop offset=".15" stop-color="#184E79"/><stop offset=".36" stop-color="#1E75A6"/><stop offset=".55" stop-color="#2392C6"/><stop offset=".7" stop-color="#25A3D9"/><stop offset=".81" stop-color="#27AAE1"/></linearGradient><linearGradient id="paint22_linear_605_3" x1="168.151" y1="411.709" x2="-4.798" y2="620.119" gradientUnits="userSpaceOnUse"><stop stop-color="#132F56"/><stop offset=".15" stop-color="#184E79"/><stop offset=".36" stop-color="#1E75A6"/><stop offset=".55" stop-color="#2392C6"/><stop offset=".7" stop-color="#25A3D9"/><stop offset=".81" stop-color="#27AAE1"/></linearGradient><linearGradient id="paint23_linear_605_3" x1="212.076" y1="447.616" x2="39.568" y2="655.496" gradientUnits="userSpaceOnUse"><stop stop-color="#132F56"/><stop offset=".15" stop-color="#184E79"/><stop offset=".36" stop-color="#1E75A6"/><stop offset=".55" stop-color="#2392C6"/><stop offset=".7" stop-color="#25A3D9"/><stop offset=".81" stop-color="#27AAE1"/></linearGradient><linearGradient id="paint24_linear_605_3" x1="193.923" y1="446.963" x2="220.393" y2="597.846" gradientUnits="userSpaceOnUse"><stop stop-color="#132F56"/><stop offset=".15" stop-color="#184E79"/><stop offset=".36" stop-color="#1E75A6"/><stop offset=".55" stop-color="#2392C6"/><stop offset=".7" stop-color="#25A3D9"/><stop offset=".81" stop-color="#27AAE1"/></linearGradient><linearGradient id="paint25_linear_605_3" x1="312.207" y1="440.854" x2="261.678" y2="611.896" gradientUnits="userSpaceOnUse"><stop stop-color="#132F56"/><stop offset=".15" stop-color="#184E79"/><stop offset=".36" stop-color="#1E75A6"/><stop offset=".55" stop-color="#2392C6"/><stop offset=".7" stop-color="#25A3D9"/><stop offset=".81" stop-color="#27AAE1"/></linearGradient><linearGradient id="paint26_linear_605_3" x1="421.429" y1="422.27" x2="363.051" y2="619.839" gradientUnits="userSpaceOnUse"><stop stop-color="#132F56"/><stop offset=".15" stop-color="#184E79"/><stop offset=".36" stop-color="#1E75A6"/><stop offset=".55" stop-color="#2392C6"/><stop offset=".7" stop-color="#25A3D9"/><stop offset=".81" stop-color="#27AAE1"/></linearGradient><linearGradient id="paint27_linear_605_3" x1="457.584" y1="430.278" x2="419.527" y2="559.099" gradientUnits="userSpaceOnUse"><stop stop-color="#132F56"/><stop offset=".15" stop-color="#184E79"/><stop offset=".36" stop-color="#1E75A6"/><stop offset=".55" stop-color="#2392C6"/><stop offset=".7" stop-color="#25A3D9"/><stop offset=".81" stop-color="#27AAE1"/></linearGradient><linearGradient id="paint28_linear_605_3" x1="459.36" y1="384.417" x2="428.634" y2="488.428" gradientUnits="userSpaceOnUse"><stop stop-color="#132F56"/><stop offset=".15" stop-color="#184E79"/><stop offset=".36" stop-color="#1E75A6"/><stop offset=".55" stop-color="#2392C6"/><stop offset=".7" stop-color="#25A3D9"/><stop offset=".81" stop-color="#27AAE1"/></linearGradient><linearGradient id="paint29_linear_605_3" x1="132.968" y1="598.92" x2="142.263" y2="278.397" gradientUnits="userSpaceOnUse"><stop stop-color="#132F56"/><stop offset="1" stop-color="#27AAE1"/></linearGradient><linearGradient id="paint30_linear_605_3" x1="245.256" y1="265.602" x2="43.504" y2="526.5" gradientUnits="userSpaceOnUse"><stop stop-color="#132F56"/><stop offset=".24" stop-color="#1B6290"/><stop offset=".45" stop-color="#2189BC"/><stop offset=".62" stop-color="#25A1D7"/><stop offset=".71" stop-color="#27AAE1"/></linearGradient><linearGradient id="paint31_linear_605_3" x1="317.021" y1="85.642" x2="244.847" y2="203.093" gradientUnits="userSpaceOnUse"><stop stop-color="#132F56"/><stop offset=".24" stop-color="#1B6290"/><stop offset=".45" stop-color="#2189BC"/><stop offset=".62" stop-color="#25A1D7"/><stop offset=".71" stop-color="#27AAE1"/></linearGradient><linearGradient id="paint32_linear_605_3" x1="52.053" y1="379.585" x2="603.956" y2="-207.641" gradientUnits="userSpaceOnUse"><stop stop-color="#132F56"/><stop offset=".24" stop-color="#1B6290"/><stop offset=".45" stop-color="#2189BC"/><stop offset=".62" stop-color="#25A1D7"/><stop offset=".71" stop-color="#27AAE1"/></linearGradient><linearGradient id="paint33_linear_605_3" x1="210.164" y1="61.447" x2="311.812" y2="297.306" gradientUnits="userSpaceOnUse"><stop stop-color="#132F56"/><stop offset=".24" stop-color="#1B6290"/><stop offset=".45" stop-color="#2189BC"/><stop offset=".62" stop-color="#25A1D7"/><stop offset=".71" stop-color="#27AAE1"/></linearGradient><linearGradient id="paint34_linear_605_3" x1="261.359" y1="78.436" x2="656.44" y2="-3.758" gradientUnits="userSpaceOnUse"><stop stop-color="#132F56"/><stop offset=".24" stop-color="#1B6290"/><stop offset=".45" stop-color="#2189BC"/><stop offset=".62" stop-color="#25A1D7"/><stop offset=".71" stop-color="#27AAE1"/></linearGradient><linearGradient id="paint35_linear_605_3" x1="303.312" y1="29.338" x2="451.934" y2="-27.53" gradientUnits="userSpaceOnUse"><stop stop-color="#132F56"/><stop offset=".24" stop-color="#1B6290"/><stop offset=".45" stop-color="#2189BC"/><stop offset=".62" stop-color="#25A1D7"/><stop offset=".71" stop-color="#27AAE1"/></linearGradient><linearGradient id="paint36_linear_605_3" x1="305.012" y1="33.806" x2="453.651" y2="-23.064" gradientUnits="userSpaceOnUse"><stop stop-color="#132F56"/><stop offset=".24" stop-color="#1B6290"/><stop offset=".45" stop-color="#2189BC"/><stop offset=".62" stop-color="#25A1D7"/><stop offset=".71" stop-color="#27AAE1"/></linearGradient><linearGradient id="paint37_linear_605_3" x1="248.949" y1="33.987" x2="228.427" y2="33.229" gradientUnits="userSpaceOnUse"><stop stop-color="#132F56"/><stop offset=".24" stop-color="#1B6290"/><stop offset=".45" stop-color="#2189BC"/><stop offset=".62" stop-color="#25A1D7"/><stop offset=".71" stop-color="#27AAE1"/></linearGradient><linearGradient id="paint38_linear_605_3" x1="260.252" y1="13.869" x2="162.863" y2="44.986" gradientUnits="userSpaceOnUse"><stop stop-color="#132F56"/><stop offset=".24" stop-color="#1B6290"/><stop offset=".45" stop-color="#2189BC"/><stop offset=".62" stop-color="#25A1D7"/><stop offset=".71" stop-color="#27AAE1"/></linearGradient><linearGradient id="paint39_linear_605_3" x1="230.958" y1="21.445" x2="248.745" y2="34.097" gradientUnits="userSpaceOnUse"><stop stop-color="#132F56"/><stop offset=".24" stop-color="#1B6290"/><stop offset=".45" stop-color="#2189BC"/><stop offset=".62" stop-color="#25A1D7"/><stop offset=".71" stop-color="#27AAE1"/></linearGradient></defs></svg>