<svg width="23" height="23" fill="none" xmlns="http://www.w3.org/2000/svg"><path d="M10.35 0h1.597c.153.06.315.044.473.044.566 0 1.123.07 1.67.214 3.97 1.043 6.75 3.435 8.244 7.27.334.858.556 1.749.666 2.666v2.74c-.09.165-.057.352-.095.527-1.059 4.837-3.95 7.95-8.75 9.281-.621.172-1.257.182-1.888.258h-1.533c-.475-.05-.96-.05-1.423-.154-4.367-.997-7.318-3.592-8.813-7.816-.242-.682-.364-1.39-.498-2.096V10.13c.095-.433.135-.875.25-1.305C1.224 5.2 3.382 2.559 6.81.982 7.932.464 9.124.167 10.35 0zM2.783 16.747c.357-.33.71-.634 1.107-.884 1.221-.77 2.548-1.304 3.895-1.801.145-.054.213.002.304.079.365.31.733.614 1.142.866 1.173.725 2.422.8 3.707.398.755-.237 1.36-.734 1.95-1.245.091-.08.163-.167.329-.104 1.082.413 2.16.833 3.18 1.384.656.353 1.271.764 1.805 1.294 2.409-4.043 1.843-9.441-1.993-12.826C14.533.664 9.056.534 5.259 3.52 1.385 6.564.06 11.88 2.782 16.747z" fill="#fff"/><path d="M6.96 9.241c-.002-2.648 1.489-4.63 3.483-5.097 2.158-.505 4.334.626 5.21 2.722.625 1.492.454 2.966-.15 4.415-.367.88-.89 1.661-1.607 2.303-1.547 1.383-3.382 1.375-4.878-.067-1.337-1.289-1.986-2.896-2.057-4.276z" fill="#fff"/></svg>