<svg width="626" height="713" viewBox="0 0 626 713" fill="none" xmlns="http://www.w3.org/2000/svg">
<g clip-path="url(#clip0_1_1801)">
<path d="M38.584 371.815L61.6546 528.959L145.503 749.981L68.1957 516.872L38.584 371.815Z" fill="url(#paint0_linear_1_1801)"/>
<path d="M64.7327 359.728L38.584 371.815L68.1957 516.872L92.0358 588.777L64.7327 359.728Z" fill="url(#paint1_linear_1_1801)"/>
<path d="M82.0469 351.101L86.8796 545.459L64.7324 359.728L82.0469 351.101Z" fill="url(#paint2_linear_1_1801)"/>
<path d="M94.344 345.919L98.9612 574.722L92.0354 588.777L86.8795 545.459L82.0469 351.101L94.344 345.919Z" fill="url(#paint3_linear_1_1801)"/>
<path d="M116.276 337.277L98.9619 574.722L94.3447 345.919L116.276 337.277Z" fill="url(#paint4_linear_1_1801)"/>
<path d="M109.72 642.076L158.57 692.13L188.181 749.981L150.874 756.024L145.503 749.981L109.72 642.076Z" fill="url(#paint5_linear_1_1801)"/>
<path d="M98.9619 574.722L125.542 658.284L109.72 642.076L92.0361 588.777L98.9619 574.722Z" fill="url(#paint6_linear_1_1801)"/>
<path d="M116.276 337.277L182.795 664.512L217.024 743.076L182.795 603.202L152.414 345.919L116.276 337.277Z" fill="url(#paint7_linear_1_1801)"/>
<path d="M125.542 658.284L116.276 337.277L98.9619 574.722L125.542 658.284Z" fill="url(#paint8_linear_1_1801)"/>
<path d="M177.038 351.101L182.794 603.202L152.413 345.919L177.038 351.101Z" fill="url(#paint9_linear_1_1801)"/>
<path d="M116.276 337.277L125.542 658.284L158.57 692.13L116.276 337.277Z" fill="url(#paint10_linear_1_1801)"/>
<path d="M217.023 743.076L188.181 749.981L158.569 692.13L160.139 553.101L182.794 664.512L217.023 743.076Z" fill="url(#paint11_linear_1_1801)"/>
<path d="M116.276 337.277L158.57 692.13L160.14 553.101L116.276 337.277Z" fill="url(#paint12_linear_1_1801)"/>
<path d="M177.038 351.101L235.877 423.622L212.791 603.202L217.023 743.076L182.794 603.202L177.038 351.101Z" fill="url(#paint13_linear_1_1801)"/>
<path d="M233.568 803.51L217.023 743.076L212.791 603.202L235.877 423.622L260.872 459.882L227.412 682.642L233.568 803.51Z" fill="url(#paint14_linear_1_1801)"/>
<path d="M285.096 456.007L236.831 616.503L260.871 459.882L285.096 456.007Z" fill="url(#paint15_linear_1_1801)"/>
<path d="M302.011 456.007H285.096L236.831 616.503L267.028 759.484L248.174 613.566L302.011 456.007Z" fill="url(#paint16_linear_1_1801)"/>
<path d="M233.568 803.51L252.407 848.413L272.984 817.919L227.412 682.642L233.568 803.51Z" fill="url(#paint17_linear_1_1801)"/>
<path d="M236.831 616.503L227.412 682.642L276.247 830.282L350.091 699.05L267.028 759.484L236.831 616.503Z" fill="url(#paint18_linear_1_1801)"/>
<path d="M342.78 456.007L350.091 699.05L374.316 448.272L342.78 456.007Z" fill="url(#paint19_linear_1_1801)"/>
<path d="M399.311 452.117L350.092 699.05L374.317 448.272L399.311 452.117Z" fill="url(#paint20_linear_1_1801)"/>
<path d="M302.01 456.007L260.871 613.566L267.027 759.484L248.174 613.566L302.01 456.007Z" fill="url(#paint21_linear_1_1801)"/>
<path d="M342.78 456.007L350.091 699.05L267.027 759.484L260.871 613.566L302.01 456.007H342.78Z" fill="url(#paint22_linear_1_1801)"/>
<path d="M276.247 830.283L342.781 910L350.092 699.05L276.247 830.283Z" fill="url(#paint23_linear_1_1801)"/>
<path d="M399.31 452.117L406.113 448.272L402.712 804.525L342.78 910L350.091 699.05L399.31 452.117Z" fill="url(#paint24_linear_1_1801)"/>
<path d="M420.473 431.111L402.712 804.525L406.113 448.272L420.473 431.111Z" fill="url(#paint25_linear_1_1801)"/>
<path d="M443.543 410.382L404.559 765.527L420.473 431.111L443.543 410.382Z" fill="url(#paint26_linear_1_1801)"/>
<path d="M473.278 410.382L438.418 679.136L404.559 765.527L443.543 410.382H473.278Z" fill="url(#paint27_linear_1_1801)"/>
<path d="M567.115 417.286L565.068 607.738L421.073 723.393L438.419 679.136L473.278 410.382L567.115 417.286Z" fill="url(#paint28_linear_1_1801)"/>
<path d="M588.139 423.622L576.35 607.738L434.248 743.076L421.073 723.393L565.068 607.738L567.115 417.286L588.139 423.622Z" fill="url(#paint29_linear_1_1801)"/>
<path d="M481.989 814.444L512.447 668.587L434.247 743.076L481.989 814.444Z" fill="url(#paint30_linear_1_1801)"/>
<path d="M561.174 622.193L514.818 765.527L481.989 814.444L512.447 668.587L561.174 622.193Z" fill="url(#paint31_linear_1_1801)"/>
<path d="M656.335 371.815L629.678 580.181L567.115 733.865L481.989 814.444L514.818 765.528L561.174 709.691L607.623 588.777L640.436 378.15L656.335 371.815Z" fill="url(#paint32_linear_1_1801)"/>
<path d="M576.349 607.738L561.174 709.691L514.817 765.527L561.174 622.193L576.349 607.738Z" fill="url(#paint33_linear_1_1801)"/>
<path d="M588.139 423.622L576.35 607.738L561.175 709.691L607.624 588.777L640.437 378.15L588.139 423.622Z" fill="url(#paint34_linear_1_1801)"/>
<path d="M656.335 371.815L635.312 658.284L592.525 671.432L629.679 580.181L656.335 371.815Z" fill="url(#paint35_linear_1_1801)"/>
<path d="M38.584 371.815L43.9707 553.101L67.8109 623.069L84.3559 588.777L61.6546 528.959L38.584 371.815Z" fill="url(#paint36_linear_1_1801)"/>
<path d="M4.80176 435.078L11.2812 479.289L41.6624 495.558L42.3088 439.753L4.80176 435.078Z" fill="url(#paint37_linear_1_1801)"/>
<path d="M114.799 426.159L41.6621 440.86V495.558L114.799 481.226V426.159Z" fill="url(#paint38_linear_1_1801)"/>
<path d="M172.483 432.11L114.799 426.159V481.226L174.038 487.547L172.483 432.11Z" fill="url(#paint39_linear_1_1801)"/>
<path d="M190.013 451.548L172.483 432.11V487.377L190.013 504.708V451.548Z" fill="url(#paint40_linear_1_1801)"/>
<path d="M242.096 479.289L190.014 451.548V504.708L242.096 533.249V479.289Z" fill="url(#paint41_linear_1_1801)"/>
<path d="M324.774 484.871L242.096 479.289V533.249L324.774 541.045V484.871Z" fill="url(#paint42_linear_1_1801)"/>
<path d="M400.727 480.642L324.774 484.871V541.045L401.235 536.217L400.727 480.642Z" fill="url(#paint43_linear_1_1801)"/>
<path d="M445.53 461.466L400.728 481.995L401.235 536.217L445.53 516.626V461.466Z" fill="url(#paint44_linear_1_1801)"/>
<path d="M591.479 468.617L445.529 461.466V516.626L591.217 523.546L591.479 468.617Z" fill="url(#paint45_linear_1_1801)"/>
<path d="M676.205 443.459L591.479 468.617L591.218 523.546L676.205 496.42V443.459Z" fill="url(#paint46_linear_1_1801)"/>
<path d="M4.80176 376.213V415.226L13.9746 397.772L26.3487 402.386L39.0306 390.868L4.80176 376.213Z" fill="url(#paint47_linear_1_1801)"/>
<path d="M68.4577 340.814L19.223 348.241L0 353.823V376.459L4.52486 381.041L27.6878 390.837L0 408.813V429.435L4.52486 437.754L41.5394 442.613L116.908 429.988L172.483 436.216L190.013 453.024L243.819 481.257L326.883 487.208L400.727 481.995L446.099 461.943L591.479 468.617L676.205 444.597L695.89 427.682L696.074 416.979L673.773 405.461L677.621 392.836L703 375.352V364.218L699.152 351.962L667.617 331.157L621.476 326.697L609.933 313.319L615.827 306.368L615.319 292.882L606.854 288.053L529.947 279.134L376.117 294.742L319.203 279.134H280.741L206.127 282.856L150.752 316.286L109.982 318.516L86.9112 322.976L68.4577 340.814Z" fill="url(#paint48_linear_1_1801)"/>
<path d="M65.3796 330.787L16.1448 338.215L0 353.823L4.6172 368.678L25.3792 377.597L0 408.813L4.6172 427.389L38.4613 432.587L113.829 419.947L169.205 423.668L192.291 447.442L240.741 471.231L323.804 477.167L397.649 471.969L443.021 451.901L588.401 458.591L672.234 434.817L696.074 416.979L670.695 395.435L674.543 382.794L703 364.218L696.074 341.936L664.539 321.13L618.397 316.671L606.854 303.292L615.319 292.882L603.776 278.027L526.869 269.108L373.039 284.716L316.125 269.108H277.663L203.049 272.829L147.674 306.26L106.904 308.49L83.833 312.949L65.3796 330.787Z" fill="url(#paint49_linear_1_1801)"/>
<path d="M54.376 319.623L410.824 329.004L417.134 272.86L390.016 255.345L276.202 229.018L93.4221 273.614L54.376 319.623Z" fill="#1B1B1B"/>
<path d="M359.634 225.497L404.283 259.958L137.424 258.544L235.062 219.023L359.634 225.497Z" fill="url(#paint50_linear_1_1801)"/>
<path d="M112.875 361.912C134.474 361.912 151.983 344.417 151.983 322.837C151.983 301.257 134.474 283.763 112.875 283.763C91.2767 283.763 73.7676 301.257 73.7676 322.837C73.7676 344.417 91.2767 361.912 112.875 361.912Z" fill="url(#paint51_linear_1_1801)"/>
<path d="M110.412 289.883C92.2052 291.252 78.5383 307.106 79.9081 325.298C81.2778 343.489 97.1456 357.145 115.353 355.776C133.56 354.407 147.227 338.553 145.857 320.361C144.487 302.17 128.62 288.514 110.412 289.883V289.883ZM140.855 328.788L119.108 324.252C119.231 323.652 119.308 323.037 119.262 322.391C119.17 321.207 118.754 320.131 118.139 319.193L136.607 306.906C139.301 310.889 141.024 315.579 141.409 320.7C141.625 323.483 141.409 326.19 140.84 328.788H140.855ZM128.635 299.017L116.307 317.363C115.107 316.548 113.644 316.102 112.09 316.225C111.828 316.24 111.582 316.317 111.336 316.363L107.18 294.85C108.35 294.619 109.535 294.419 110.751 294.327C117.323 293.835 123.541 295.634 128.65 299.017H128.635ZM96.9302 299.125L108.935 317.332C107.196 318.485 106.041 320.408 105.949 322.591L84.3098 321.622C84.6946 312.35 89.5734 304.092 96.9456 299.125H96.9302ZM85.972 332.51L106.318 325.144C107.011 327.051 108.519 328.558 110.412 329.204L103.317 349.763C95.3141 346.919 88.8808 340.598 85.9566 332.494L85.972 332.51ZM115.014 351.363C114.783 351.378 114.552 351.363 114.306 351.378L112.983 329.557C112.983 329.557 113.044 329.557 113.075 329.557C115.184 329.403 116.969 328.266 118.092 326.636L136.392 339.091C131.636 345.95 123.956 350.686 114.999 351.363H115.014Z" fill="url(#paint52_linear_1_1801)"/>
<path d="M403.605 335.032C405.037 330.095 405.683 324.775 405.237 319.377C403.39 295.127 382.258 276.889 357.926 278.75C333.655 280.518 315.401 301.708 317.248 325.959C317.433 328.696 317.895 331.356 318.587 333.955L154.6 331.864C156.246 326.851 156.462 321.607 156.277 318.87C154.43 294.481 133.16 276.166 108.751 278.012C84.4181 279.78 66.0109 301.047 67.8577 325.436C67.9193 326.666 68.1194 327.881 68.2425 329.034C57.8538 330.849 33.475 330.311 33.3672 327.435L32.1514 298.233C46.0491 268.723 109.92 263.51 117.985 262.957L421.074 266.109L464.137 335.801L403.575 335.032H403.605Z" fill="url(#paint53_linear_1_1801)"/>
<path d="M361.389 362.096C382.988 362.096 400.497 344.602 400.497 323.022C400.497 301.442 382.988 283.947 361.389 283.947C339.79 283.947 322.281 301.442 322.281 323.022C322.281 344.602 339.79 362.096 361.389 362.096Z" fill="url(#paint54_linear_1_1801)"/>
<path d="M358.926 290.068C340.719 291.436 327.052 307.29 328.422 325.482C329.792 343.674 345.659 357.329 363.866 355.961C382.074 354.592 395.741 338.738 394.371 320.546C393.001 302.354 377.133 288.699 358.926 290.068ZM389.369 328.973L367.622 324.436C367.745 323.837 367.822 323.222 367.776 322.576C367.683 321.392 367.268 320.315 366.652 319.377L385.121 307.091C387.814 311.073 389.538 315.764 389.923 320.884C390.138 323.668 389.923 326.374 389.353 328.973H389.369ZM377.149 299.202L364.821 317.547C363.62 316.732 362.158 316.286 360.604 316.409C360.342 316.425 360.096 316.502 359.85 316.548L355.694 295.035C356.864 294.804 358.049 294.604 359.265 294.512C365.836 294.02 372.054 295.819 377.164 299.202H377.149ZM345.444 299.309L357.449 317.517C355.709 318.67 354.555 320.592 354.463 322.776L332.823 321.807C333.208 312.534 338.087 304.276 345.459 299.309H345.444ZM334.486 332.694L354.832 325.328C355.525 327.235 357.033 328.742 358.926 329.388L351.831 349.948C343.828 347.103 337.395 340.783 334.47 332.679L334.486 332.694ZM363.528 351.547C363.297 351.563 363.066 351.547 362.82 351.563L361.496 329.742C361.496 329.742 361.558 329.742 361.589 329.742C363.697 329.588 365.482 328.45 366.606 326.82L384.906 339.276C380.15 346.134 372.47 350.871 363.513 351.547H363.528Z" fill="url(#paint55_linear_1_1801)"/>
<path d="M472.756 180.641L439.835 199.34L431.401 210.719L432.032 212.288L430.154 213.995L433.433 213.21L432.725 215.24L434.217 214.225V215.948L435.849 214.072L441.39 214.302L453.871 210.027L466.43 203.399L482.344 185.7L472.756 180.641Z" fill="url(#paint56_linear_1_1801)"/>
<path d="M276.355 77.4569L317.663 81.6089L331.176 89.2823L331.238 91.1122L333.87 92.0041L330.238 92.6808L331.854 94.3877L329.914 94.034L330.669 95.7563L328.206 94.603L322.758 97.294L308.337 98.5396L292.807 97.4632L268.998 86.7911L276.355 77.4569Z" fill="url(#paint57_linear_1_1801)"/>
<path d="M432.186 102.061L503.876 105.229L524.068 128.587L528.439 237.415L549.432 247.702L564.084 240.183V213.272L574.38 203.384L580.321 240.183L577.551 261.158L562.499 274.613L519.328 282.932L518.928 307.46L508.631 317.363H488.824L492.394 299.556L488.824 282.133L482.483 277.781L487.638 288.868L488.039 298.356L470.601 297.172L469.416 288.868L472.586 273.829L458.719 244.15L459.904 202.2L481.298 163.018L446.438 159.05L417.134 127.788L421.089 102.061H432.186Z" fill="url(#paint58_linear_1_1801)"/>
<path d="M334.886 0L255.147 3.52147L232.661 29.4942L227.828 150.562L204.465 162.018L188.166 153.653V123.713L176.716 112.702L170.098 153.653L173.191 176.981L189.921 191.943L237.955 201.2L238.401 220.792L249.852 231.802H271.876L267.921 219.684L271.876 200.309L278.941 195.465L273.2 207.797L273.184 221.207L292.638 222.575L293.469 207.797L289.945 191.067L305.366 158.051L304.043 111.38L280.249 67.7998L319.033 63.4018L351.631 28.6177L347.229 0H334.886Z" fill="url(#paint59_linear_1_1801)"/>
<path d="M476.403 193.219L447.222 227.235L449.285 238.26L447.068 245.027L451.716 240.183L451.824 244.135L454.564 240.137L454.779 244.688L457.195 239.798L471.401 231.74L489.146 205.276L496.811 186.869L476.403 193.219Z" fill="url(#paint60_linear_1_1801)"/>
<path d="M421.243 132.17L470.555 144.242L478.635 148.978L465.107 145.657L459.489 144.826L456.78 150.024L454.702 143.365L437.019 137.968L432.863 143.165L430.785 137.337L424.383 135.477L421.243 132.17Z" fill="url(#paint61_linear_1_1801)"/>
<path d="M440.373 113.241L442.974 110.857L441.681 118.438L440.373 116.885V113.241Z" fill="url(#paint62_linear_1_1801)"/>
<path d="M430.878 109.55L432.34 112.456L431.616 116.193L430.154 115.255L430.878 109.55Z" fill="url(#paint63_linear_1_1801)"/>
<path d="M482.144 116.009L481.205 124.559L485.345 127.757L492.286 125.42L492.825 116.009H482.144Z" fill="url(#paint64_linear_1_1801)"/>
<path d="M478.004 111.78V114.102L482.144 116.009H492.825L496.873 116.516L496.688 114.84L489.547 114.44L480.266 113.487L478.004 111.78Z" fill="url(#paint65_linear_1_1801)"/>
<path d="M484.853 116.009L484.283 120.207L485.838 122.621L488.069 120.33L487.408 117.731V116.255L484.853 116.009Z" fill="url(#paint66_linear_1_1801)"/>
<path d="M280.972 96.11L319.895 126.096L320.141 138.398L324.035 145.164L317.971 141.013L318.741 145.257L314.893 141.582L315.678 146.518L312 141.812L294.947 136.338L269.999 111.887L257.655 93.8495L280.972 96.11Z" fill="url(#paint67_linear_1_1801)"/>
<path d="M346.983 34.3997L297.979 43.9338L276.324 42.9958L292.3 47.2707L304.566 46.7018L307.321 52.5145L309.876 45.3024L329.453 40.1048L333.808 45.9636L336.317 39.6742L343.397 37.875L346.983 34.3997Z" fill="url(#paint68_linear_1_1801)"/>
<path d="M326.79 12.8864L324.035 10.1646L325.159 18.53L326.636 16.8692L326.79 12.8864Z" fill="url(#paint69_linear_1_1801)"/>
<path d="M337.333 9.22655L335.625 12.3482L336.271 16.4848L337.903 15.516L337.333 9.22655Z" fill="url(#paint70_linear_1_1801)"/>
<path d="M280.926 14.2243L281.603 23.6354L276.94 26.9723L269.429 24.1274L269.214 13.7937L280.926 14.2243Z" fill="url(#paint71_linear_1_1801)"/>
<path d="M285.635 9.7494L285.528 12.3021L280.926 14.2243L269.214 13.7937L264.766 14.1781L265.043 12.3482L272.877 12.2098L283.081 11.5486L285.635 9.7494Z" fill="url(#paint72_linear_1_1801)"/>
<path d="M277.955 14.1166L278.402 18.7453L276.601 21.3287L274.262 18.7299L275.093 15.9004L275.154 14.2704L277.955 14.1166Z" fill="url(#paint73_linear_1_1801)"/>
</g>
<defs>
<linearGradient id="paint0_linear_1_1801" x1="100.516" y1="537.201" x2="50.8791" y2="676.287" gradientUnits="userSpaceOnUse">
<stop stop-color="#132F56"/>
<stop offset="0.81" stop-color="#27AAE1" stop-opacity="0.8"/>
</linearGradient>
<linearGradient id="paint1_linear_1_1801" x1="74.1672" y1="455.515" x2="42.1568" y2="545.23" gradientUnits="userSpaceOnUse">
<stop stop-color="#132F56"/>
<stop offset="0.81" stop-color="#27AAE1" stop-opacity="0.8"/>
</linearGradient>
<linearGradient id="paint2_linear_1_1801" x1="82.955" y1="432.603" x2="54.8325" y2="511.397" gradientUnits="userSpaceOnUse">
<stop stop-color="#132F56"/>
<stop offset="0.81" stop-color="#27AAE1" stop-opacity="0.8"/>
</linearGradient>
<linearGradient id="paint3_linear_1_1801" x1="95.4676" y1="449.01" x2="59.8918" y2="548.692" gradientUnits="userSpaceOnUse">
<stop stop-color="#132F56"/>
<stop offset="0.81" stop-color="#27AAE1" stop-opacity="0.8"/>
</linearGradient>
<linearGradient id="paint4_linear_1_1801" x1="105.334" y1="436.032" x2="69.7733" y2="535.698" gradientUnits="userSpaceOnUse">
<stop stop-color="#132F56"/>
<stop offset="0.81" stop-color="#27AAE1" stop-opacity="0.8"/>
</linearGradient>
<linearGradient id="paint5_linear_1_1801" x1="148.35" y1="697.697" x2="133.874" y2="738.302" gradientUnits="userSpaceOnUse">
<stop stop-color="#132F56"/>
<stop offset="0.81" stop-color="#27AAE1" stop-opacity="0.8"/>
</linearGradient>
<linearGradient id="paint6_linear_1_1801" x1="113.26" y1="611.044" x2="102.441" y2="641.344" gradientUnits="userSpaceOnUse">
<stop stop-color="#132F56"/>
<stop offset="0.81" stop-color="#27AAE1" stop-opacity="0.8"/>
</linearGradient>
<linearGradient id="paint7_linear_1_1801" x1="176.639" y1="512.212" x2="122.038" y2="665.249" gradientUnits="userSpaceOnUse">
<stop stop-color="#132F56"/>
<stop offset="0.81" stop-color="#27AAE1" stop-opacity="0.8"/>
</linearGradient>
<linearGradient id="paint8_linear_1_1801" x1="128.82" y1="475.644" x2="82.4408" y2="605.61" gradientUnits="userSpaceOnUse">
<stop stop-color="#132F56"/>
<stop offset="0.81" stop-color="#27AAE1" stop-opacity="0.8"/>
</linearGradient>
<linearGradient id="paint9_linear_1_1801" x1="174.406" y1="455.531" x2="137.909" y2="557.827" gradientUnits="userSpaceOnUse">
<stop stop-color="#132F56"/>
<stop offset="0.81" stop-color="#27AAE1" stop-opacity="0.8"/>
</linearGradient>
<linearGradient id="paint10_linear_1_1801" x1="145.888" y1="491.022" x2="96.2818" y2="630.016" gradientUnits="userSpaceOnUse">
<stop stop-color="#132F56"/>
<stop offset="0.81" stop-color="#27AAE1" stop-opacity="0.8"/>
</linearGradient>
<linearGradient id="paint11_linear_1_1801" x1="190.52" y1="642.691" x2="163.243" y2="719.133" gradientUnits="userSpaceOnUse">
<stop stop-color="#132F56"/>
<stop offset="0.81" stop-color="#27AAE1" stop-opacity="0.8"/>
</linearGradient>
<linearGradient id="paint12_linear_1_1801" x1="145.888" y1="491.022" x2="96.2818" y2="630.016" gradientUnits="userSpaceOnUse">
<stop stop-color="#132F56"/>
<stop offset="0.81" stop-color="#27AAE1" stop-opacity="0.8"/>
</linearGradient>
<linearGradient id="paint13_linear_1_1801" x1="206.434" y1="520.762" x2="151.296" y2="675.275" gradientUnits="userSpaceOnUse">
<stop stop-color="#132F56"/>
<stop offset="0.81" stop-color="#27AAE1" stop-opacity="0.8"/>
</linearGradient>
<linearGradient id="paint14_linear_1_1801" x1="244.203" y1="587.024" x2="188.635" y2="742.768" gradientUnits="userSpaceOnUse">
<stop stop-color="#132F56"/>
<stop offset="0.81" stop-color="#27AAE1" stop-opacity="0.8"/>
</linearGradient>
<linearGradient id="paint15_linear_1_1801" x1="255.269" y1="520.255" x2="229.313" y2="592.959" gradientUnits="userSpaceOnUse">
<stop stop-color="#132F56"/>
<stop offset="0.81" stop-color="#27AAE1" stop-opacity="0.8"/>
</linearGradient>
<linearGradient id="paint16_linear_1_1801" x1="284.881" y1="583.042" x2="238.763" y2="712.3" gradientUnits="userSpaceOnUse">
<stop stop-color="#132F56"/>
<stop offset="0.81" stop-color="#27AAE1" stop-opacity="0.8"/>
</linearGradient>
<linearGradient id="paint17_linear_1_1801" x1="248.113" y1="756.116" x2="225.215" y2="820.284" gradientUnits="userSpaceOnUse">
<stop stop-color="#132F56"/>
<stop offset="0.81" stop-color="#27AAE1" stop-opacity="0.8"/>
</linearGradient>
<linearGradient id="paint18_linear_1_1801" x1="273.461" y1="713.736" x2="244.309" y2="795.422" gradientUnits="userSpaceOnUse">
<stop stop-color="#132F56"/>
<stop offset="0.81" stop-color="#27AAE1" stop-opacity="0.8"/>
</linearGradient>
<linearGradient id="paint19_linear_1_1801" x1="355.909" y1="551.025" x2="318.043" y2="657.151" gradientUnits="userSpaceOnUse">
<stop stop-color="#132F56"/>
<stop offset="0.81" stop-color="#27AAE1" stop-opacity="0.8"/>
</linearGradient>
<linearGradient id="paint20_linear_1_1801" x1="369.607" y1="552.978" x2="330.989" y2="661.181" gradientUnits="userSpaceOnUse">
<stop stop-color="#132F56"/>
<stop offset="0.81" stop-color="#27AAE1" stop-opacity="0.8"/>
</linearGradient>
<linearGradient id="paint21_linear_1_1801" x1="292.391" y1="585.717" x2="246.273" y2="714.975" gradientUnits="userSpaceOnUse">
<stop stop-color="#132F56"/>
<stop offset="0.81" stop-color="#27AAE1" stop-opacity="0.8"/>
</linearGradient>
<linearGradient id="paint22_linear_1_1801" x1="264.842" y1="469.186" x2="337.157" y2="719.72" gradientUnits="userSpaceOnUse">
<stop offset="0.18" stop-color="#132F56"/>
<stop offset="1" stop-color="#27AAE1" stop-opacity="0.8"/>
</linearGradient>
<linearGradient id="paint23_linear_1_1801" x1="339.811" y1="785.38" x2="308.645" y2="872.741" gradientUnits="userSpaceOnUse">
<stop stop-color="#132F56"/>
<stop offset="0.81" stop-color="#27AAE1" stop-opacity="0.8"/>
</linearGradient>
<linearGradient id="paint24_linear_1_1801" x1="393.97" y1="648.043" x2="323.264" y2="846.16" gradientUnits="userSpaceOnUse">
<stop stop-color="#132F56"/>
<stop offset="0.81" stop-color="#27AAE1" stop-opacity="0.8"/>
</linearGradient>
<linearGradient id="paint25_linear_1_1801" x1="417.41" y1="590.038" x2="361.964" y2="745.397" gradientUnits="userSpaceOnUse">
<stop stop-color="#132F56"/>
<stop offset="0.81" stop-color="#27AAE1" stop-opacity="0.8"/>
</linearGradient>
<linearGradient id="paint26_linear_1_1801" x1="426.306" y1="559.744" x2="372.427" y2="710.72" gradientUnits="userSpaceOnUse">
<stop stop-color="#132F56"/>
<stop offset="0.81" stop-color="#27AAE1" stop-opacity="0.8"/>
</linearGradient>
<linearGradient id="paint27_linear_1_1801" x1="436.51" y1="557.253" x2="381.095" y2="712.566" gradientUnits="userSpaceOnUse">
<stop stop-color="#132F56"/>
<stop offset="0.81" stop-color="#27AAE1" stop-opacity="0.8"/>
</linearGradient>
<linearGradient id="paint28_linear_1_1801" x1="505.83" y1="546.381" x2="453.55" y2="692.912" gradientUnits="userSpaceOnUse">
<stop stop-color="#132F56"/>
<stop offset="0.81" stop-color="#27AAE1" stop-opacity="0.8"/>
</linearGradient>
<linearGradient id="paint29_linear_1_1801" x1="535.518" y1="562.605" x2="480.872" y2="715.749" gradientUnits="userSpaceOnUse">
<stop stop-color="#132F56"/>
<stop offset="0.81" stop-color="#27AAE1" stop-opacity="0.8"/>
</linearGradient>
<linearGradient id="paint30_linear_1_1801" x1="478.249" y1="722.439" x2="455.382" y2="786.546" gradientUnits="userSpaceOnUse">
<stop stop-color="#132F56"/>
<stop offset="0.81" stop-color="#27AAE1" stop-opacity="0.8"/>
</linearGradient>
<linearGradient id="paint31_linear_1_1801" x1="519.635" y1="700.28" x2="487.44" y2="790.503" gradientUnits="userSpaceOnUse">
<stop stop-color="#132F56"/>
<stop offset="0.81" stop-color="#27AAE1" stop-opacity="0.8"/>
</linearGradient>
<linearGradient id="paint32_linear_1_1801" x1="602.945" y1="565.511" x2="529.258" y2="772.026" gradientUnits="userSpaceOnUse">
<stop stop-color="#132F56"/>
<stop offset="0.81" stop-color="#27AAE1" stop-opacity="0.8"/>
</linearGradient>
<linearGradient id="paint33_linear_1_1801" x1="557.326" y1="676.706" x2="531.094" y2="750.225" gradientUnits="userSpaceOnUse">
<stop stop-color="#132F56"/>
<stop offset="0.81" stop-color="#27AAE1" stop-opacity="0.8"/>
</linearGradient>
<linearGradient id="paint34_linear_1_1801" x1="595.219" y1="513.642" x2="542.693" y2="660.85" gradientUnits="userSpaceOnUse">
<stop stop-color="#132F56"/>
<stop offset="0.81" stop-color="#27AAE1" stop-opacity="0.8"/>
</linearGradient>
<linearGradient id="paint35_linear_1_1801" x1="649.348" y1="505.185" x2="602.293" y2="637.058" gradientUnits="userSpaceOnUse">
<stop stop-color="#132F56"/>
<stop offset="0.81" stop-color="#27AAE1" stop-opacity="0.8"/>
</linearGradient>
<linearGradient id="paint36_linear_1_1801" x1="61.1006" y1="481.334" x2="25.9398" y2="579.847" gradientUnits="userSpaceOnUse">
<stop stop-color="#132F56"/>
<stop offset="0.81" stop-color="#27AAE1" stop-opacity="0.8"/>
</linearGradient>
<linearGradient id="paint37_linear_1_1801" x1="56.1451" y1="397.818" x2="13.802" y2="484.807" gradientUnits="userSpaceOnUse">
<stop stop-color="#132F56"/>
<stop offset="0.15" stop-color="#184E79"/>
<stop offset="0.36" stop-color="#1E75A6"/>
<stop offset="0.55" stop-color="#2392C6"/>
<stop offset="0.7" stop-color="#25A3D9"/>
<stop offset="0.81" stop-color="#27AAE1"/>
</linearGradient>
<linearGradient id="paint38_linear_1_1801" x1="103.225" y1="359.928" x2="56.1279" y2="550.736" gradientUnits="userSpaceOnUse">
<stop stop-color="#132F56"/>
<stop offset="0.05" stop-color="#16436C"/>
<stop offset="0.15" stop-color="#1B6290"/>
<stop offset="0.26" stop-color="#1F7CAD"/>
<stop offset="0.37" stop-color="#2290C4"/>
<stop offset="0.49" stop-color="#259ED4"/>
<stop offset="0.63" stop-color="#26A7DE"/>
<stop offset="0.81" stop-color="#27AAE1"/>
</linearGradient>
<linearGradient id="paint39_linear_1_1801" x1="180.425" y1="375.813" x2="124.836" y2="501.114" gradientUnits="userSpaceOnUse">
<stop stop-color="#132F56"/>
<stop offset="0.15" stop-color="#184E79"/>
<stop offset="0.36" stop-color="#1E75A6"/>
<stop offset="0.55" stop-color="#2392C6"/>
<stop offset="0.7" stop-color="#25A3D9"/>
<stop offset="0.81" stop-color="#27AAE1"/>
</linearGradient>
<linearGradient id="paint40_linear_1_1801" x1="297.671" y1="328.05" x2="115.675" y2="547.825" gradientUnits="userSpaceOnUse">
<stop stop-color="#132F56"/>
<stop offset="0.15" stop-color="#184E79"/>
<stop offset="0.36" stop-color="#1E75A6"/>
<stop offset="0.55" stop-color="#2392C6"/>
<stop offset="0.7" stop-color="#25A3D9"/>
<stop offset="0.81" stop-color="#27AAE1"/>
</linearGradient>
<linearGradient id="paint41_linear_1_1801" x1="333.993" y1="350.24" x2="146.57" y2="576.54" gradientUnits="userSpaceOnUse">
<stop stop-color="#132F56"/>
<stop offset="0.15" stop-color="#184E79"/>
<stop offset="0.36" stop-color="#1E75A6"/>
<stop offset="0.55" stop-color="#2392C6"/>
<stop offset="0.7" stop-color="#25A3D9"/>
<stop offset="0.81" stop-color="#27AAE1"/>
</linearGradient>
<linearGradient id="paint42_linear_1_1801" x1="383.044" y1="390.099" x2="195.912" y2="616.06" gradientUnits="userSpaceOnUse">
<stop stop-color="#132F56"/>
<stop offset="0.15" stop-color="#184E79"/>
<stop offset="0.36" stop-color="#1E75A6"/>
<stop offset="0.55" stop-color="#2392C6"/>
<stop offset="0.7" stop-color="#25A3D9"/>
<stop offset="0.81" stop-color="#27AAE1"/>
</linearGradient>
<linearGradient id="paint43_linear_1_1801" x1="430.693" y1="428.958" x2="244.023" y2="654.35" gradientUnits="userSpaceOnUse">
<stop stop-color="#132F56"/>
<stop offset="0.15" stop-color="#184E79"/>
<stop offset="0.36" stop-color="#1E75A6"/>
<stop offset="0.55" stop-color="#2392C6"/>
<stop offset="0.7" stop-color="#25A3D9"/>
<stop offset="0.81" stop-color="#27AAE1"/>
</linearGradient>
<linearGradient id="paint44_linear_1_1801" x1="411.009" y1="428.235" x2="439.603" y2="591.6" gradientUnits="userSpaceOnUse">
<stop stop-color="#132F56"/>
<stop offset="0.15" stop-color="#184E79"/>
<stop offset="0.36" stop-color="#1E75A6"/>
<stop offset="0.55" stop-color="#2392C6"/>
<stop offset="0.7" stop-color="#25A3D9"/>
<stop offset="0.81" stop-color="#27AAE1"/>
</linearGradient>
<linearGradient id="paint45_linear_1_1801" x1="539.305" y1="421.623" x2="484.692" y2="606.856" gradientUnits="userSpaceOnUse">
<stop stop-color="#132F56"/>
<stop offset="0.15" stop-color="#184E79"/>
<stop offset="0.36" stop-color="#1E75A6"/>
<stop offset="0.55" stop-color="#2392C6"/>
<stop offset="0.7" stop-color="#25A3D9"/>
<stop offset="0.81" stop-color="#27AAE1"/>
</linearGradient>
<linearGradient id="paint46_linear_1_1801" x1="657.767" y1="401.509" x2="594.687" y2="615.456" gradientUnits="userSpaceOnUse">
<stop stop-color="#132F56"/>
<stop offset="0.15" stop-color="#184E79"/>
<stop offset="0.36" stop-color="#1E75A6"/>
<stop offset="0.55" stop-color="#2392C6"/>
<stop offset="0.7" stop-color="#25A3D9"/>
<stop offset="0.81" stop-color="#27AAE1"/>
</linearGradient>
<linearGradient id="paint47_linear_1_1801" x1="26.2256" y1="368.985" x2="2.82224" y2="448.36" gradientUnits="userSpaceOnUse">
<stop stop-color="#132F56"/>
<stop offset="0.15" stop-color="#184E79"/>
<stop offset="0.36" stop-color="#1E75A6"/>
<stop offset="0.55" stop-color="#2392C6"/>
<stop offset="0.7" stop-color="#25A3D9"/>
<stop offset="0.81" stop-color="#27AAE1"/>
</linearGradient>
<linearGradient id="paint48_linear_1_1801" x1="344.89" y1="592.729" x2="354.923" y2="245.78" gradientUnits="userSpaceOnUse">
<stop stop-color="#132F56"/>
<stop offset="1" stop-color="#27AAE1"/>
</linearGradient>
<linearGradient id="paint49_linear_1_1801" x1="466.676" y1="231.925" x2="248.407" y2="514.775" gradientUnits="userSpaceOnUse">
<stop stop-color="#132F56"/>
<stop offset="0.24" stop-color="#1B6290"/>
<stop offset="0.45" stop-color="#2189BC"/>
<stop offset="0.62" stop-color="#25A1D7"/>
<stop offset="0.71" stop-color="#27AAE1"/>
</linearGradient>
<linearGradient id="paint50_linear_1_1801" x1="137.69" y1="238.158" x2="404.527" y2="241.56" gradientUnits="userSpaceOnUse">
<stop stop-color="#132F56"/>
<stop offset="1" stop-color="#27AAE1"/>
</linearGradient>
<linearGradient id="paint51_linear_1_1801" x1="151.863" y1="319.93" x2="73.8512" y2="325.774" gradientUnits="userSpaceOnUse">
<stop stop-color="#132F56"/>
<stop offset="1" stop-color="#27AAE1"/>
</linearGradient>
<linearGradient id="paint52_linear_1_1801" x1="79.8817" y1="325.313" x2="145.83" y2="320.373" gradientUnits="userSpaceOnUse">
<stop stop-color="#132F56"/>
<stop offset="1" stop-color="#27AAE1"/>
</linearGradient>
<linearGradient id="paint53_linear_1_1801" x1="32.2138" y1="295.716" x2="464.61" y2="301.23" gradientUnits="userSpaceOnUse">
<stop stop-color="#132F56"/>
<stop offset="1" stop-color="#27AAE1"/>
</linearGradient>
<linearGradient id="paint54_linear_1_1801" x1="400.376" y1="320.115" x2="322.364" y2="325.958" gradientUnits="userSpaceOnUse">
<stop stop-color="#132F56"/>
<stop offset="1" stop-color="#27AAE1"/>
</linearGradient>
<linearGradient id="paint55_linear_1_1801" x1="328.394" y1="325.497" x2="394.343" y2="320.557" gradientUnits="userSpaceOnUse">
<stop stop-color="#132F56"/>
<stop offset="1" stop-color="#27AAE1"/>
</linearGradient>
<linearGradient id="paint56_linear_1_1801" x1="485.238" y1="235.892" x2="415.405" y2="148.905" gradientUnits="userSpaceOnUse">
<stop stop-color="#132F56"/>
<stop offset="0.24" stop-color="#1B6290"/>
<stop offset="0.45" stop-color="#2189BC"/>
<stop offset="0.62" stop-color="#25A1D7"/>
<stop offset="0.71" stop-color="#27AAE1"/>
</linearGradient>
<linearGradient id="paint57_linear_1_1801" x1="323.987" y1="52.7228" x2="279.311" y2="125.554" gradientUnits="userSpaceOnUse">
<stop stop-color="#132F56"/>
<stop offset="0.24" stop-color="#1B6290"/>
<stop offset="0.45" stop-color="#2189BC"/>
<stop offset="0.62" stop-color="#25A1D7"/>
<stop offset="0.71" stop-color="#27AAE1"/>
</linearGradient>
<linearGradient id="paint58_linear_1_1801" x1="417.134" y1="209.72" x2="580.321" y2="209.72" gradientUnits="userSpaceOnUse">
<stop stop-color="#132F56"/>
<stop offset="0.24" stop-color="#1B6290"/>
<stop offset="0.45" stop-color="#2189BC"/>
<stop offset="0.62" stop-color="#25A1D7"/>
<stop offset="0.71" stop-color="#27AAE1"/>
</linearGradient>
<linearGradient id="paint59_linear_1_1801" x1="159.524" y1="234.77" x2="501.319" y2="-129.616" gradientUnits="userSpaceOnUse">
<stop stop-color="#132F56"/>
<stop offset="0.24" stop-color="#1B6290"/>
<stop offset="0.45" stop-color="#2189BC"/>
<stop offset="0.62" stop-color="#25A1D7"/>
<stop offset="0.71" stop-color="#27AAE1"/>
</linearGradient>
<linearGradient id="paint60_linear_1_1801" x1="514.91" y1="248.148" x2="443.557" y2="194.591" gradientUnits="userSpaceOnUse">
<stop stop-color="#132F56"/>
<stop offset="0.24" stop-color="#1B6290"/>
<stop offset="0.45" stop-color="#2189BC"/>
<stop offset="0.62" stop-color="#25A1D7"/>
<stop offset="0.71" stop-color="#27AAE1"/>
</linearGradient>
<linearGradient id="paint61_linear_1_1801" x1="450.993" y1="127.388" x2="449.027" y2="151.916" gradientUnits="userSpaceOnUse">
<stop stop-color="#132F56"/>
<stop offset="0.24" stop-color="#1B6290"/>
<stop offset="0.45" stop-color="#2189BC"/>
<stop offset="0.62" stop-color="#25A1D7"/>
<stop offset="0.71" stop-color="#27AAE1"/>
</linearGradient>
<linearGradient id="paint62_linear_1_1801" x1="471.216" y1="114.486" x2="383.212" y2="114.979" gradientUnits="userSpaceOnUse">
<stop stop-color="#132F56"/>
<stop offset="0.24" stop-color="#1B6290"/>
<stop offset="0.45" stop-color="#2189BC"/>
<stop offset="0.62" stop-color="#25A1D7"/>
<stop offset="0.71" stop-color="#27AAE1"/>
</linearGradient>
<linearGradient id="paint63_linear_1_1801" x1="471.217" y1="112.641" x2="383.212" y2="113.149" gradientUnits="userSpaceOnUse">
<stop stop-color="#132F56"/>
<stop offset="0.24" stop-color="#1B6290"/>
<stop offset="0.45" stop-color="#2189BC"/>
<stop offset="0.62" stop-color="#25A1D7"/>
<stop offset="0.71" stop-color="#27AAE1"/>
</linearGradient>
<linearGradient id="paint64_linear_1_1801" x1="481.205" y1="121.883" x2="492.825" y2="121.883" gradientUnits="userSpaceOnUse">
<stop stop-color="#132F56"/>
<stop offset="0.24" stop-color="#1B6290"/>
<stop offset="0.45" stop-color="#2189BC"/>
<stop offset="0.62" stop-color="#25A1D7"/>
<stop offset="0.71" stop-color="#27AAE1"/>
</linearGradient>
<linearGradient id="paint65_linear_1_1801" x1="498.704" y1="110.104" x2="459.866" y2="124.041" gradientUnits="userSpaceOnUse">
<stop stop-color="#132F56"/>
<stop offset="0.24" stop-color="#1B6290"/>
<stop offset="0.45" stop-color="#2189BC"/>
<stop offset="0.62" stop-color="#25A1D7"/>
<stop offset="0.71" stop-color="#27AAE1"/>
</linearGradient>
<linearGradient id="paint66_linear_1_1801" x1="491.64" y1="115.178" x2="481.318" y2="121.968" gradientUnits="userSpaceOnUse">
<stop stop-color="#132F56"/>
<stop offset="0.24" stop-color="#1B6290"/>
<stop offset="0.45" stop-color="#2189BC"/>
<stop offset="0.62" stop-color="#25A1D7"/>
<stop offset="0.71" stop-color="#27AAE1"/>
</linearGradient>
<linearGradient id="paint67_linear_1_1801" x1="257.655" y1="37.7366" x2="320.528" y2="183.909" gradientUnits="userSpaceOnUse">
<stop stop-color="#132F56"/>
<stop offset="0.24" stop-color="#1B6290"/>
<stop offset="0.45" stop-color="#2189BC"/>
<stop offset="0.62" stop-color="#25A1D7"/>
<stop offset="0.71" stop-color="#27AAE1"/>
</linearGradient>
<linearGradient id="paint68_linear_1_1801" x1="289.422" y1="48.2549" x2="534.578" y2="-2.8512" gradientUnits="userSpaceOnUse">
<stop stop-color="#132F56"/>
<stop offset="0.24" stop-color="#1B6290"/>
<stop offset="0.45" stop-color="#2189BC"/>
<stop offset="0.62" stop-color="#25A1D7"/>
<stop offset="0.71" stop-color="#27AAE1"/>
</linearGradient>
<linearGradient id="paint69_linear_1_1801" x1="315.463" y1="17.838" x2="407.648" y2="-17.5062" gradientUnits="userSpaceOnUse">
<stop stop-color="#132F56"/>
<stop offset="0.24" stop-color="#1B6290"/>
<stop offset="0.45" stop-color="#2189BC"/>
<stop offset="0.62" stop-color="#25A1D7"/>
<stop offset="0.71" stop-color="#27AAE1"/>
</linearGradient>
<linearGradient id="paint70_linear_1_1801" x1="316.525" y1="20.606" x2="408.711" y2="-14.7378" gradientUnits="userSpaceOnUse">
<stop stop-color="#132F56"/>
<stop offset="0.24" stop-color="#1B6290"/>
<stop offset="0.45" stop-color="#2189BC"/>
<stop offset="0.62" stop-color="#25A1D7"/>
<stop offset="0.71" stop-color="#27AAE1"/>
</linearGradient>
<linearGradient id="paint71_linear_1_1801" x1="281.72" y1="20.6721" x2="268.985" y2="20.2003" gradientUnits="userSpaceOnUse">
<stop stop-color="#132F56"/>
<stop offset="0.24" stop-color="#1B6290"/>
<stop offset="0.45" stop-color="#2189BC"/>
<stop offset="0.62" stop-color="#25A1D7"/>
<stop offset="0.71" stop-color="#27AAE1"/>
</linearGradient>
<linearGradient id="paint72_linear_1_1801" x1="288.729" y1="8.25777" x2="228.315" y2="27.6018" gradientUnits="userSpaceOnUse">
<stop stop-color="#132F56"/>
<stop offset="0.24" stop-color="#1B6290"/>
<stop offset="0.45" stop-color="#2189BC"/>
<stop offset="0.62" stop-color="#25A1D7"/>
<stop offset="0.71" stop-color="#27AAE1"/>
</linearGradient>
<linearGradient id="paint73_linear_1_1801" x1="270.564" y1="12.904" x2="281.588" y2="20.7532" gradientUnits="userSpaceOnUse">
<stop stop-color="#132F56"/>
<stop offset="0.24" stop-color="#1B6290"/>
<stop offset="0.45" stop-color="#2189BC"/>
<stop offset="0.62" stop-color="#25A1D7"/>
<stop offset="0.71" stop-color="#27AAE1"/>
</linearGradient>
<clipPath id="clip0_1_1801">
<rect width="703" height="910" fill="white"/>
</clipPath>
</defs>
</svg>
