<svg width="464" height="578" viewBox="0 0 464 578" fill="none" xmlns="http://www.w3.org/2000/svg">
<path d="M-77.8115 362.931L-16.4613 665.219L15.0942 737.809L-16.4613 608.585L-44.4802 370.908L-77.8115 362.931Z" fill="url(#paint0_linear_605_3)"/>
<path d="M15.094 737.809L-11.4982 744.191L-38.8037 690.748L-37.3466 562.299L-16.4614 665.219L15.094 737.809Z" fill="url(#paint1_linear_605_3)"/>
<path d="M-21.7881 375.695L32.4588 442.693L11.1941 608.585L15.0949 737.809L-16.4605 608.585L-21.7881 375.695Z" fill="url(#paint2_linear_605_3)"/>
<path d="M30.3331 793.638L15.0942 737.809L11.1934 608.585L32.458 442.693L55.5137 476.184L24.6564 681.965L30.3331 793.638Z" fill="url(#paint3_linear_605_3)"/>
<path d="M77.8408 472.598L33.3535 620.878L55.5137 476.184L77.8408 472.598Z" fill="url(#paint4_linear_605_3)"/>
<path d="M93.4439 472.598H77.8408L33.3535 620.878L61.1751 752.959L43.8113 618.158L93.4439 472.598Z" fill="url(#paint5_linear_605_3)"/>
<path d="M131.025 472.598L137.764 697.13L160.107 465.471L131.025 472.598Z" fill="url(#paint6_linear_605_3)"/>
<path d="M183.147 469.012L137.765 697.13L160.107 465.471L183.147 469.012Z" fill="url(#paint7_linear_605_3)"/>
<path d="M93.4442 472.598L55.5139 618.158L61.1754 752.959L43.8115 618.158L93.4442 472.598Z" fill="url(#paint8_linear_605_3)"/>
<path d="M131.025 472.598L137.764 697.13L61.1751 752.959L55.5137 618.158L93.4439 472.598H131.025Z" fill="url(#paint9_linear_605_3)"/>
<path d="M183.147 469.012L189.416 465.471L186.274 794.565L131.025 892L137.764 697.13L183.147 469.012Z" fill="url(#paint10_linear_605_3)"/>
<path d="M202.652 449.607L186.274 794.565L189.416 465.471L202.652 449.607Z" fill="url(#paint11_linear_605_3)"/>
<path d="M223.916 430.46L187.989 758.536L202.651 449.607L223.916 430.46Z" fill="url(#paint12_linear_605_3)"/>
<path d="M251.343 430.46L219.196 678.743L187.989 758.536L223.916 430.46H251.343Z" fill="url(#paint13_linear_605_3)"/>
<path d="M337.859 436.843L335.961 612.779L203.213 719.62L219.195 678.743L251.343 430.46L337.859 436.843Z" fill="url(#paint14_linear_605_3)"/>
<path d="M357.241 442.693L346.358 612.779L215.355 737.809L203.213 719.62L335.961 612.779L337.859 436.843L357.241 442.693Z" fill="url(#paint15_linear_605_3)"/>
<path d="M420.109 394.842L395.52 587.326L337.859 729.3L259.372 803.743L289.637 758.536L332.379 706.962L375.197 595.258L405.462 400.677L420.109 394.842Z" fill="url(#paint16_linear_605_3)"/>
<path d="M357.241 442.693L346.358 612.779L332.379 706.962L375.197 595.258L405.462 400.677L357.241 442.693Z" fill="url(#paint17_linear_605_3)"/>
<path d="M420.109 394.842L400.726 659.475L361.278 671.617L395.52 587.326L420.109 394.842Z" fill="url(#paint18_linear_605_3)"/>
<path d="M419.061 548.09L417.498 430.46L403.17 626.121L419.061 548.09Z" fill="url(#paint19_linear_605_3)"/>
<path d="M435.591 408.624L418.607 513.292L416.163 431.494L419.275 394.842L435.591 408.624Z" fill="url(#paint20_linear_605_3)"/>
<path d="M38.1951 494.115L-9.81348 468.495V517.593L38.1951 543.957V494.115Z" fill="url(#paint21_linear_605_3)"/>
<path d="M114.42 499.267L38.1953 494.115V543.957L114.42 551.16V499.267Z" fill="url(#paint22_linear_605_3)"/>
<path d="M184.452 495.361L114.42 499.267V551.16L184.923 546.708L184.452 495.361Z" fill="url(#paint23_linear_605_3)"/>
<path d="M225.752 477.643L184.452 496.623L184.923 546.708L225.752 528.61V477.643Z" fill="url(#paint24_linear_605_3)"/>
<path d="M360.307 484.268L225.752 477.643V528.61L360.064 534.992L360.307 484.268Z" fill="url(#paint25_linear_605_3)"/>
<path d="M438.428 461.019L360.306 484.268L360.063 534.992L438.428 509.949V461.019Z" fill="url(#paint26_linear_605_3)"/>
<path d="M450.541 450.184L438.429 461.52V509.949L449.296 492.155L450.541 450.184Z" fill="url(#paint27_linear_605_3)"/>
<path d="M438.125 447.039L456.688 443.514L456.931 401.452L436.365 412.438L433.526 427.193L438.125 447.039Z" fill="url(#paint28_linear_605_3)"/>
<path d="M-121.889 366.198L-167.272 373.051L-185 378.202V399.127L-180.841 403.366L-159.47 412.393L-185 429.002V448.072L-180.841 455.746L-146.705 460.244L-77.2197 448.574L-25.9781 454.333L-9.81339 469.863L39.7889 495.939L116.378 501.424L184.452 496.623L226.283 478.084L360.307 484.269L438.429 462.068L456.567 446.431L456.749 436.554L436.182 425.917L439.734 414.247L463.124 398.094V387.821L459.587 376.485L430.506 357.263L387.961 353.145L377.321 340.79L382.77 334.378L382.285 321.917L374.483 317.45L303.586 309.214L161.761 323.634L109.275 309.214H73.8336L5.04607 312.648L-46.0134 343.541L-83.5945 345.592L-104.874 349.71L-121.889 366.198Z" fill="url(#paint29_linear_605_3)"/>
<path d="M-124.727 356.928L-170.11 363.797L-185 378.202L-180.75 391.939L-161.595 400.175L-185 429.002L-180.75 446.158L-149.544 450.975L-80.058 439.304L-28.9986 442.739L-7.71878 464.696L36.9506 486.669L113.54 492.155L181.614 487.353L223.445 468.814L357.468 474.999L434.771 453.026L456.749 436.554L433.344 416.647L436.896 404.977L463.124 387.821L456.749 367.216L427.667 348.008L385.123 343.89L374.483 331.521L382.285 321.917L371.66 308.18L300.747 299.944L158.923 314.365L106.452 299.944H70.9953L2.20773 303.379L-48.8517 334.271L-86.4329 336.338L-107.713 340.456L-124.727 356.928Z" fill="url(#paint30_linear_605_3)"/>
<path d="M240.308 125.588L306.879 132.29L328.63 144.674L328.736 147.637L332.986 149.066L327.142 150.16L329.722 152.941L326.596 152.348L327.825 155.129L323.849 153.275L315.06 157.621L291.838 159.627L266.809 157.894L228.438 140.662L240.308 125.588Z" fill="url(#paint31_linear_605_3)"/>
<path d="M334.625 0.527344L206.126 6.22574L169.911 48.1508L162.11 243.613L124.483 262.091L98.2094 248.598V200.26L79.7527 182.496L69.0977 248.598L74.0761 286.268L101.048 310.429L178.441 325.351L179.14 357.004L197.596 374.783H233.098L226.708 355.211L233.098 323.938L244.466 316.112L235.238 336.019L235.193 357.672L266.551 359.876L267.886 336.019L262.21 309.016L287.056 255.694L284.931 180.354L246.591 109.997L309.065 102.886L361.596 46.7376L354.508 0.527344H334.625Z" fill="url(#paint32_linear_605_3)"/>
<path d="M247.745 155.706L310.446 204.12L310.84 223.981L317.124 234.891L307.349 228.19L308.594 235.058L302.401 229.117L303.661 237.094L297.727 229.481L270.269 220.653L230.062 181.174L210.179 152.044L247.745 155.706Z" fill="url(#paint33_linear_605_3)"/>
<path d="M354.113 56.0677L275.141 71.461L240.262 69.9414L266.004 76.8403L285.766 75.9437L290.198 85.3043L294.311 73.6796L325.867 65.2764L332.879 74.7433L336.932 64.5773L348.346 61.6901L354.113 56.0677Z" fill="url(#paint34_linear_605_3)"/>
<path d="M321.556 21.3455L317.124 16.9387L318.93 30.4477L321.328 27.7733L321.556 21.3455Z" fill="url(#paint35_linear_605_3)"/>
<path d="M338.556 15.4192L335.794 20.4642L336.841 27.1351L339.467 25.5699L338.556 15.4192Z" fill="url(#paint36_linear_605_3)"/>
<path d="M247.669 23.5033L248.762 38.6839L241.264 44.0632L229.152 39.474L228.803 22.8043L247.669 23.5033Z" fill="url(#paint37_linear_605_3)"/>
<path d="M255.243 16.2853L255.091 20.3881L247.669 23.5032L228.803 22.8042L221.639 23.4273L222.079 20.4793L234.692 20.2514L251.145 19.1725L255.243 16.2853Z" fill="url(#paint38_linear_605_3)"/>
<path d="M242.888 23.3362L243.601 30.7973L240.717 34.9609L236.923 30.7669L238.274 26.2082L238.365 23.5793L242.888 23.3362Z" fill="url(#paint39_linear_605_3)"/>
<defs>
<linearGradient id="paint0_linear_605_3" x1="-22.1379" y1="524.522" x2="-72.6633" y2="665.836" gradientUnits="userSpaceOnUse">
<stop stop-color="#132F56"/>
<stop offset="0.81" stop-color="#27AAE1" stop-opacity="0.8"/>
</linearGradient>
<linearGradient id="paint1_linear_605_3" x1="-9.35803" y1="645.055" x2="-34.5903" y2="715.651" gradientUnits="userSpaceOnUse">
<stop stop-color="#132F56"/>
<stop offset="0.81" stop-color="#27AAE1" stop-opacity="0.8"/>
</linearGradient>
<linearGradient id="paint2_linear_605_3" x1="5.33534" y1="532.424" x2="-45.6919" y2="675.105" gradientUnits="userSpaceOnUse">
<stop stop-color="#132F56"/>
<stop offset="0.81" stop-color="#27AAE1" stop-opacity="0.8"/>
</linearGradient>
<linearGradient id="paint3_linear_605_3" x1="40.1382" y1="593.647" x2="-11.2693" y2="737.452" gradientUnits="userSpaceOnUse">
<stop stop-color="#132F56"/>
<stop offset="0.81" stop-color="#27AAE1" stop-opacity="0.8"/>
</linearGradient>
<linearGradient id="paint4_linear_605_3" x1="50.3379" y1="531.953" x2="26.3376" y2="599.085" gradientUnits="userSpaceOnUse">
<stop stop-color="#132F56"/>
<stop offset="0.81" stop-color="#27AAE1" stop-opacity="0.8"/>
</linearGradient>
<linearGradient id="paint5_linear_605_3" x1="77.6586" y1="589.955" x2="34.9813" y2="709.316" gradientUnits="userSpaceOnUse">
<stop stop-color="#132F56"/>
<stop offset="0.81" stop-color="#27AAE1" stop-opacity="0.8"/>
</linearGradient>
<linearGradient id="paint6_linear_605_3" x1="143.122" y1="560.384" x2="108.095" y2="658.386" gradientUnits="userSpaceOnUse">
<stop stop-color="#132F56"/>
<stop offset="0.81" stop-color="#27AAE1" stop-opacity="0.8"/>
</linearGradient>
<linearGradient id="paint7_linear_605_3" x1="155.751" y1="562.192" x2="120.024" y2="662.093" gradientUnits="userSpaceOnUse">
<stop stop-color="#132F56"/>
<stop offset="0.81" stop-color="#27AAE1" stop-opacity="0.8"/>
</linearGradient>
<linearGradient id="paint8_linear_605_3" x1="84.5649" y1="592.432" x2="41.9028" y2="711.778" gradientUnits="userSpaceOnUse">
<stop stop-color="#132F56"/>
<stop offset="0.81" stop-color="#27AAE1" stop-opacity="0.8"/>
</linearGradient>
<linearGradient id="paint9_linear_605_3" x1="59.1716" y1="484.77" x2="126.083" y2="716.144" gradientUnits="userSpaceOnUse">
<stop offset="0.18" stop-color="#132F56"/>
<stop offset="1" stop-color="#27AAE1" stop-opacity="0.8"/>
</linearGradient>
<linearGradient id="paint10_linear_605_3" x1="178.214" y1="650.008" x2="112.799" y2="832.947" gradientUnits="userSpaceOnUse">
<stop stop-color="#132F56"/>
<stop offset="0.81" stop-color="#27AAE1" stop-opacity="0.8"/>
</linearGradient>
<linearGradient id="paint11_linear_605_3" x1="199.829" y1="596.428" x2="148.543" y2="739.884" gradientUnits="userSpaceOnUse">
<stop stop-color="#132F56"/>
<stop offset="0.81" stop-color="#27AAE1" stop-opacity="0.8"/>
</linearGradient>
<linearGradient id="paint12_linear_605_3" x1="208.024" y1="568.438" x2="158.184" y2="707.852" gradientUnits="userSpaceOnUse">
<stop stop-color="#132F56"/>
<stop offset="0.81" stop-color="#27AAE1" stop-opacity="0.8"/>
</linearGradient>
<linearGradient id="paint13_linear_605_3" x1="217.435" y1="566.143" x2="166.164" y2="709.553" gradientUnits="userSpaceOnUse">
<stop stop-color="#132F56"/>
<stop offset="0.81" stop-color="#27AAE1" stop-opacity="0.8"/>
</linearGradient>
<linearGradient id="paint14_linear_605_3" x1="281.35" y1="556.083" x2="232.969" y2="691.396" gradientUnits="userSpaceOnUse">
<stop stop-color="#132F56"/>
<stop offset="0.81" stop-color="#27AAE1" stop-opacity="0.8"/>
</linearGradient>
<linearGradient id="paint15_linear_605_3" x1="308.716" y1="571.082" x2="258.161" y2="712.502" gradientUnits="userSpaceOnUse">
<stop stop-color="#132F56"/>
<stop offset="0.81" stop-color="#27AAE1" stop-opacity="0.8"/>
</linearGradient>
<linearGradient id="paint16_linear_605_3" x1="370.886" y1="573.771" x2="302.703" y2="764.458" gradientUnits="userSpaceOnUse">
<stop stop-color="#132F56"/>
<stop offset="0.81" stop-color="#27AAE1" stop-opacity="0.8"/>
</linearGradient>
<linearGradient id="paint17_linear_605_3" x1="363.767" y1="525.859" x2="315.158" y2="661.78" gradientUnits="userSpaceOnUse">
<stop stop-color="#132F56"/>
<stop offset="0.81" stop-color="#27AAE1" stop-opacity="0.8"/>
</linearGradient>
<linearGradient id="paint18_linear_605_3" x1="413.673" y1="518.033" x2="370.129" y2="639.81" gradientUnits="userSpaceOnUse">
<stop stop-color="#132F56"/>
<stop offset="0.81" stop-color="#27AAE1" stop-opacity="0.8"/>
</linearGradient>
<linearGradient id="paint19_linear_605_3" x1="415.328" y1="514.295" x2="385.974" y2="596.391" gradientUnits="userSpaceOnUse">
<stop stop-color="#132F56"/>
<stop offset="0.81" stop-color="#27AAE1" stop-opacity="0.8"/>
</linearGradient>
<linearGradient id="paint20_linear_605_3" x1="421.885" y1="445.793" x2="404.531" y2="494.315" gradientUnits="userSpaceOnUse">
<stop stop-color="#132F56"/>
<stop offset="0.81" stop-color="#27AAE1" stop-opacity="0.8"/>
</linearGradient>
<linearGradient id="paint21_linear_605_3" x1="122.92" y1="374.89" x2="-50.2724" y2="583.604" gradientUnits="userSpaceOnUse">
<stop stop-color="#132F56"/>
<stop offset="0.15" stop-color="#184E79"/>
<stop offset="0.36" stop-color="#1E75A6"/>
<stop offset="0.55" stop-color="#2392C6"/>
<stop offset="0.7" stop-color="#25A3D9"/>
<stop offset="0.81" stop-color="#27AAE1"/>
</linearGradient>
<linearGradient id="paint22_linear_605_3" x1="168.151" y1="411.709" x2="-4.79803" y2="620.119" gradientUnits="userSpaceOnUse">
<stop stop-color="#132F56"/>
<stop offset="0.15" stop-color="#184E79"/>
<stop offset="0.36" stop-color="#1E75A6"/>
<stop offset="0.55" stop-color="#2392C6"/>
<stop offset="0.7" stop-color="#25A3D9"/>
<stop offset="0.81" stop-color="#27AAE1"/>
</linearGradient>
<linearGradient id="paint23_linear_605_3" x1="212.076" y1="447.616" x2="39.5682" y2="655.496" gradientUnits="userSpaceOnUse">
<stop stop-color="#132F56"/>
<stop offset="0.15" stop-color="#184E79"/>
<stop offset="0.36" stop-color="#1E75A6"/>
<stop offset="0.55" stop-color="#2392C6"/>
<stop offset="0.7" stop-color="#25A3D9"/>
<stop offset="0.81" stop-color="#27AAE1"/>
</linearGradient>
<linearGradient id="paint24_linear_605_3" x1="193.923" y1="446.963" x2="220.393" y2="597.846" gradientUnits="userSpaceOnUse">
<stop stop-color="#132F56"/>
<stop offset="0.15" stop-color="#184E79"/>
<stop offset="0.36" stop-color="#1E75A6"/>
<stop offset="0.55" stop-color="#2392C6"/>
<stop offset="0.7" stop-color="#25A3D9"/>
<stop offset="0.81" stop-color="#27AAE1"/>
</linearGradient>
<linearGradient id="paint25_linear_605_3" x1="312.207" y1="440.854" x2="261.678" y2="611.896" gradientUnits="userSpaceOnUse">
<stop stop-color="#132F56"/>
<stop offset="0.15" stop-color="#184E79"/>
<stop offset="0.36" stop-color="#1E75A6"/>
<stop offset="0.55" stop-color="#2392C6"/>
<stop offset="0.7" stop-color="#25A3D9"/>
<stop offset="0.81" stop-color="#27AAE1"/>
</linearGradient>
<linearGradient id="paint26_linear_605_3" x1="421.429" y1="422.27" x2="363.051" y2="619.839" gradientUnits="userSpaceOnUse">
<stop stop-color="#132F56"/>
<stop offset="0.15" stop-color="#184E79"/>
<stop offset="0.36" stop-color="#1E75A6"/>
<stop offset="0.55" stop-color="#2392C6"/>
<stop offset="0.7" stop-color="#25A3D9"/>
<stop offset="0.81" stop-color="#27AAE1"/>
</linearGradient>
<linearGradient id="paint27_linear_605_3" x1="457.584" y1="430.278" x2="419.527" y2="559.099" gradientUnits="userSpaceOnUse">
<stop stop-color="#132F56"/>
<stop offset="0.15" stop-color="#184E79"/>
<stop offset="0.36" stop-color="#1E75A6"/>
<stop offset="0.55" stop-color="#2392C6"/>
<stop offset="0.7" stop-color="#25A3D9"/>
<stop offset="0.81" stop-color="#27AAE1"/>
</linearGradient>
<linearGradient id="paint28_linear_605_3" x1="459.36" y1="384.417" x2="428.634" y2="488.428" gradientUnits="userSpaceOnUse">
<stop stop-color="#132F56"/>
<stop offset="0.15" stop-color="#184E79"/>
<stop offset="0.36" stop-color="#1E75A6"/>
<stop offset="0.55" stop-color="#2392C6"/>
<stop offset="0.7" stop-color="#25A3D9"/>
<stop offset="0.81" stop-color="#27AAE1"/>
</linearGradient>
<linearGradient id="paint29_linear_605_3" x1="132.968" y1="598.92" x2="142.263" y2="278.397" gradientUnits="userSpaceOnUse">
<stop stop-color="#132F56"/>
<stop offset="1" stop-color="#27AAE1"/>
</linearGradient>
<linearGradient id="paint30_linear_605_3" x1="245.256" y1="265.602" x2="43.5044" y2="526.5" gradientUnits="userSpaceOnUse">
<stop stop-color="#132F56"/>
<stop offset="0.24" stop-color="#1B6290"/>
<stop offset="0.45" stop-color="#2189BC"/>
<stop offset="0.62" stop-color="#25A1D7"/>
<stop offset="0.71" stop-color="#27AAE1"/>
</linearGradient>
<linearGradient id="paint31_linear_605_3" x1="317.021" y1="85.6421" x2="244.847" y2="203.093" gradientUnits="userSpaceOnUse">
<stop stop-color="#132F56"/>
<stop offset="0.24" stop-color="#1B6290"/>
<stop offset="0.45" stop-color="#2189BC"/>
<stop offset="0.62" stop-color="#25A1D7"/>
<stop offset="0.71" stop-color="#27AAE1"/>
</linearGradient>
<linearGradient id="paint32_linear_605_3" x1="52.0525" y1="379.585" x2="603.956" y2="-207.641" gradientUnits="userSpaceOnUse">
<stop stop-color="#132F56"/>
<stop offset="0.24" stop-color="#1B6290"/>
<stop offset="0.45" stop-color="#2189BC"/>
<stop offset="0.62" stop-color="#25A1D7"/>
<stop offset="0.71" stop-color="#27AAE1"/>
</linearGradient>
<linearGradient id="paint33_linear_605_3" x1="210.164" y1="61.447" x2="311.812" y2="297.306" gradientUnits="userSpaceOnUse">
<stop stop-color="#132F56"/>
<stop offset="0.24" stop-color="#1B6290"/>
<stop offset="0.45" stop-color="#2189BC"/>
<stop offset="0.62" stop-color="#25A1D7"/>
<stop offset="0.71" stop-color="#27AAE1"/>
</linearGradient>
<linearGradient id="paint34_linear_605_3" x1="261.359" y1="78.4359" x2="656.44" y2="-3.75806" gradientUnits="userSpaceOnUse">
<stop stop-color="#132F56"/>
<stop offset="0.24" stop-color="#1B6290"/>
<stop offset="0.45" stop-color="#2189BC"/>
<stop offset="0.62" stop-color="#25A1D7"/>
<stop offset="0.71" stop-color="#27AAE1"/>
</linearGradient>
<linearGradient id="paint35_linear_605_3" x1="303.312" y1="29.3384" x2="451.934" y2="-27.5303" gradientUnits="userSpaceOnUse">
<stop stop-color="#132F56"/>
<stop offset="0.24" stop-color="#1B6290"/>
<stop offset="0.45" stop-color="#2189BC"/>
<stop offset="0.62" stop-color="#25A1D7"/>
<stop offset="0.71" stop-color="#27AAE1"/>
</linearGradient>
<linearGradient id="paint36_linear_605_3" x1="305.012" y1="33.806" x2="453.651" y2="-23.0638" gradientUnits="userSpaceOnUse">
<stop stop-color="#132F56"/>
<stop offset="0.24" stop-color="#1B6290"/>
<stop offset="0.45" stop-color="#2189BC"/>
<stop offset="0.62" stop-color="#25A1D7"/>
<stop offset="0.71" stop-color="#27AAE1"/>
</linearGradient>
<linearGradient id="paint37_linear_605_3" x1="248.949" y1="33.9874" x2="228.427" y2="33.2286" gradientUnits="userSpaceOnUse">
<stop stop-color="#132F56"/>
<stop offset="0.24" stop-color="#1B6290"/>
<stop offset="0.45" stop-color="#2189BC"/>
<stop offset="0.62" stop-color="#25A1D7"/>
<stop offset="0.71" stop-color="#27AAE1"/>
</linearGradient>
<linearGradient id="paint38_linear_605_3" x1="260.252" y1="13.8692" x2="162.863" y2="44.9855" gradientUnits="userSpaceOnUse">
<stop stop-color="#132F56"/>
<stop offset="0.24" stop-color="#1B6290"/>
<stop offset="0.45" stop-color="#2189BC"/>
<stop offset="0.62" stop-color="#25A1D7"/>
<stop offset="0.71" stop-color="#27AAE1"/>
</linearGradient>
<linearGradient id="paint39_linear_605_3" x1="230.958" y1="21.4447" x2="248.745" y2="34.0968" gradientUnits="userSpaceOnUse">
<stop stop-color="#132F56"/>
<stop offset="0.24" stop-color="#1B6290"/>
<stop offset="0.45" stop-color="#2189BC"/>
<stop offset="0.62" stop-color="#25A1D7"/>
<stop offset="0.71" stop-color="#27AAE1"/>
</linearGradient>
</defs>
</svg>
