<svg width="328" height="578" viewBox="0 0 328 578" fill="none" xmlns="http://www.w3.org/2000/svg">
<path d="M25.3682 222.795L40.5312 326.263L95.628 471.808L44.8266 318.301L25.3682 222.795Z" fill="url(#paint0_linear_605_2)"/>
<path d="M42.5499 214.833L25.3682 222.795L44.8266 318.3L60.4905 365.65L42.5499 214.833Z" fill="url(#paint1_linear_605_2)"/>
<path d="M53.9183 209.15L57.1057 337.128L42.5498 214.833L53.9183 209.15Z" fill="url(#paint2_linear_605_2)"/>
<path d="M62.008 205.731L65.0436 356.396L60.4901 365.65L57.1054 337.128L53.918 209.15L62.008 205.731Z" fill="url(#paint3_linear_605_2)"/>
<path d="M76.4129 200.047L65.0444 356.396L62.0088 205.731L76.4129 200.047Z" fill="url(#paint4_linear_605_2)"/>
<path d="M72.1172 400.752L104.219 433.712L123.677 471.808L99.1646 475.789L95.6282 471.808L72.1172 400.752Z" fill="url(#paint5_linear_605_2)"/>
<path d="M65.0437 356.396L82.5138 411.435L72.1168 400.752L60.4902 365.65L65.0437 356.396Z" fill="url(#paint6_linear_605_2)"/>
<path d="M76.4121 200.047L120.14 415.523L142.635 467.264L120.14 375.163L100.181 205.731L76.4121 200.047Z" fill="url(#paint7_linear_605_2)"/>
<path d="M82.5141 411.435L76.4124 200.047L65.0439 356.396L82.5141 411.435Z" fill="url(#paint8_linear_605_2)"/>
<path d="M116.346 209.15L120.141 375.163L100.182 205.731L116.346 209.15Z" fill="url(#paint9_linear_605_2)"/>
<path d="M76.4121 200.047L82.5138 411.435L104.219 433.712L76.4121 200.047Z" fill="url(#paint10_linear_605_2)"/>
<path d="M142.635 467.264L123.677 471.808L104.219 433.712L105.251 342.158L120.141 415.523L142.635 467.264Z" fill="url(#paint11_linear_605_2)"/>
<path d="M76.4121 200.047L104.219 433.712L105.251 342.158L76.4121 200.047Z" fill="url(#paint12_linear_605_2)"/>
<path d="M116.347 209.15L155.021 256.895L139.858 375.163L142.635 467.264L120.141 375.163L116.347 209.15Z" fill="url(#paint13_linear_605_2)"/>
<path d="M153.503 507.062L142.635 467.264L139.857 375.163L155.021 256.895L171.443 280.782L149.465 427.467L153.503 507.062Z" fill="url(#paint14_linear_605_2)"/>
<path d="M187.365 278.214L155.643 383.916L171.443 280.782L187.365 278.214Z" fill="url(#paint15_linear_605_2)"/>
<path d="M198.491 278.214H187.365L155.643 383.916L175.496 478.068L163.11 381.986L198.491 278.214Z" fill="url(#paint16_linear_605_2)"/>
<path d="M153.502 507.062L165.888 536.617L179.411 516.544L149.465 427.467L153.502 507.062Z" fill="url(#paint17_linear_605_2)"/>
<path d="M155.642 383.916L149.465 427.467L181.552 524.689L230.076 438.271L175.495 478.068L155.642 383.916Z" fill="url(#paint18_linear_605_2)"/>
<path d="M225.28 278.214L230.077 438.271L245.999 273.139L225.28 278.214Z" fill="url(#paint19_linear_605_2)"/>
<path d="M262.436 275.661L230.076 438.271L245.998 273.139L262.436 275.661Z" fill="url(#paint20_linear_605_2)"/>
<path d="M198.491 278.214L171.443 381.986L175.496 478.068L163.11 381.986L198.491 278.214Z" fill="url(#paint21_linear_605_2)"/>
<path d="M225.28 278.214L230.077 438.271L175.496 478.068L171.443 381.986L198.491 278.214H225.28Z" fill="url(#paint22_linear_605_2)"/>
<path d="M181.552 524.689L225.28 577.175L230.076 438.271L181.552 524.689Z" fill="url(#paint23_linear_605_2)"/>
<path d="M262.437 275.661L266.899 273.139L264.668 507.73L225.28 577.175L230.077 438.271L262.437 275.661Z" fill="url(#paint24_linear_605_2)"/>
<path d="M276.325 261.833L264.668 507.731L266.899 273.139L276.325 261.833Z" fill="url(#paint25_linear_605_2)"/>
<path d="M291.488 248.187L265.882 482.05L276.324 261.833L291.488 248.187Z" fill="url(#paint26_linear_605_2)"/>
<path d="M311.037 248.187L288.118 425.157L265.882 482.05L291.488 248.187H311.037Z" fill="url(#paint27_linear_605_2)"/>
<path d="M264.668 507.73L278.693 489.237L316.759 514.265L276.735 454.302L265.882 482.05L264.668 507.73Z" fill="url(#paint28_linear_605_2)"/>
<path d="M372.706 252.731L371.355 378.141L276.734 454.302L288.118 425.157L311.037 248.187L372.706 252.731Z" fill="url(#paint29_linear_605_2)"/>
<path d="M386.518 256.895L378.777 378.141L285.386 467.264L276.734 454.302L371.355 378.141L372.706 252.731L386.518 256.895Z" fill="url(#paint30_linear_605_2)"/>
<path d="M316.759 514.265L336.779 418.212L285.386 467.264L316.759 514.265Z" fill="url(#paint31_linear_605_2)"/>
<path d="M368.805 387.654L338.327 482.05L316.759 514.265L336.779 418.212L368.805 387.654Z" fill="url(#paint32_linear_605_2)"/>
<path d="M431.339 222.795L413.808 359.998L372.706 461.201L316.759 514.265L338.327 482.05L368.805 445.276L399.328 365.65L420.896 226.959L431.339 222.795Z" fill="url(#paint33_linear_605_2)"/>
<path d="M25.3682 222.795L28.9047 342.158L44.5686 388.231L55.4361 365.65L40.5312 326.263L25.3682 222.795Z" fill="url(#paint34_linear_605_2)"/>
<path d="M3.16309 264.447L7.42815 293.562L27.3875 304.275L27.8125 267.516L3.16309 264.447Z" fill="url(#paint35_linear_605_2)"/>
<path d="M75.456 258.581L27.3867 268.261V304.275L75.456 294.838V258.581Z" fill="url(#paint36_linear_605_2)"/>
<path d="M113.356 262.487L75.4561 258.581V294.838L114.373 298.987L113.356 262.487Z" fill="url(#paint37_linear_605_2)"/>
<path d="M124.877 275.297L113.356 262.487V298.88L124.877 310.292V275.297Z" fill="url(#paint38_linear_605_2)"/>
<path d="M159.104 293.562L124.877 275.297V310.292L159.104 329.09V293.562Z" fill="url(#paint39_linear_605_2)"/>
<path d="M213.441 297.224L159.104 293.562V329.09L213.441 334.226V297.224Z" fill="url(#paint40_linear_605_2)"/>
<path d="M263.362 294.443L213.441 297.224V334.226L263.696 331.05L263.362 294.443Z" fill="url(#paint41_linear_605_2)"/>
<path d="M292.793 281.816L263.362 295.34L263.696 331.05L292.793 318.133V281.816Z" fill="url(#paint42_linear_605_2)"/>
<path d="M388.704 286.541L292.793 281.816V318.133L388.537 322.692L388.704 286.541Z" fill="url(#paint43_linear_605_2)"/>
<path d="M3.16309 225.683V251.379L9.18887 239.875L17.3244 242.915L25.6572 235.332L3.16309 225.683Z" fill="url(#paint44_linear_605_2)"/>
<path d="M44.9939 202.372L12.6492 207.265L0.00585938 210.943V225.85L2.98072 228.858L18.2045 235.301L0.00585938 247.139V260.739L2.98072 266.21L27.3114 269.401L76.8378 261.089L113.357 265.191L124.877 276.269L160.242 294.854L214.838 298.774L263.363 295.34L293.173 282.135L388.704 286.541L444.393 270.708L457.324 259.569L457.461 252.533L442.799 244.936L445.319 236.623L461.999 225.12V217.781L459.48 209.712L438.746 196.005L408.42 193.073L400.847 184.274L404.717 179.685L404.383 170.811L398.813 167.635L348.269 161.754L247.183 172.042L209.784 161.754H184.497L135.471 164.201L99.0738 186.219L72.2844 187.693L57.1214 190.626L44.9939 202.372Z" fill="url(#paint45_linear_605_2)"/>
<path d="M42.9753 195.762L10.6306 200.655L0.00585938 210.943L3.0415 220.729L16.6867 226.594L0.00585938 247.139L3.0415 259.371L25.2775 262.806L74.8191 254.478L111.216 256.925L126.379 272.592L158.223 288.243L212.804 292.164L261.329 288.73L291.154 275.525L386.685 279.931L441.782 264.264L457.461 252.533L440.78 238.341L443.3 230.013L461.999 217.781L457.461 203.102L436.728 189.41L406.402 186.462L398.813 177.664L404.383 170.811L396.794 161.025L346.251 155.159L245.164 165.432L207.75 155.159H182.478L133.452 157.606L97.0552 179.624L70.2656 181.083L55.1027 184.016L42.9753 195.762Z" fill="url(#paint46_linear_605_2)"/>
<path d="M109.137 78.6184L76.6706 97.0964L68.3681 108.356L68.9753 109.891L67.1387 111.578L70.3716 110.818L69.6734 112.824L71.1305 111.821V113.508L72.7546 111.669L78.2187 111.897L90.5282 107.657L102.914 101.108L118.608 83.6178L109.137 78.6184Z" fill="url(#paint47_linear_605_2)"/>
<path d="M69.1274 0.983398L139.843 4.11371L159.756 27.1808L164.052 134.721L184.755 144.902L199.204 137.471V110.879L209.374 101.093L215.233 137.471L212.485 158.198L197.656 171.495L155.066 179.7L154.687 203.953L144.517 213.724H124.998L128.504 196.127L124.998 178.925L118.745 174.61L123.814 185.566L124.209 194.957L107.027 193.787L105.859 185.566L108.97 170.704L95.3098 141.377L96.4785 99.9228L117.576 61.2041L83.1976 57.2988L54.2832 26.4058L58.1991 0.983398H69.1274Z" fill="url(#paint48_linear_605_2)"/>
<path d="M112.749 91.0485L83.9717 124.661L86.0055 135.572L83.8047 142.243L88.4037 137.471L88.4948 141.362L91.1965 137.411L91.4242 141.909L93.8072 137.076L107.817 129.129L125.302 102.962L132.861 84.7727L112.749 91.0485Z" fill="url(#paint49_linear_605_2)"/>
<path d="M58.3359 30.7214L106.982 42.6501L114.935 47.3304L101.609 44.0481L96.0689 43.2275L93.3975 48.3637L91.3485 41.7991L73.9088 36.4502L69.7954 41.5864L67.7464 35.8272L61.4474 33.9885L58.3359 30.7214Z" fill="url(#paint50_linear_605_2)"/>
<path d="M77.2178 12.0307L79.7829 9.66016L78.4927 17.1516L77.2178 15.6169V12.0307Z" fill="url(#paint51_linear_605_2)"/>
<path d="M67.852 8.36853L69.2939 11.2405L68.5654 14.9483L67.1387 14.0213L67.852 8.36853Z" fill="url(#paint52_linear_605_2)"/>
<path d="M118.396 14.766L117.485 23.2148L121.553 26.3603L128.398 24.0506L128.945 14.766H118.396Z" fill="url(#paint53_linear_605_2)"/>
<path d="M114.328 10.5719V12.8665L118.396 14.7659H128.945L132.921 15.2522L132.739 13.5958L125.712 13.2008L116.559 12.2738L114.328 10.5719Z" fill="url(#paint54_linear_605_2)"/>
<path d="M121.067 14.766L120.521 18.9144L122.054 21.3001L124.254 19.036L123.587 16.4679V14.9939L121.067 14.766Z" fill="url(#paint55_linear_605_2)"/>
<defs>
<linearGradient id="paint0_linear_605_2" x1="66.0609" y1="331.688" x2="33.3305" y2="423.249" gradientUnits="userSpaceOnUse">
<stop stop-color="#132F56"/>
<stop offset="0.81" stop-color="#27AAE1" stop-opacity="0.8"/>
</linearGradient>
<linearGradient id="paint1_linear_605_2" x1="48.7578" y1="277.895" x2="27.6472" y2="336.945" gradientUnits="userSpaceOnUse">
<stop stop-color="#132F56"/>
<stop offset="0.81" stop-color="#27AAE1" stop-opacity="0.8"/>
</linearGradient>
<linearGradient id="paint2_linear_605_2" x1="54.5254" y1="262.806" x2="35.9853" y2="314.686" gradientUnits="userSpaceOnUse">
<stop stop-color="#132F56"/>
<stop offset="0.81" stop-color="#27AAE1" stop-opacity="0.8"/>
</linearGradient>
<linearGradient id="paint3_linear_605_2" x1="62.7517" y1="273.61" x2="39.2838" y2="339.223" gradientUnits="userSpaceOnUse">
<stop stop-color="#132F56"/>
<stop offset="0.81" stop-color="#27AAE1" stop-opacity="0.8"/>
</linearGradient>
<linearGradient id="paint4_linear_605_2" x1="69.2336" y1="265.07" x2="45.7808" y2="330.668" gradientUnits="userSpaceOnUse">
<stop stop-color="#132F56"/>
<stop offset="0.81" stop-color="#27AAE1" stop-opacity="0.8"/>
</linearGradient>
<linearGradient id="paint5_linear_605_2" x1="97.5103" y1="437.374" x2="87.9436" y2="464.096" gradientUnits="userSpaceOnUse">
<stop stop-color="#132F56"/>
<stop offset="0.81" stop-color="#27AAE1" stop-opacity="0.8"/>
</linearGradient>
<linearGradient id="paint6_linear_605_2" x1="74.439" y1="380.314" x2="67.3058" y2="400.261" gradientUnits="userSpaceOnUse">
<stop stop-color="#132F56"/>
<stop offset="0.81" stop-color="#27AAE1" stop-opacity="0.8"/>
</linearGradient>
<linearGradient id="paint7_linear_605_2" x1="116.103" y1="315.231" x2="80.0722" y2="415.967" gradientUnits="userSpaceOnUse">
<stop stop-color="#132F56"/>
<stop offset="0.81" stop-color="#27AAE1" stop-opacity="0.8"/>
</linearGradient>
<linearGradient id="paint8_linear_605_2" x1="84.6694" y1="291.161" x2="54.0835" y2="376.69" gradientUnits="userSpaceOnUse">
<stop stop-color="#132F56"/>
<stop offset="0.81" stop-color="#27AAE1" stop-opacity="0.8"/>
</linearGradient>
<linearGradient id="paint9_linear_605_2" x1="114.631" y1="277.91" x2="90.5549" y2="345.24" gradientUnits="userSpaceOnUse">
<stop stop-color="#132F56"/>
<stop offset="0.81" stop-color="#27AAE1" stop-opacity="0.8"/>
</linearGradient>
<linearGradient id="paint10_linear_605_2" x1="95.8857" y1="301.281" x2="63.1705" y2="392.766" gradientUnits="userSpaceOnUse">
<stop stop-color="#132F56"/>
<stop offset="0.81" stop-color="#27AAE1" stop-opacity="0.8"/>
</linearGradient>
<linearGradient id="paint11_linear_605_2" x1="125.21" y1="401.148" x2="107.218" y2="451.478" gradientUnits="userSpaceOnUse">
<stop stop-color="#132F56"/>
<stop offset="0.81" stop-color="#27AAE1" stop-opacity="0.8"/>
</linearGradient>
<linearGradient id="paint12_linear_605_2" x1="95.8857" y1="301.281" x2="63.1705" y2="392.766" gradientUnits="userSpaceOnUse">
<stop stop-color="#132F56"/>
<stop offset="0.81" stop-color="#27AAE1" stop-opacity="0.8"/>
</linearGradient>
<linearGradient id="paint13_linear_605_2" x1="135.684" y1="320.869" x2="99.3183" y2="422.562" gradientUnits="userSpaceOnUse">
<stop stop-color="#132F56"/>
<stop offset="0.81" stop-color="#27AAE1" stop-opacity="0.8"/>
</linearGradient>
<linearGradient id="paint14_linear_605_2" x1="160.5" y1="364.511" x2="123.845" y2="467.009" gradientUnits="userSpaceOnUse">
<stop stop-color="#132F56"/>
<stop offset="0.81" stop-color="#27AAE1" stop-opacity="0.8"/>
</linearGradient>
<linearGradient id="paint15_linear_605_2" x1="167.77" y1="320.534" x2="150.66" y2="368.388" gradientUnits="userSpaceOnUse">
<stop stop-color="#132F56"/>
<stop offset="0.81" stop-color="#27AAE1" stop-opacity="0.8"/>
</linearGradient>
<linearGradient id="paint16_linear_605_2" x1="187.228" y1="361.882" x2="156.81" y2="446.956" gradientUnits="userSpaceOnUse">
<stop stop-color="#132F56"/>
<stop offset="0.81" stop-color="#27AAE1" stop-opacity="0.8"/>
</linearGradient>
<linearGradient id="paint17_linear_605_2" x1="163.064" y1="475.85" x2="147.962" y2="518.083" gradientUnits="userSpaceOnUse">
<stop stop-color="#132F56"/>
<stop offset="0.81" stop-color="#27AAE1" stop-opacity="0.8"/>
</linearGradient>
<linearGradient id="paint18_linear_605_2" x1="179.715" y1="447.935" x2="160.49" y2="501.714" gradientUnits="userSpaceOnUse">
<stop stop-color="#132F56"/>
<stop offset="0.81" stop-color="#27AAE1" stop-opacity="0.8"/>
</linearGradient>
<linearGradient id="paint19_linear_605_2" x1="233.902" y1="340.805" x2="208.928" y2="410.642" gradientUnits="userSpaceOnUse">
<stop stop-color="#132F56"/>
<stop offset="0.81" stop-color="#27AAE1" stop-opacity="0.8"/>
</linearGradient>
<linearGradient id="paint20_linear_605_2" x1="242.902" y1="342.082" x2="217.441" y2="413.301" gradientUnits="userSpaceOnUse">
<stop stop-color="#132F56"/>
<stop offset="0.81" stop-color="#27AAE1" stop-opacity="0.8"/>
</linearGradient>
<linearGradient id="paint21_linear_605_2" x1="192.161" y1="363.645" x2="161.743" y2="448.718" gradientUnits="userSpaceOnUse">
<stop stop-color="#132F56"/>
<stop offset="0.81" stop-color="#27AAE1" stop-opacity="0.8"/>
</linearGradient>
<linearGradient id="paint22_linear_605_2" x1="174.054" y1="286.906" x2="221.754" y2="451.826" gradientUnits="userSpaceOnUse">
<stop offset="0.18" stop-color="#132F56"/>
<stop offset="1" stop-color="#27AAE1" stop-opacity="0.8"/>
</linearGradient>
<linearGradient id="paint23_linear_605_2" x1="223.322" y1="495.118" x2="202.774" y2="552.619" gradientUnits="userSpaceOnUse">
<stop stop-color="#132F56"/>
<stop offset="0.81" stop-color="#27AAE1" stop-opacity="0.8"/>
</linearGradient>
<linearGradient id="paint24_linear_605_2" x1="258.915" y1="404.673" x2="212.283" y2="535.079" gradientUnits="userSpaceOnUse">
<stop stop-color="#132F56"/>
<stop offset="0.81" stop-color="#27AAE1" stop-opacity="0.8"/>
</linearGradient>
<linearGradient id="paint25_linear_605_2" x1="274.321" y1="366.486" x2="237.758" y2="468.742" gradientUnits="userSpaceOnUse">
<stop stop-color="#132F56"/>
<stop offset="0.81" stop-color="#27AAE1" stop-opacity="0.8"/>
</linearGradient>
<linearGradient id="paint26_linear_605_2" x1="280.165" y1="346.534" x2="244.636" y2="445.904" gradientUnits="userSpaceOnUse">
<stop stop-color="#132F56"/>
<stop offset="0.81" stop-color="#27AAE1" stop-opacity="0.8"/>
</linearGradient>
<linearGradient id="paint27_linear_605_2" x1="286.873" y1="344.893" x2="250.325" y2="447.118" gradientUnits="userSpaceOnUse">
<stop stop-color="#132F56"/>
<stop offset="0.81" stop-color="#27AAE1" stop-opacity="0.8"/>
</linearGradient>
<linearGradient id="paint28_linear_605_2" x1="295.844" y1="485.469" x2="287.403" y2="509.077" gradientUnits="userSpaceOnUse">
<stop stop-color="#132F56"/>
<stop offset="0.81" stop-color="#27AAE1" stop-opacity="0.8"/>
</linearGradient>
<linearGradient id="paint29_linear_605_2" x1="332.438" y1="337.736" x2="297.944" y2="434.188" gradientUnits="userSpaceOnUse">
<stop stop-color="#132F56"/>
<stop offset="0.81" stop-color="#27AAE1" stop-opacity="0.8"/>
</linearGradient>
<linearGradient id="paint30_linear_605_2" x1="351.942" y1="348.418" x2="315.896" y2="449.216" gradientUnits="userSpaceOnUse">
<stop stop-color="#132F56"/>
<stop offset="0.81" stop-color="#27AAE1" stop-opacity="0.8"/>
</linearGradient>
<linearGradient id="paint31_linear_605_2" x1="314.315" y1="453.664" x2="299.213" y2="495.867" gradientUnits="userSpaceOnUse">
<stop stop-color="#132F56"/>
<stop offset="0.81" stop-color="#27AAE1" stop-opacity="0.8"/>
</linearGradient>
<linearGradient id="paint32_linear_605_2" x1="341.499" y1="439.076" x2="320.267" y2="498.461" gradientUnits="userSpaceOnUse">
<stop stop-color="#132F56"/>
<stop offset="0.81" stop-color="#27AAE1" stop-opacity="0.8"/>
</linearGradient>
<linearGradient id="paint33_linear_605_2" x1="396.247" y1="350.333" x2="347.653" y2="486.269" gradientUnits="userSpaceOnUse">
<stop stop-color="#132F56"/>
<stop offset="0.81" stop-color="#27AAE1" stop-opacity="0.8"/>
</linearGradient>
<linearGradient id="paint34_linear_605_2" x1="40.1669" y1="294.899" x2="16.9727" y2="359.738" gradientUnits="userSpaceOnUse">
<stop stop-color="#132F56"/>
<stop offset="0.81" stop-color="#27AAE1" stop-opacity="0.8"/>
</linearGradient>
<linearGradient id="paint35_linear_605_2" x1="36.9043" y1="239.906" x2="9.00036" y2="297.138" gradientUnits="userSpaceOnUse">
<stop stop-color="#132F56"/>
<stop offset="0.15" stop-color="#184E79"/>
<stop offset="0.36" stop-color="#1E75A6"/>
<stop offset="0.55" stop-color="#2392C6"/>
<stop offset="0.7" stop-color="#25A3D9"/>
<stop offset="0.81" stop-color="#27AAE1"/>
</linearGradient>
<linearGradient id="paint36_linear_605_2" x1="67.8517" y1="214.954" x2="36.7751" y2="340.576" gradientUnits="userSpaceOnUse">
<stop stop-color="#132F56"/>
<stop offset="0.05" stop-color="#16436C"/>
<stop offset="0.15" stop-color="#1B6290"/>
<stop offset="0.26" stop-color="#1F7CAD"/>
<stop offset="0.37" stop-color="#2290C4"/>
<stop offset="0.49" stop-color="#259ED4"/>
<stop offset="0.63" stop-color="#26A7DE"/>
<stop offset="0.81" stop-color="#27AAE1"/>
</linearGradient>
<linearGradient id="paint37_linear_605_2" x1="118.577" y1="225.424" x2="81.9273" y2="307.875" gradientUnits="userSpaceOnUse">
<stop stop-color="#132F56"/>
<stop offset="0.15" stop-color="#184E79"/>
<stop offset="0.36" stop-color="#1E75A6"/>
<stop offset="0.55" stop-color="#2392C6"/>
<stop offset="0.7" stop-color="#25A3D9"/>
<stop offset="0.81" stop-color="#27AAE1"/>
</linearGradient>
<linearGradient id="paint38_linear_605_2" x1="195.637" y1="193.969" x2="75.7475" y2="338.45" gradientUnits="userSpaceOnUse">
<stop stop-color="#132F56"/>
<stop offset="0.15" stop-color="#184E79"/>
<stop offset="0.36" stop-color="#1E75A6"/>
<stop offset="0.55" stop-color="#2392C6"/>
<stop offset="0.7" stop-color="#25A3D9"/>
<stop offset="0.81" stop-color="#27AAE1"/>
</linearGradient>
<linearGradient id="paint39_linear_605_2" x1="219.498" y1="208.572" x2="96.0367" y2="357.35" gradientUnits="userSpaceOnUse">
<stop stop-color="#132F56"/>
<stop offset="0.15" stop-color="#184E79"/>
<stop offset="0.36" stop-color="#1E75A6"/>
<stop offset="0.55" stop-color="#2392C6"/>
<stop offset="0.7" stop-color="#25A3D9"/>
<stop offset="0.81" stop-color="#27AAE1"/>
</linearGradient>
<linearGradient id="paint40_linear_605_2" x1="251.736" y1="234.815" x2="128.457" y2="383.381" gradientUnits="userSpaceOnUse">
<stop stop-color="#132F56"/>
<stop offset="0.15" stop-color="#184E79"/>
<stop offset="0.36" stop-color="#1E75A6"/>
<stop offset="0.55" stop-color="#2392C6"/>
<stop offset="0.7" stop-color="#25A3D9"/>
<stop offset="0.81" stop-color="#27AAE1"/>
</linearGradient>
<linearGradient id="paint41_linear_605_2" x1="283.049" y1="260.405" x2="160.089" y2="408.591" gradientUnits="userSpaceOnUse">
<stop stop-color="#132F56"/>
<stop offset="0.15" stop-color="#184E79"/>
<stop offset="0.36" stop-color="#1E75A6"/>
<stop offset="0.55" stop-color="#2392C6"/>
<stop offset="0.7" stop-color="#25A3D9"/>
<stop offset="0.81" stop-color="#27AAE1"/>
</linearGradient>
<linearGradient id="paint42_linear_605_2" x1="270.101" y1="259.934" x2="288.98" y2="367.497" gradientUnits="userSpaceOnUse">
<stop stop-color="#132F56"/>
<stop offset="0.15" stop-color="#184E79"/>
<stop offset="0.36" stop-color="#1E75A6"/>
<stop offset="0.55" stop-color="#2392C6"/>
<stop offset="0.7" stop-color="#25A3D9"/>
<stop offset="0.81" stop-color="#27AAE1"/>
</linearGradient>
<linearGradient id="paint43_linear_605_2" x1="354.432" y1="255.588" x2="318.398" y2="377.511" gradientUnits="userSpaceOnUse">
<stop stop-color="#132F56"/>
<stop offset="0.15" stop-color="#184E79"/>
<stop offset="0.36" stop-color="#1E75A6"/>
<stop offset="0.55" stop-color="#2392C6"/>
<stop offset="0.7" stop-color="#25A3D9"/>
<stop offset="0.81" stop-color="#27AAE1"/>
</linearGradient>
<linearGradient id="paint44_linear_605_2" x1="17.2484" y1="220.926" x2="1.80982" y2="273.175" gradientUnits="userSpaceOnUse">
<stop stop-color="#132F56"/>
<stop offset="0.15" stop-color="#184E79"/>
<stop offset="0.36" stop-color="#1E75A6"/>
<stop offset="0.55" stop-color="#2392C6"/>
<stop offset="0.7" stop-color="#25A3D9"/>
<stop offset="0.81" stop-color="#27AAE1"/>
</linearGradient>
<linearGradient id="paint45_linear_605_2" x1="226.662" y1="368.264" x2="233.279" y2="139.782" gradientUnits="userSpaceOnUse">
<stop stop-color="#132F56"/>
<stop offset="1" stop-color="#27AAE1"/>
</linearGradient>
<linearGradient id="paint46_linear_605_2" x1="306.696" y1="130.679" x2="162.888" y2="316.635" gradientUnits="userSpaceOnUse">
<stop stop-color="#132F56"/>
<stop offset="0.24" stop-color="#1B6290"/>
<stop offset="0.45" stop-color="#2189BC"/>
<stop offset="0.62" stop-color="#25A1D7"/>
<stop offset="0.71" stop-color="#27AAE1"/>
</linearGradient>
<linearGradient id="paint47_linear_605_2" x1="121.461" y1="133.217" x2="52.41" y2="47.3932" gradientUnits="userSpaceOnUse">
<stop stop-color="#132F56"/>
<stop offset="0.24" stop-color="#1B6290"/>
<stop offset="0.45" stop-color="#2189BC"/>
<stop offset="0.62" stop-color="#25A1D7"/>
<stop offset="0.71" stop-color="#27AAE1"/>
</linearGradient>
<linearGradient id="paint48_linear_605_2" x1="54.2832" y1="107.353" x2="215.233" y2="107.353" gradientUnits="userSpaceOnUse">
<stop stop-color="#132F56"/>
<stop offset="0.24" stop-color="#1B6290"/>
<stop offset="0.45" stop-color="#2189BC"/>
<stop offset="0.62" stop-color="#25A1D7"/>
<stop offset="0.71" stop-color="#27AAE1"/>
</linearGradient>
<linearGradient id="paint49_linear_605_2" x1="150.71" y1="145.328" x2="80.24" y2="92.5398" gradientUnits="userSpaceOnUse">
<stop stop-color="#132F56"/>
<stop offset="0.24" stop-color="#1B6290"/>
<stop offset="0.45" stop-color="#2189BC"/>
<stop offset="0.62" stop-color="#25A1D7"/>
<stop offset="0.71" stop-color="#27AAE1"/>
</linearGradient>
<linearGradient id="paint50_linear_605_2" x1="87.6905" y1="25.9956" x2="85.728" y2="50.2324" gradientUnits="userSpaceOnUse">
<stop stop-color="#132F56"/>
<stop offset="0.24" stop-color="#1B6290"/>
<stop offset="0.45" stop-color="#2189BC"/>
<stop offset="0.62" stop-color="#25A1D7"/>
<stop offset="0.71" stop-color="#27AAE1"/>
</linearGradient>
<linearGradient id="paint51_linear_605_2" x1="107.635" y1="13.2464" x2="20.8459" y2="13.7315" gradientUnits="userSpaceOnUse">
<stop stop-color="#132F56"/>
<stop offset="0.24" stop-color="#1B6290"/>
<stop offset="0.45" stop-color="#2189BC"/>
<stop offset="0.62" stop-color="#25A1D7"/>
<stop offset="0.71" stop-color="#27AAE1"/>
</linearGradient>
<linearGradient id="paint52_linear_605_2" x1="107.618" y1="11.4381" x2="20.8306" y2="11.9232" gradientUnits="userSpaceOnUse">
<stop stop-color="#132F56"/>
<stop offset="0.24" stop-color="#1B6290"/>
<stop offset="0.45" stop-color="#2189BC"/>
<stop offset="0.62" stop-color="#25A1D7"/>
<stop offset="0.71" stop-color="#27AAE1"/>
</linearGradient>
<linearGradient id="paint53_linear_605_2" x1="117.485" y1="20.5708" x2="128.945" y2="20.5708" gradientUnits="userSpaceOnUse">
<stop stop-color="#132F56"/>
<stop offset="0.24" stop-color="#1B6290"/>
<stop offset="0.45" stop-color="#2189BC"/>
<stop offset="0.62" stop-color="#25A1D7"/>
<stop offset="0.71" stop-color="#27AAE1"/>
</linearGradient>
<linearGradient id="paint54_linear_605_2" x1="134.743" y1="8.93076" x2="96.4078" y2="22.6396" gradientUnits="userSpaceOnUse">
<stop stop-color="#132F56"/>
<stop offset="0.24" stop-color="#1B6290"/>
<stop offset="0.45" stop-color="#2189BC"/>
<stop offset="0.62" stop-color="#25A1D7"/>
<stop offset="0.71" stop-color="#27AAE1"/>
</linearGradient>
<linearGradient id="paint55_linear_605_2" x1="127.761" y1="13.9454" x2="117.584" y2="20.636" gradientUnits="userSpaceOnUse">
<stop stop-color="#132F56"/>
<stop offset="0.24" stop-color="#1B6290"/>
<stop offset="0.45" stop-color="#2189BC"/>
<stop offset="0.62" stop-color="#25A1D7"/>
<stop offset="0.71" stop-color="#27AAE1"/>
</linearGradient>
</defs>
</svg>
