<svg width="23" height="23" viewBox="0 0 23 23" fill="none" xmlns="http://www.w3.org/2000/svg">
<path d="M10.3496 0H11.9469C12.1003 0.060528 12.2619 0.0439624 12.4197 0.0439624C12.9864 0.0439624 13.5435 0.114685 14.0898 0.25804C18.0606 1.30103 20.8399 3.69284 22.3336 7.52713C22.6684 8.38599 22.8901 9.27671 23 10.1936V12.9332C22.9106 13.0989 22.9431 13.2862 22.9048 13.4614C21.8461 18.2979 18.9544 21.411 14.155 22.742C13.534 22.914 12.8976 22.9242 12.267 23H10.7336C10.2589 22.9509 9.77335 22.9509 9.31143 22.8458C4.9445 21.8487 1.99275 19.2543 0.497708 15.0301C0.256202 14.3483 0.133531 13.6398 0 12.9339V10.1305C0.0945582 9.69786 0.134809 9.25569 0.250451 8.82562C1.22415 5.20095 3.38173 2.55938 6.80947 0.981828C7.93266 0.464473 9.12486 0.16693 10.3496 0ZM2.78308 16.7471C3.13959 16.4165 3.4929 16.1132 3.8903 15.8628C5.11125 15.0938 6.43826 14.5586 7.78508 14.0616C7.93011 14.0081 7.99783 14.0635 8.0892 14.1406C8.45401 14.4503 8.82202 14.7548 9.23092 15.0071C10.404 15.7315 11.653 15.8074 12.9385 15.4047C13.693 15.1683 14.2987 14.6713 14.8872 14.1604C14.9792 14.0807 15.0507 13.9928 15.2168 14.0565C16.2985 14.4694 17.3763 14.8886 18.3973 15.4397C19.0528 15.7933 19.6681 16.2037 20.2016 16.7344C22.6109 12.6911 22.0448 7.29267 18.2088 3.90756C14.5332 0.663897 9.05586 0.533921 5.2582 3.52018C1.38643 6.56378 0.0613352 11.8788 2.78308 16.7471Z" fill="white"/>
<path d="M6.96094 9.24108C6.95839 6.5925 8.44895 4.611 10.443 4.14398C12.6012 3.63873 14.7767 4.77029 15.6539 6.86647C16.2781 8.358 16.1069 9.83234 15.5031 11.2812C15.1364 12.1617 14.6138 12.9422 13.8956 13.5844C12.3488 14.967 10.5145 14.9594 9.01822 13.5169C7.68099 12.228 7.03186 10.6205 6.96094 9.24108Z" fill="white"/>
</svg>
